<svg width="513" height="512" viewBox="0 0 513 512" fill="none" xmlns="http://www.w3.org/2000/svg">
<rect x="0.00195312" width="512" height="512" rx="256" fill="black"/>
<path d="M250.368 405.182C250.368 405.182 256.685 374.376 244.518 346.396C236.392 327.654 218.435 310.295 218.435 310.295C206.953 301.057 193.577 294.464 179.261 290.984C159.902 286.481 155.24 282.934 155.24 282.934C155.24 282.934 156.022 298.789 152.741 310.498C149.461 322.206 149.603 335.175 155.24 342.737C152.486 332.415 152.486 321.551 155.24 311.23C158.927 297.509 157.576 287.182 157.576 287.182C157.576 287.182 169.683 291.959 178.336 293.667C186.99 295.374 207.222 304.847 215.916 313.181C224.61 321.515 236.636 337.94 240.902 347.087C240.861 347.128 253.923 376.44 250.368 405.182Z" fill="#BD9D40"/>
<path d="M337.167 415.457C342.926 412.561 348.848 410.01 354.83 407.611C363.528 404.111 371.708 399.44 379.145 393.727C400.962 377.018 414.958 352.178 419.274 325.031C426.912 276.907 446.89 269.131 446.89 269.131C441.812 279.834 439.476 304.826 438.582 317.48C437.919 327.331 436.596 337.128 434.621 346.802C428.019 378.695 418.37 389.875 418.37 389.875C366.449 460.492 270.285 455.939 270.285 455.939C279 445.43 317.829 425.163 337.167 415.457ZM408.823 394.327C414.226 387.294 419.549 380.2 422.819 371.967C428.396 358.092 432.221 343.574 434.205 328.751C434.499 326.363 434.692 323.964 434.845 321.555C435.861 306.568 438.141 291.693 441.66 277.089C441.66 277.089 427.44 294.368 423.743 322.582C420.046 350.796 399.773 393.727 354.677 412.835C308.058 432.593 280.533 452.168 280.533 452.168C280.533 452.168 365.789 450.308 408.823 394.327Z" fill="#BD9D40"/>
<path d="M277.629 268.755C273.648 264.791 256.666 240.297 256.523 240.073V250.521C256.727 256.62 273.008 271.418 273.008 271.418C290.416 289.712 293.321 302.763 293.321 302.763C293.331 288.706 277.629 268.755 277.629 268.755Z" fill="#BD9D40"/>
<path d="M235.408 268.755C239.39 264.791 256.382 240.297 256.524 240.073V250.521C256.311 256.64 239.999 271.428 239.999 271.428C222.59 289.723 219.686 302.773 219.686 302.773C219.686 288.706 235.408 268.755 235.408 268.755Z" fill="#BD9D40"/>
<path d="M107.299 284.346C107.299 284.346 116.359 277.577 120.757 277.232C120.757 277.232 121.884 284.346 123.265 287.131C123.265 287.152 113.535 283.289 107.299 284.346Z" fill="#BD9D40"/>
<path d="M136.07 267.058C127.254 269.802 124.034 275.636 124.034 275.636C124.034 275.636 121.334 279.707 126.582 287.756C126.57 287.713 126.563 287.69 126.563 287.69C126.563 287.69 124.379 279.671 130.626 276.348C136.872 273.024 143.098 274.64 145.424 278.381C151.894 288.849 147.242 318.375 147.242 318.375C147.242 318.375 147.228 318.365 147.2 318.347C147.218 318.958 147.171 319.279 147.171 319.279L150.157 304.034C153.143 288.798 151.945 277.771 150.817 274.376C149.69 270.981 144.886 264.314 136.07 267.058Z" fill="#BD9D40"/>
<path d="M262.44 404.572C262.44 404.572 256.123 373.766 268.29 345.785C276.416 327.034 294.373 309.684 294.373 309.684C305.853 300.442 319.229 293.849 333.548 290.373C352.906 285.871 357.578 282.324 357.578 282.324C357.578 282.324 356.786 298.179 360.077 309.888C363.368 321.596 363.246 334.524 357.578 342.086C360.332 331.764 360.332 320.9 357.578 310.579C353.891 296.848 355.232 286.521 355.232 286.521C355.232 286.521 343.125 291.308 334.472 293.016C325.818 294.723 305.586 304.196 296.892 312.53C288.198 320.864 276.172 337.289 271.906 346.436C271.947 346.507 258.885 375.809 262.44 404.572Z" fill="#BD9D40"/>
<path d="M405.552 283.726C405.552 283.726 396.493 276.947 392.085 276.612C392.085 276.612 390.967 283.726 389.586 286.511C389.556 286.521 399.276 282.669 405.552 283.726Z" fill="#BD9D40"/>
<path d="M376.736 266.428C385.521 269.173 388.782 275.006 388.782 275.006C388.782 275.006 391.465 279.07 386.234 287.105C386.247 287.062 386.253 287.04 386.253 287.04C386.253 287.04 388.437 279.021 382.19 275.708C375.944 272.394 369.718 273.99 367.392 277.741C360.922 288.199 365.584 317.724 365.584 317.724C365.584 317.724 365.592 317.719 365.607 317.709C365.588 318.325 365.634 318.649 365.634 318.649L362.648 303.404C359.662 288.168 360.881 277.161 361.998 273.756C363.116 270.352 367.95 263.684 376.736 266.428Z" fill="#BD9D40"/>
<path d="M299.809 282.974C299.809 282.974 311.174 257.484 302.633 228.568C299.99 219.527 298.622 210.16 298.57 200.74C298.417 183.391 305.243 166.56 318.152 155.004C323.058 150.603 328.908 146.873 335.52 145.328C349.211 142.127 356.727 126.729 359.165 119.045C360.495 114.858 359.165 115.732 359.165 115.732C359.165 115.732 351.222 137.97 334.789 142.218C315.491 147.229 303.547 166.479 299.768 176.378C295.99 186.277 291.206 199.236 298.641 228.599C303.086 246.409 303.485 264.989 299.809 282.974Z" fill="#BD9D40"/>
<path d="M315.319 146.923C315.319 146.923 309.489 144.576 314.06 135.561L317.747 129.838L320.987 134.92C320.987 134.92 325.548 140.683 320.215 145.683C320.215 145.683 320.611 140.134 319.382 137.41L318.204 134.676C318.204 134.676 319.271 139.413 318.488 142.075C317.822 143.915 316.737 145.575 315.319 146.923Z" fill="#BD9D40"/>
<path d="M304.503 203.728C304.503 203.728 313.837 210.243 322.978 194.357L328.006 183.086L317.097 183.208C317.097 183.208 303.893 181.988 301.537 195.059C301.537 195.059 309.551 188.961 314.914 188.107L320.276 187.273C320.276 187.273 312.029 190.322 308.769 194.174C305.508 198.026 304.503 203.728 304.503 203.728Z" fill="#BD9D40"/>
<path d="M333.024 137.929C333.024 137.929 326.929 134.168 333.785 124.371L339.016 118.272L341.698 124.798C341.698 124.798 345.76 132.339 338.772 137.299C338.772 137.299 340.286 130.855 339.412 127.44L338.518 124.056C338.518 124.056 338.823 129.798 337.432 132.786C336.366 134.81 334.86 136.567 333.024 137.929Z" fill="#BD9D40"/>
<path d="M355.782 119.574C355.782 119.574 346.793 114.695 352.359 105.65L356.717 99.9785L359.662 105.579C361.45 113.811 359.764 117.023 358.362 121.332C358.118 122.064 358.971 117.429 358.606 118.151L358.362 118.619C357.946 119.367 357.471 120.081 356.94 120.753C358.511 116.7 358.801 112.262 357.773 108.038C357.51 107.025 357.171 106.033 356.757 105.07C356.757 105.07 357.468 110.152 356.412 112.846C355.761 115.025 355.547 117.312 355.782 119.574Z" fill="#BD9D40"/>
<path d="M312.823 270.158C312.823 270.158 320.045 272.709 323.143 260.767L324.392 252.555L317.333 254.587C317.333 254.587 308.507 256.163 309.35 265.056C309.35 265.056 313.463 259.659 316.785 258.155L320.116 256.651C320.116 256.651 315.322 260.127 313.89 263.196C313.001 265.403 312.635 267.786 312.823 270.158Z" fill="#BD9D40"/>
<path d="M298.701 290.079C298.701 290.079 320.518 282.589 333.173 261.113C337.136 254.422 342.01 248.316 347.657 242.971C352.747 238.032 358.829 234.234 365.5 231.83C372.17 229.426 379.276 228.47 386.344 229.026C391.9 229.383 397.279 231.13 401.985 234.108C416.905 244.129 433.207 231.73 433.207 231.73C433.207 231.73 415.28 239.464 403.478 231.943C389.543 223.07 371.2 226.709 363.085 230.012C354.969 233.315 344.447 237.726 330.888 258.775C322.63 271.484 311.632 282.181 298.701 290.079Z" fill="#BD9D40"/>
<path d="M385.552 218.72C385.552 218.72 382.891 210.833 395.912 207.662L404.84 206.432L402.504 214.075C402.504 214.075 400.655 223.629 391.016 222.582C391.016 222.582 396.938 218.191 398.624 214.604L400.3 211.006C400.3 211.006 396.46 216.169 393.109 217.683C390.702 218.603 388.117 218.958 385.552 218.72Z" fill="#BD9D40"/>
<path d="M429.122 232.858C429.122 232.858 425.598 226.292 436.618 221.545L444.327 219.126L443.423 226.241C443.423 226.241 443.21 234.961 434.536 235.48C434.536 235.48 439.117 230.713 440.071 227.288L441.016 223.873C441.016 223.873 438.395 229.006 435.653 230.835C433.661 232.003 431.426 232.695 429.122 232.858Z" fill="#BD9D40"/>
<path d="M312.107 112.978C312.107 112.978 319.593 112.236 319.146 101.411L318.018 94.2969L311.924 98.6774C311.924 98.6774 304.103 103.383 307.374 110.213C307.374 110.213 309.72 104.267 312.452 101.767L315.154 99.2771C315.154 99.2771 311.629 103.942 311.091 106.971C310.881 109.028 311.232 111.104 312.107 112.978Z" fill="#BD9D40"/>
<path d="M370.916 151.213C370.916 151.213 373.364 157.311 384.912 152.504L392.296 148.642L386.253 145.257C386.253 145.257 379.478 140.491 372.846 146.091C372.846 146.091 379.763 145.664 383.003 146.945L386.293 148.225C386.293 148.225 380.504 147.117 377.152 147.941C374.876 148.605 372.756 149.718 370.916 151.213Z" fill="#BD9D40"/>
<path d="M303.325 175.961C314.145 169.586 326.808 167.077 339.24 168.847C345.112 169.728 351.111 169.123 356.689 167.088C359.129 166.18 361.338 164.744 363.16 162.884C364.983 161.023 366.373 158.784 367.232 156.325C369.029 151.243 373.173 142.604 380.314 144.129C380.314 144.129 372.188 141.384 365.769 155.797C364.744 158.144 363.238 160.25 361.349 161.978C359.459 163.706 357.228 165.018 354.8 165.828C350.504 167.21 344.491 167.932 336.264 166.682C334.677 166.446 333.074 166.327 331.47 166.326C325.853 166.326 314.274 167.048 304.819 172.699L301.822 176.906L303.325 175.961Z" fill="#BD9D40"/>
<path d="M371.62 117.328C371.62 117.328 377.714 121.231 382.468 111.23L384.936 104.115L378.222 104.359C378.222 104.359 370.005 103.82 369.314 111.972C369.314 111.972 373.905 108.049 377.156 107.439L380.406 106.839C380.406 106.839 375.51 108.872 373.712 111.311C372.544 113.121 371.827 115.184 371.62 117.328Z" fill="#BD9D40"/>
<path d="M354.372 166.661C364.299 166.009 374.173 168.568 382.537 173.959C386.506 176.544 391.031 178.153 395.74 178.655C397.736 178.885 399.758 178.671 401.661 178.028C403.565 177.384 405.302 176.328 406.75 174.935C409.645 172.099 415.373 167.657 420.056 171.062C420.056 171.062 415.069 166.468 405.836 174.05C404.3 175.301 402.521 176.218 400.611 176.743C398.702 177.268 396.704 177.389 394.745 177.1C391.2 176.591 386.62 175.067 381.094 171.428C380.022 170.731 378.902 170.11 377.743 169.568C373.68 167.657 365.097 164.253 356.485 164.893L352.98 166.743L354.372 166.661Z" fill="#BD9D40"/>
<path d="M301.497 224.401C301.497 224.401 311.573 217.144 322.298 219.584C333.024 222.023 340.652 225.103 356.323 219.086C370.269 213.729 383.157 194.459 410.865 200.313C438.573 206.168 440.086 192.62 440.086 192.62C440.086 192.62 435.119 203.728 410.906 197.63C386.692 191.532 372.036 208.973 355.46 216.169C348.035 219.391 335.461 218.252 328.494 217.256C326.209 216.931 323.954 216.453 321.709 215.905C317.809 214.949 308.191 213.506 300.502 219.899L301.497 224.401Z" fill="#BD9D40"/>
<path d="M417.568 169.995C417.568 169.995 416.725 162.769 427.461 163.145L434.682 164.161L431.635 170.016C431.635 170.016 428.659 177.598 421.245 174.467C421.245 174.467 426.598 172.17 428.497 169.558L430.386 166.946C430.386 166.946 426.547 170.371 423.672 170.849C421.599 171.065 419.503 170.772 417.568 169.995Z" fill="#BD9D40"/>
<path d="M394.033 173.553C394.033 173.553 388.639 168.715 396.856 162.2L402.95 158.419L404.535 164.71C404.535 164.71 407.318 172.221 399.751 174.589C399.751 174.589 402.219 169.507 401.894 166.357L401.579 163.206C401.579 163.206 400.99 168.186 399.172 170.321C397.751 171.805 395.986 172.915 394.033 173.553Z" fill="#BD9D40"/>
<path d="M338.28 198.362C323.198 202.611 319.287 208.241 316.342 212.591C315.753 213.475 315.227 214.399 314.768 215.356L316.748 215.417C319.037 211.371 322.342 207.994 326.336 205.619C330.464 203.143 334.948 201.319 339.631 200.212C348.766 198.019 356.732 192.445 361.925 184.611C355.358 191.155 347.214 195.892 338.28 198.362Z" fill="#BD9D40"/>
<path d="M335.471 210.447C335.471 210.447 337.329 219.117 349.558 214.513L357.47 210.447L351.681 204.877C351.681 204.877 345.292 197.305 337.969 203.861C337.969 203.861 345.079 204.4 348.248 206.676L351.447 208.953C351.447 208.953 345.688 206.504 342.184 207.073C339.707 207.638 337.403 208.796 335.471 210.447Z" fill="#BD9D40"/>
<path d="M373.54 201.452C373.54 201.452 365.414 198.25 372.524 184.804L378.131 176.246L382.407 183.574C382.407 183.574 388.501 191.837 380.599 199.419C380.599 199.419 381.533 191.288 379.959 187.294L378.395 183.33C378.395 183.33 379.603 190.252 378.313 194.195C377.255 196.926 375.628 199.4 373.54 201.452Z" fill="#BD9D40"/>
<path d="M403.164 191.329C403.164 191.329 401.57 184.946 411.666 183.198L418.542 182.781L416.358 188.656C416.358 188.656 414.408 196.075 407.115 194.663C407.115 194.663 411.879 191.613 413.362 188.839L414.845 186.115C414.845 186.115 411.635 189.947 408.994 190.932C407.111 191.529 405.111 191.665 403.164 191.329Z" fill="#BD9D40"/>
<path d="M334.218 191.959C334.218 191.959 328.977 183.218 340.454 176.988L348.671 173.857L349.026 183.259C349.026 183.259 350.478 194.825 340.819 195.455C340.819 195.455 345.055 189.174 345.461 184.631L345.867 180.098C345.867 180.098 343.907 186.887 341.185 189.306C338.463 191.725 334.218 191.959 334.218 191.959Z" fill="#BD9D40"/>
<path d="M358.241 184.021C358.241 184.021 354.635 178.025 362.517 173.746L368.144 171.581L368.388 178.035C368.388 178.035 369.404 185.973 362.761 186.4C362.761 186.4 365.666 182.09 365.94 178.97L366.225 175.86C366.225 175.86 364.874 180.525 363.005 182.182C361.628 183.242 359.973 183.881 358.241 184.021Z" fill="#BD9D40"/>
<path d="M309.401 240.053C309.401 240.053 307.126 229.828 323.834 227.623L335.169 227.288L331.238 236.536C331.238 236.536 327.632 248.235 315.719 245.623C315.719 245.623 323.722 240.937 326.312 236.669L328.902 232.41C328.902 232.41 323.407 238.346 319.009 239.779C314.612 241.212 309.401 240.053 309.401 240.053Z" fill="#BD9D40"/>
<path d="M429.321 193.301C429.321 193.301 427.208 184.824 440.615 182.558L449.756 181.999L446.851 189.814C446.851 189.814 444.271 199.663 434.592 197.783C434.592 197.783 440.909 193.717 442.88 190.048L444.85 186.43C444.85 186.43 440.574 191.512 437.07 192.823C434.562 193.6 431.905 193.764 429.321 193.301Z" fill="#BD9D40"/>
<path d="M368.477 230.947C368.477 230.947 382.95 233.773 393.869 248.225C396.876 252.27 400.822 255.521 405.366 257.698C407.233 258.6 409.292 259.03 411.364 258.953C413.435 258.875 415.456 258.29 417.25 257.251C420.916 255.106 427.843 252.169 431.418 257.403C431.418 257.403 427.884 250.736 416.65 256C414.801 256.869 412.775 257.297 410.732 257.249C408.69 257.201 406.686 256.68 404.879 255.726C401.568 253.998 397.546 250.807 393.188 245.024C392.351 243.918 391.439 242.872 390.456 241.893C387.054 238.468 379.639 231.913 371.016 229.768L367.045 230.642L368.477 230.947Z" fill="#BD9D40"/>
<path d="M429.85 252.992C429.85 252.992 433.262 246.62 442.2 251.976L447.746 256.214L441.814 259.649C441.814 259.649 434.948 264.518 430.418 258.47C430.418 258.47 436.289 259.08 439.397 257.8L442.515 256.519C442.515 256.519 437.284 257.535 434.552 256.621C432.697 255.84 431.076 254.59 429.85 252.992Z" fill="#BD9D40"/>
<path d="M401.299 245.44C401.299 245.44 402.934 237.929 413.487 241.903L420.312 245.379L415.234 250.227C415.234 250.227 409.678 256.813 403.371 251.244C403.371 251.244 409.465 250.746 412.268 248.764L415.051 246.731C415.051 246.731 410.054 248.876 407.027 248.388C404.907 247.886 402.94 246.874 401.299 245.44Z" fill="#BD9D40"/>
<path d="M393.06 155.827C381.207 159.161 378.13 163.582 375.794 167.007C375.332 167.7 374.918 168.423 374.555 169.172L376.119 169.233C377.912 166.045 380.511 163.385 383.655 161.519C386.897 159.578 390.419 158.149 394.096 157.281C401.285 155.562 407.556 151.183 411.647 145.023C406.483 150.165 400.081 153.886 393.06 155.827Z" fill="#BD9D40"/>
<path d="M409.13 143.62C409.13 143.62 404.874 136.506 414.209 131.485L420.862 128.914L421.156 136.546C421.156 136.546 422.334 145.928 414.493 146.436C414.493 146.436 417.926 141.354 418.261 137.664L418.586 133.985C418.586 133.985 417.002 139.494 414.788 141.456C413.151 142.71 411.186 143.462 409.13 143.62Z" fill="#BD9D40"/>
<path d="M260.699 160.726C260.699 160.726 268.459 162.891 270.257 150.684L270.582 142.35L263.472 144.789C263.472 144.789 254.544 146.883 256.453 155.786C256.453 155.786 260.069 150.115 263.33 148.418L266.59 146.72C266.59 146.72 262.04 150.481 260.922 153.652C260.289 155.959 260.212 158.384 260.699 160.726Z" fill="#BD9D40"/>
<path d="M321.331 150.938C321.331 150.938 334.778 141.395 356.443 141.852C362.4 142.048 368.334 141.01 373.872 138.803C378.524 136.902 381.601 133.345 382.322 129.239C383.043 125.133 385.461 117.774 393.058 118.262C393.058 118.262 384.201 116.86 380.717 128.924C379.58 132.878 376.34 136.221 371.658 137.949C367.595 139.464 361.602 140.612 352.939 140.399C351.281 140.363 349.623 140.424 347.972 140.582C342.244 141.11 330.584 142.797 322.143 148.194L319.99 151.853L321.331 150.938Z" fill="#BD9D40"/>
<path d="M327.346 156.295C327.346 156.295 329.377 164.182 342.764 161.255L351.437 158.44L345.11 152.921C345.11 152.921 338.132 145.573 330.098 150.644C330.098 150.644 337.838 151.813 341.342 154.151L344.846 156.488C344.846 156.488 338.538 153.744 334.689 153.917C332.092 154.141 329.581 154.954 327.346 156.295Z" fill="#BD9D40"/>
<path d="M390.248 121.495C390.248 121.495 391.761 127.44 401.878 125.235L408.418 123.111L403.655 118.974C403.655 118.974 398.384 113.425 392.32 117.246C392.32 117.246 398.16 118.141 400.811 119.899L403.452 121.667C403.452 121.667 398.688 119.635 395.794 119.716C393.833 119.876 391.936 120.484 390.248 121.495Z" fill="#BD9D40"/>
<path d="M363.907 133.254C363.907 133.254 358.747 126.749 367.096 122.074L373.19 119.675L374.572 126.709C374.572 126.709 377.06 135.337 369.493 135.856C369.493 135.856 372.103 131.14 371.9 127.725L371.697 124.33C371.697 124.33 370.935 129.412 369.066 131.231C367.198 133.051 363.907 133.254 363.907 133.254Z" fill="#BD9D40"/>
<path d="M387.157 138.539C387.157 138.539 391.779 143.224 399.803 136.801L404.617 132.024L397.995 130.377C397.995 130.377 390.164 127.694 386.721 133.792C386.721 133.792 392.53 132.024 395.862 132.451L399.234 132.878C399.234 132.878 393.769 133.101 391.19 134.484C389.53 135.479 388.144 136.873 387.157 138.539Z" fill="#BD9D40"/>
<path d="M210.167 284.357C210.167 284.357 198.801 258.866 207.343 229.951C209.981 220.905 211.348 211.535 211.406 202.112C211.568 184.773 204.733 167.932 191.824 156.376C186.918 151.975 181.078 148.245 174.466 146.69C160.775 143.478 153.279 128.121 150.841 120.407C149.511 116.22 150.841 117.083 150.841 117.083C150.841 117.083 158.743 139.301 175.167 143.57C194.465 148.581 206.419 167.831 210.197 177.74C213.976 187.65 218.749 200.598 211.325 229.951C206.88 247.771 206.484 266.363 210.167 284.357Z" fill="#BD9D40"/>
<path d="M202.173 159.039C202.173 159.039 208.339 160.228 209.375 150.166V143.367L203.91 145.887C203.91 145.887 196.953 148.255 198.73 155.35C198.73 155.35 201.401 150.471 203.91 148.845L206.419 147.219C206.419 147.219 202.955 150.624 202.173 153.317C201.736 155.199 201.736 157.157 202.173 159.039Z" fill="#BD9D40"/>
<path d="M204.628 195.404C204.628 195.404 198.077 199.988 191.658 188.829L188.123 180.911L195.791 180.992C195.791 180.992 205.095 180.139 206.72 189.316C206.72 189.316 201.083 185.027 197.325 184.438L193.557 183.848C193.557 183.848 199.346 186.003 201.682 188.696C203.164 190.678 204.172 192.972 204.628 195.404Z" fill="#BD9D40"/>
<path d="M180.154 141.029C180.154 141.029 187.335 136.455 179.656 125.184L173.765 118.222L170.485 125.936C170.485 125.936 165.589 134.88 173.532 140.48C173.532 140.48 171.967 132.979 173.064 128.954L174.161 124.94C174.161 124.94 173.654 131.668 175.177 135.103C176.343 137.445 178.049 139.476 180.154 141.029Z" fill="#BD9D40"/>
<path d="M154.223 121.007C154.223 121.007 163.212 116.118 157.636 107.072L153.289 101.401L150.333 107.001C148.586 115.193 150.242 118.394 151.633 122.714C151.867 123.436 151.014 118.801 151.389 119.533L151.633 119.99C152.048 120.737 152.52 121.451 153.045 122.125C151.478 118.07 151.191 113.633 152.222 109.41C152.473 108.393 152.813 107.399 153.238 106.442C153.238 106.442 152.527 111.524 153.573 114.217C154.243 116.414 154.464 118.723 154.223 121.007Z" fill="#BD9D40"/>
<path d="M201.406 242.056C201.406 242.056 195.484 244.159 192.955 234.362L191.939 227.633L197.729 229.3C197.729 229.3 204.951 230.601 204.26 237.888C204.26 237.888 200.888 233.457 198.166 232.227L195.444 230.997C195.444 230.997 199.374 233.843 200.522 236.354C201.253 238.161 201.555 240.112 201.406 242.056Z" fill="#BD9D40"/>
<path d="M218.04 210.945C218.04 210.945 222.732 214.512 227.72 206.381L230.503 200.649L224.876 200.527C224.876 200.527 218.06 199.683 216.648 206.381C216.648 206.381 220.884 203.332 223.667 203.017L226.44 202.682C226.44 202.682 222.143 204.125 220.346 206.046C219.209 207.478 218.42 209.155 218.04 210.945Z" fill="#BD9D40"/>
<path d="M211.272 291.461C211.272 291.461 189.456 283.96 176.801 262.484C172.834 255.782 167.948 249.668 162.287 244.322C157.195 239.381 151.111 235.582 144.439 233.175C137.767 230.769 130.66 229.812 123.589 230.367C118.033 230.727 112.656 232.475 107.948 235.449C93.0277 245.46 76.7363 233.071 76.7363 233.071C76.7363 233.071 94.6528 240.805 106.465 233.274C120.39 224.401 138.743 228.05 146.858 231.353C154.974 234.656 165.496 239.057 179.045 260.106C187.313 272.835 198.325 283.549 211.272 291.461Z" fill="#BD9D40"/>
<path d="M131.035 225.631C131.035 225.631 135.23 222.582 129.735 216.27L125.672 212.428L124.108 217.154C124.108 217.154 121.62 222.694 126.911 225.631C126.911 225.631 125.469 221.26 125.896 218.821L126.332 216.392C126.332 216.392 126.434 220.397 127.602 222.378C128.484 223.71 129.658 224.822 131.035 225.631Z" fill="#BD9D40"/>
<path d="M84.5997 230.489C84.5997 230.489 89.0687 222.175 75.1235 216.168L65.373 213.119L66.5208 222.094C66.5208 222.094 66.795 233.121 77.7643 233.822C77.7643 233.822 71.9749 227.806 70.7663 223.466L69.5576 219.085C69.5576 219.085 72.8789 225.58 76.3423 227.897C78.8594 229.384 81.6849 230.271 84.5997 230.489Z" fill="#BD9D40"/>
<path d="M183.669 245.674C183.669 245.674 187.965 238.478 175.838 232.593L167.307 229.483L167.967 237.492C167.967 237.492 167.764 247.29 177.463 248.306C177.463 248.306 172.568 242.737 171.674 238.844L170.78 234.951C170.78 234.951 173.462 240.846 176.448 243.082C178.624 244.49 181.095 245.377 183.669 245.674Z" fill="#BD9D40"/>
<path d="M187.348 166.154C187.348 166.154 192.65 161.753 185.611 155.564L180.34 151.945L178.389 157.749C178.389 157.749 175.271 164.68 182.036 167.008C182.036 167.008 180.157 162.231 180.685 159.314L181.213 156.407C181.213 156.407 181.376 161.042 182.879 163.095C184.075 164.488 185.616 165.543 187.348 166.154Z" fill="#BD9D40"/>
<path d="M160.256 165.189C160.256 165.189 152.131 165.554 151.928 154.588L152.679 147.27L159.464 150.776C159.464 150.776 168.179 154.344 165.101 161.723C165.101 161.723 162.196 156.082 159.139 153.958L156.092 151.833C156.092 151.833 160.155 156.011 160.907 158.948C161.277 161.048 161.051 163.21 160.256 165.189Z" fill="#BD9D40"/>
<path d="M130.422 149.13C130.422 149.13 126.675 153.845 117.787 146.578L112.303 141.232L118.509 139.85C118.509 139.85 125.72 137.441 130.077 144.109C130.077 144.109 124.115 141.913 120.885 142.167L117.655 142.432C117.655 142.432 123.038 142.981 125.781 144.597C127.618 145.778 129.197 147.32 130.422 149.13Z" fill="#BD9D40"/>
<path d="M206.642 177.344C195.826 170.967 183.166 168.459 170.738 170.229C164.865 171.114 158.865 170.506 153.289 168.461C150.848 167.554 148.637 166.119 146.815 164.258C144.992 162.398 143.603 160.157 142.746 157.697C140.948 152.615 136.794 143.987 129.664 145.501C129.664 145.501 137.789 142.757 144.198 157.159C145.224 159.507 146.732 161.614 148.623 163.342C150.514 165.07 152.748 166.381 155.178 167.19C159.474 168.583 165.487 169.304 173.704 168.044C175.291 167.812 176.893 167.697 178.498 167.698C184.114 167.698 195.703 168.42 205.159 174.071L208.206 178.309L206.642 177.344Z" fill="#BD9D40"/>
<path d="M138.43 118.079C138.43 118.079 145.306 112.642 135.738 103.241L128.628 97.6099L126.241 105.385C126.241 105.385 122.351 114.532 131.401 118.598C131.401 118.598 128.74 111.778 129.37 107.814L129.969 103.861C129.969 103.861 130.304 110.284 132.336 113.303C133.955 115.361 136.045 116.999 138.43 118.079Z" fill="#BD9D40"/>
<path d="M151.632 135.673C151.632 135.673 146.96 141.019 140.46 133.061L136.641 127.186L142.735 125.509C142.735 125.509 150.068 122.684 152.516 130.052C152.516 130.052 147.437 127.715 144.39 128.02L141.343 128.375C141.343 128.375 146.249 128.884 148.453 130.632C149.909 132.026 151.001 133.757 151.632 135.673Z" fill="#BD9D40"/>
<path d="M155.6 168.034C145.669 167.387 135.793 169.949 127.426 175.341C123.457 177.928 118.932 179.537 114.222 180.037C112.226 180.264 110.204 180.047 108.301 179.402C106.398 178.757 104.66 177.701 103.212 176.307C100.307 173.481 94.5787 169.03 89.8965 172.445C89.8965 172.445 94.8936 167.851 104.116 175.433C105.65 176.686 107.43 177.605 109.34 178.13C111.25 178.655 113.248 178.775 115.207 178.482C118.742 177.974 123.332 176.449 128.858 172.811C129.925 172.113 131.042 171.495 132.199 170.961C136.262 169.05 144.855 165.645 153.457 166.275L156.961 168.125L155.6 168.034Z" fill="#BD9D40"/>
<path d="M208.509 225.784C208.509 225.784 198.443 218.527 187.718 220.966C176.992 223.405 169.365 226.485 153.683 220.458C139.737 215.112 126.848 195.842 99.151 201.696C71.4536 207.55 69.9707 194.002 69.9707 194.002C69.9707 194.002 74.9272 205.111 99.151 199.013C123.375 192.914 137.94 210.355 154.515 217.561C161.94 220.783 174.504 219.594 181.482 218.639C183.767 218.313 186.022 217.846 188.266 217.297C192.156 216.331 201.785 214.888 209.473 221.291L208.509 225.784Z" fill="#BD9D40"/>
<path d="M93.4681 175.545C93.4681 175.545 90.5328 182.497 81.0464 176.663L75.0742 172.008L80.8026 168.278C80.8026 168.278 87.3537 162.972 92.4422 169.589C92.4422 169.589 86.4396 168.908 83.4027 170.3L80.3557 171.693C80.3557 171.693 85.5661 170.565 88.41 171.612C90.3912 172.491 92.1276 173.841 93.4681 175.545Z" fill="#BD9D40"/>
<path d="M123.923 167.129C123.923 167.129 125.954 174.244 113.969 173.715L105.793 172.567L108.281 166.855C108.281 166.855 110.445 159.455 119.129 162.677C119.129 162.677 113.532 164.852 111.826 167.393L110.11 169.934C110.11 169.934 113.857 166.631 116.986 166.194C119.338 166.028 121.698 166.347 123.923 167.129Z" fill="#BD9D40"/>
<path d="M171.691 199.744C186.764 203.982 190.684 209.613 193.63 213.973C194.219 214.853 194.745 215.773 195.204 216.728L193.173 216.799C190.887 212.748 187.582 209.367 183.585 206.991C179.46 204.518 174.979 202.698 170.3 201.594C161.148 199.409 153.163 193.834 147.955 185.993C154.548 192.55 162.725 197.288 171.691 199.744Z" fill="#BD9D40"/>
<path d="M166.167 212.968C166.167 212.968 168.707 204.837 155.391 201.93L146.25 200.914L148.769 208.638C148.769 208.638 150.861 218.324 160.642 217.053C160.642 217.053 154.548 212.714 152.73 209.095L150.942 205.477C150.942 205.477 155.005 210.65 158.408 212.114C160.893 212.995 163.55 213.287 166.167 212.968Z" fill="#BD9D40"/>
<path d="M106.427 191.136C106.427 191.136 108.58 185.76 99.9774 183.005L94.0254 181.806L95.2239 187.203C95.2239 187.203 96.0263 193.911 102.557 193.555C102.557 193.555 98.7789 190.283 97.814 187.721L96.849 185.16C96.849 185.16 99.1953 188.89 101.379 190.069C102.952 190.823 104.683 191.189 106.427 191.136Z" fill="#BD9D40"/>
<path d="M196.02 211.015C196.02 211.015 201.2 209.318 198.732 202.773L196.518 198.616L193.085 202.315C193.085 202.315 188.443 206.482 192.13 210.131C192.13 210.131 192.618 206.066 194.05 204.124L195.472 202.143C195.472 202.143 193.887 205.578 194.141 207.509C194.417 208.834 195.07 210.052 196.02 211.015Z" fill="#BD9D40"/>
<path d="M180.558 194.185C180.558 194.185 185.707 184.784 174.464 178.106L166.46 174.732L166.084 184.896C166.084 184.896 164.632 197.346 174.068 197.986C174.068 197.986 169.944 191.238 169.568 186.359L169.182 181.481C169.182 181.481 171.071 188.788 173.732 191.38C175.655 193.011 178.044 193.993 180.558 194.185Z" fill="#BD9D40"/>
<path d="M145.709 188.32C145.709 188.32 140.986 197.376 129.662 190.82L122.674 185.454L130.525 180.23C130.525 180.23 139.666 172.943 145.222 180.87C145.222 180.87 137.645 180.545 133.562 182.568L129.499 184.6C129.499 184.6 136.324 182.72 139.808 183.787C143.292 184.854 145.709 188.32 145.709 188.32Z" fill="#BD9D40"/>
<path d="M193.594 271.977C193.594 271.977 199.404 269.579 194.762 260.604L191.034 254.913L187.835 259.994C187.835 259.994 183.315 265.788 188.688 270.748C188.688 270.748 188.251 265.208 189.46 262.464L190.668 259.73C190.668 259.73 189.653 264.477 190.435 267.129C191.101 268.967 192.182 270.626 193.594 271.977Z" fill="#BD9D40"/>
<path d="M80.5375 195.994C80.5375 195.994 82.1625 189.489 71.8636 187.751L64.8555 187.314L67.09 193.311C67.09 193.311 69.0705 200.883 76.5052 199.409C76.5052 199.409 71.6503 196.258 70.137 193.474L68.6236 190.699C68.6236 190.699 71.9042 194.602 74.5958 195.608C76.5171 196.21 78.5545 196.342 80.5375 195.994Z" fill="#BD9D40"/>
<path d="M141.478 232.319C141.478 232.319 127.004 235.145 116.086 249.597C113.075 253.64 109.126 256.888 104.578 259.06C102.716 259.961 100.662 260.39 98.5947 260.311C96.5279 260.231 94.5124 259.644 92.7253 258.602C89.0486 256.468 82.1318 253.52 78.5059 258.755C78.5059 258.755 82.0404 252.097 93.2738 257.352C95.1233 258.221 97.1492 258.648 99.1918 258.601C101.235 258.553 103.238 258.032 105.045 257.078C108.367 255.35 112.379 252.169 116.746 246.375C117.58 245.267 118.493 244.221 119.478 243.245C122.881 239.83 130.295 233.264 138.908 231.13L142.889 232.004L141.478 232.319Z" fill="#BD9D40"/>
<path d="M80.1613 249.83C80.1613 249.83 74.9915 243.356 68.4404 250.847L64.6621 256.569L71.2234 259.313C71.2234 259.313 79.0948 263.5 81.3801 255.959C81.3801 255.959 76.1595 257.687 72.8789 256.823L69.6084 255.959C69.6084 255.959 74.7681 256.183 76.9822 254.638C79.1964 253.093 80.1613 249.83 80.1613 249.83Z" fill="#BD9D40"/>
<path d="M105.235 253.225C105.235 253.225 107.743 248.621 101.243 245.745L96.6621 244.342L96.8348 249.16C96.8348 249.16 96.4996 255.167 101.781 255.167C101.781 255.167 99.2318 252.117 98.8357 249.759L98.4294 247.452C98.4294 247.452 99.76 250.867 101.344 252.036C102.51 252.778 103.854 253.189 105.235 253.225Z" fill="#BD9D40"/>
<path d="M116.921 157.2C128.764 160.533 131.841 164.965 134.187 168.38C134.633 169.081 135.034 169.811 135.386 170.565H133.832C132.03 167.386 129.433 164.731 126.295 162.861C123.051 160.915 119.526 159.482 115.844 158.612C108.679 156.902 102.425 152.546 98.334 146.416C103.496 151.555 109.899 155.27 116.921 157.2Z" fill="#BD9D40"/>
<path d="M102.408 144.647C102.408 144.647 107.872 137.157 95.7753 131.729L87.1523 128.965L86.8273 137.096C86.8273 137.096 85.3647 147.036 95.5011 147.625C95.5011 147.625 91.022 142.198 90.5751 138.285L90.1282 134.382C90.1282 134.382 92.2205 140.236 95.0847 142.33C97.9489 144.424 102.408 144.647 102.408 144.647Z" fill="#BD9D40"/>
<path d="M192.769 98.4329C192.769 98.4329 184.024 99.5204 184.055 86.0332L185.07 76.9673L192.262 80.7482C192.262 80.7482 201.586 84.4477 198.071 93.7779C198.071 93.7779 195.085 87.0598 191.825 84.6916L188.575 82.3235C188.575 82.3235 192.891 87.1309 193.592 90.7492C193.93 93.3395 193.648 95.9731 192.769 98.4329Z" fill="#BD9D40"/>
<path d="M188.647 152.321C188.647 152.321 175.199 142.777 153.535 143.234C147.577 143.431 141.644 142.393 136.106 140.185C131.454 138.285 128.377 134.727 127.645 130.621C126.914 126.515 124.507 119.147 116.92 119.645C116.92 119.645 125.777 118.242 129.26 130.306C130.398 134.219 133.638 137.573 138.31 139.301C142.373 140.816 148.375 141.964 157.039 141.751C158.693 141.715 160.348 141.776 161.996 141.933C167.734 142.452 179.394 144.149 187.824 149.546L189.987 153.195L188.647 152.321Z" fill="#BD9D40"/>
<path d="M119.688 124.229C119.688 124.229 118.165 130.154 108.018 127.979L101.457 125.845L106.241 121.667C106.241 121.667 111.522 116.108 117.606 119.939C117.606 119.939 111.746 120.834 109.095 122.602L106.444 124.371C106.444 124.371 111.218 122.338 114.122 122.419C116.092 122.588 117.996 123.207 119.688 124.229Z" fill="#BD9D40"/>
<path d="M326.606 111.27C326.606 111.27 319.222 109.085 323.782 97.6303L327.611 90.2515L332.131 96.0651C332.131 96.0651 338.337 102.549 332.415 109.278C332.415 109.278 332.273 102.478 330.465 99.2971L328.657 96.1159C328.657 96.1159 330.496 101.767 329.846 105.09C329.25 107.37 328.141 109.483 326.606 111.27Z" fill="#BD9D40"/>
<path d="M285.5 86.7555C285.5 86.7555 291.594 84.4585 288.679 73.9188L286.079 67.1396L282.016 72.6992C282.016 72.6992 276.582 78.9498 280.919 84.987C280.919 84.987 281.488 78.6551 283.154 75.6263L284.82 72.5772C284.82 72.5772 282.971 77.8928 283.266 80.9724C283.548 83.0484 284.314 85.0292 285.5 86.7555Z" fill="#BD9D40"/>
<path d="M314.64 86.5315C314.64 86.5315 308.8 81.8359 318.215 75.9308L325.122 72.5361L326.686 78.4717C326.686 78.4717 329.51 85.5862 320.978 87.619C320.978 87.619 323.924 82.903 323.68 79.9353L323.446 76.9776C323.446 76.9776 322.593 81.6428 320.48 83.6348C318.771 85.0193 316.776 86.0084 314.64 86.5315Z" fill="#BD9D40"/>
<path d="M345.122 99.6629C345.122 99.6629 351.46 100.273 352.465 88.1983V80.0674L346.869 83.7669C346.869 83.7669 339.759 87.4767 341.608 95.6787C341.608 95.6787 344.319 89.5805 346.889 87.2836L349.449 85.0272C349.449 85.0272 345.914 89.5094 345.132 92.7719C344.664 95.0447 344.661 97.3887 345.122 99.6629Z" fill="#BD9D40"/>
<path d="M252.358 174.203C265.498 166.676 275.433 154.598 280.289 140.247C282.523 133.44 286.555 127.364 291.959 122.663C294.416 120.605 297.308 119.13 300.416 118.35C303.524 117.571 306.769 117.506 309.906 118.161C316.599 119.442 328.615 120.448 330.91 111.88C330.91 111.88 329.488 122.298 309.733 120.092C306.621 119.682 303.456 119.954 300.459 120.889C297.461 121.825 294.703 123.401 292.375 125.509C288.424 129.239 284.25 135.216 281.122 144.82C280.508 146.659 279.751 148.446 278.857 150.166C275.81 156.193 263.185 172.74 251.586 179.295L250.469 175.23L252.358 174.203Z" fill="#BD9D40"/>
<path d="M293.826 107.154C293.826 107.154 286.239 110.609 282.247 100.69L280.449 93.7173L288.118 94.3068C288.118 94.3068 297.645 94.2051 297.259 102.123C297.259 102.123 292.546 98.0572 288.9 97.3355L285.243 96.6139C285.243 96.6139 290.575 98.8398 292.292 101.279C293.358 103.049 293.89 105.089 293.826 107.154Z" fill="#BD9D40"/>
<path d="M251.567 153.093C241.925 144.458 229.765 139.153 216.881 137.96C210.752 137.436 204.835 135.464 199.615 132.207C197.389 130.837 195.492 128.993 194.059 126.806C192.627 124.619 191.694 122.142 191.327 119.553C190.626 114.339 188.28 105.182 180.805 104.918C180.805 104.918 189.59 104.216 192.922 119.36C193.485 121.877 194.566 124.249 196.096 126.324C197.626 128.4 199.572 130.133 201.809 131.414C205.872 133.742 211.742 135.825 220.325 136.567C221.98 136.715 223.623 136.98 225.24 137.36C230.908 138.651 242.446 142.066 250.744 149.627L250.429 154.333L251.567 153.093Z" fill="#BD9D40"/>
<path d="M241.347 153.774C241.347 153.774 239.498 162.729 227.655 157.84L220.018 153.632L225.665 147.89C225.665 147.89 231.921 140.094 238.98 146.873C238.98 146.873 232.114 147.412 228.986 149.75L225.868 152.087C225.868 152.087 231.474 149.577 234.867 150.187C238.259 150.796 241.347 153.774 241.347 153.774Z" fill="#BD9D40"/>
<path d="M183.639 111.382C183.639 111.382 182.267 118.588 173.644 114.716L168.078 111.341L172.212 106.717C172.212 106.717 176.793 100.436 181.922 105.853C181.922 105.853 176.915 106.3 174.629 108.19L172.344 110.071C172.344 110.071 176.407 108.038 178.916 108.526C180.714 109.045 182.343 110.03 183.639 111.382Z" fill="#BD9D40"/>
<path d="M213.791 126.637C213.791 126.637 221.135 117.49 210.186 109.115L202.06 104.552L199.785 115.02C199.785 115.02 195.905 127.766 206.052 129.686C206.052 129.686 202.812 122.125 203.299 117.002L203.777 111.92C203.777 111.92 204.488 119.757 206.905 122.806C209.322 125.855 213.791 126.637 213.791 126.637Z" fill="#BD9D40"/>
<path d="M220.697 110.965C230.142 123.883 229.746 130.876 229.37 136.252C229.286 137.333 229.126 138.406 228.893 139.464L227.217 138.285C227.926 133.586 227.398 128.783 225.684 124.351C223.921 119.759 221.461 115.467 218.391 111.626C212.415 104.101 209.512 94.5893 210.266 85.0073C211.453 94.414 215.046 103.355 220.697 110.965Z" fill="#BD9D40"/>
<path d="M226.124 106.777C226.124 106.777 234.249 109.827 237.865 98.0164L239.358 89.8042L231.355 91.3592C231.355 91.3592 221.381 92.3756 222.213 101.391C222.213 101.391 226.916 96.2175 230.684 94.9267L234.462 93.6461C234.462 93.6461 228.998 96.8171 227.353 99.8154C226.346 101.99 225.923 104.389 226.124 106.777Z" fill="#BD9D40"/>
<path d="M211.851 88.9707C211.851 88.9707 219.438 86.0334 215.375 76.5609L211.82 70.605L206.945 76.2865C206.945 76.2865 200.313 82.842 206.021 87.9137C206.021 87.9137 206.498 81.9171 208.489 78.8782L210.52 75.8291C210.52 75.8291 208.377 81.0329 208.885 83.8685C209.348 85.8254 210.38 87.601 211.851 88.9707Z" fill="#BD9D40"/>
<path d="M256.522 226.322C256.522 226.322 267.42 212.337 251.586 182.171C239.398 159.008 254.633 136.496 262.271 127.287C268.142 120.416 271.211 111.583 270.863 102.549C270.541 96.0616 268.432 89.7899 264.769 84.4272C264.769 84.4272 276.957 92.1313 273.849 111.961C272.638 119.205 269.51 125.992 264.79 131.617C257.68 140.256 245.685 159.11 254.044 180.484C265.501 209.826 264.373 209.633 256.522 226.322Z" fill="#BD9D40"/>
<path d="M266.149 83.4011C266.149 83.4011 274.62 80.9822 269.328 68.5826L264.869 60.6143L259.679 66.936C259.679 66.936 252.569 73.9896 259.415 81.1651C259.415 81.1651 259.547 73.8168 261.619 70.3612L263.651 66.9056C263.651 66.9056 261.558 73.0037 262.32 76.622C263.037 79.1554 264.35 81.4801 266.149 83.4011Z" fill="#BD9D40"/>
<path d="M172.142 97.2745C172.142 97.2745 177.393 91.6235 167.855 84.8647L160.949 81.0127L159.933 88.0459C159.933 88.0459 157.729 96.5021 166.129 98.7076C166.129 98.7076 162.919 93.2091 162.919 89.7128V86.2266C162.919 86.2266 164.097 91.6947 166.291 94.0018C167.95 95.5478 169.957 96.6705 172.142 97.2745Z" fill="#BD9D40"/>
<path d="M109.7 227.338C109.7 227.338 112.178 220.468 100.812 217.449L93.002 216.209L94.9013 222.958C94.9013 222.958 96.3435 231.373 104.824 230.631C104.824 230.631 99.746 226.678 98.2936 223.517L96.8818 220.325C96.8818 220.325 100.162 224.929 103.067 226.312C105.17 227.159 107.439 227.511 109.7 227.338Z" fill="#BD9D40"/>
<path d="M117.514 220.977C117.514 220.977 110.658 222.643 108.891 211.463L108.475 203.82L114.782 206.321C114.782 206.321 122.725 208.557 121.161 216.647C121.161 216.647 117.87 211.321 114.955 209.644L112.019 207.937C112.019 207.937 116.082 211.545 117.159 214.492C117.773 216.598 117.895 218.816 117.514 220.977Z" fill="#BD9D40"/>
<path d="M290.672 136.089C290.672 136.089 294.511 142.502 304.251 135.449L310.285 130.052L303.713 127.186C303.713 127.186 296.106 122.897 291.22 130.103C291.22 130.103 297.66 128.598 301.093 129.534L304.536 130.479C304.536 130.479 298.767 130.103 295.791 131.495C293.754 132.612 292.003 134.184 290.672 136.089Z" fill="#BD9D40"/>
<path d="M276.105 125.855C276.105 125.855 280.168 129.707 285.734 122.704L289.004 117.622L283.723 116.87C283.723 116.87 277.405 115.285 275.312 121.434C275.312 121.434 279.65 119.076 282.301 119.076H284.951C284.951 119.076 280.736 119.95 278.857 121.556C277.623 122.759 276.682 124.23 276.105 125.855Z" fill="#BD9D40"/>
<path d="M262.984 130.052C262.984 130.052 250.532 118.161 251.811 100.68C252.165 95.6069 250.899 90.553 248.196 86.2471C245.778 82.2833 241.086 79.4172 235.571 78.3906C230.056 77.3641 220.204 74.6403 221.097 68.5522C221.097 68.5522 218.944 75.5652 235.093 79.6611C240.385 81.0027 244.783 83.9806 246.977 87.9445C248.896 91.4103 250.268 96.3701 249.719 103.353C249.624 104.708 249.658 106.069 249.821 107.418C250.349 112.124 252.289 121.739 259.297 129.138L264.538 129.321L262.984 130.052Z" fill="#BD9D40"/>
<path d="M241.445 75.4024C241.445 75.4024 233.726 74.1218 237.311 63.1145L240.551 56L245.711 60.8785C245.711 60.8785 252.648 66.2145 247.214 72.9631C247.214 72.9631 246.442 66.7328 244.299 63.9988L242.156 61.2546C242.156 61.2546 244.553 66.2551 244.188 69.3855C243.773 71.5836 242.832 73.6483 241.445 75.4024Z" fill="#BD9D40"/>
<path d="M263.355 112.876C263.355 112.876 269.987 110.406 265.092 100.11L261.11 93.5649L257.322 99.1854C257.322 99.1854 252.01 105.538 257.87 111.382C257.87 111.382 257.586 105.121 259.048 102.082L260.521 99.033C260.521 99.033 259.18 104.338 259.983 107.357C260.669 109.431 261.822 111.32 263.355 112.876Z" fill="#BD9D40"/>
<path d="M300.858 90.7599C304.921 106.625 302.097 113.059 299.842 117.968C299.38 118.947 298.854 119.894 298.268 120.804L297.191 119.025C299.515 114.83 300.729 110.11 300.716 105.314C300.728 100.303 300.006 95.3173 298.572 90.5159C295.77 81.1766 296.492 71.1325 300.604 62.2915C298.33 71.6554 298.417 81.4381 300.858 90.7599Z" fill="#BD9D40"/>
<path d="M224.762 69.7618C224.762 69.7618 229.414 66.7127 225.23 60.8991L221.929 57.4028L219.562 61.9561C219.562 61.9561 216.109 67.3225 220.72 69.9143C220.72 69.9143 220.121 65.8488 220.994 63.4807L221.868 61.1431C221.868 61.1431 221.228 64.9544 222 66.794C222.613 68.0306 223.573 69.0617 224.762 69.7618Z" fill="#BD9D40"/>
<path d="M247.159 122.023C247.159 122.023 240.689 128.65 232.148 121.434L227.201 115.925L235.53 112.876C235.53 112.876 245.504 108.404 248.561 115.803C248.561 115.803 241.837 114.289 237.673 115.275L233.509 116.291C233.509 116.291 240.09 115.874 242.964 117.307C244.828 118.394 246.297 120.046 247.159 122.023Z" fill="#BD9D40"/>
<path d="M302.839 74.4062C302.839 74.4062 310.721 73.6033 309.248 63.5413L307.389 56.9756L301.366 61.1427C301.366 61.1427 293.494 65.6248 297.608 71.9365C297.608 71.9365 299.548 66.3668 302.179 63.9987L304.809 61.6305C304.809 61.6305 301.498 66.0212 301.264 68.8467C301.241 70.8133 301.788 72.7445 302.839 74.4062Z" fill="#BD9D40"/>
<path d="M255.619 213.394C255.619 213.394 248.591 218.882 240.506 205.903L235.936 196.675H244.569C244.569 196.675 254.969 195.496 257.498 206.249C257.498 206.249 250.835 201.309 246.559 200.689L242.273 200.059C242.273 200.059 248.956 202.499 251.739 205.609C253.573 207.897 254.895 210.552 255.619 213.394Z" fill="#BD9D40"/>
<path d="M217.232 185.769C217.232 185.769 226.119 188.056 228.526 173.471L229.146 163.552L220.939 166.743C220.939 166.743 210.589 169.569 212.54 180.088C212.54 180.088 216.866 173.207 220.665 171.063L224.474 168.918C224.474 168.918 219.121 173.563 217.74 177.374C216.928 180.096 216.754 182.969 217.232 185.769Z" fill="#BD9D40"/>
<path d="M307.418 166.641C307.418 166.641 300.39 172.129 292.305 159.151L287.734 149.922H296.368C296.368 149.922 306.768 148.743 309.297 159.496C309.297 159.496 302.634 154.557 298.358 153.937L294.072 153.306C294.072 153.306 300.755 155.746 303.538 158.856C305.371 161.144 306.694 163.799 307.418 166.641Z" fill="#BD9D40"/>
<path d="M265.386 193.168C265.386 193.168 271.724 192.071 269.662 180.454L267.631 172.872L263.091 177.811C263.091 177.811 257.057 183.167 260.948 190.394C260.948 190.394 262.055 183.909 263.995 181.114L265.935 178.309C265.935 178.309 263.609 183.462 263.66 186.735C263.778 188.977 264.367 191.169 265.386 193.168Z" fill="#BD9D40"/>
<path d="M287.346 216.85C287.346 216.85 278.662 219.767 274.67 204.511L272.994 194.073L281.577 196.95C281.577 196.95 292.282 199.328 291.449 210.549C291.449 210.549 286.371 203.536 282.308 201.493L278.245 199.46C278.245 199.46 284.126 204.064 285.924 208.008C287.034 210.817 287.52 213.834 287.346 216.85Z" fill="#BD9D40"/>
<path d="M212.886 248.875C212.886 248.875 218.198 252.666 224.596 242.96L228.253 236.1L221.62 236.333C221.62 236.333 213.637 235.785 211.545 243.692C211.545 243.692 216.735 239.891 220.036 239.311L223.337 238.732C223.337 238.732 218.167 240.704 215.983 243.052C214.545 244.748 213.488 246.734 212.886 248.875Z" fill="#BD9D40"/>
<path d="M280.274 230.947C280.274 230.947 284.672 225.967 274.779 216.596L267.73 210.935L267.517 218.324C267.275 220.937 267.824 223.563 269.092 225.861C270.359 228.159 272.288 230.023 274.626 231.211C274.626 231.211 270.939 224.564 270.564 220.783L270.168 216.992C270.168 216.992 271.915 223.172 274.23 226.139C275.919 228.114 277.971 229.746 280.274 230.947Z" fill="#BD9D40"/>
<path d="M286.929 185.037C286.929 185.037 292.769 181.866 286.706 169.66L282.033 161.915L279.291 168.786C278.174 171.17 277.801 173.835 278.22 176.435C278.638 179.034 279.829 181.448 281.637 183.36C281.637 183.36 280.449 175.849 281.383 172.18L282.308 168.491C282.308 168.491 281.83 174.894 283.019 178.502C283.902 180.906 285.228 183.123 286.929 185.037Z" fill="#BD9D40"/>
<path d="M225.879 231.516C225.879 231.516 218.597 225.804 228.754 214.919L236.3 208.333L238.809 216.85C238.809 216.85 242.872 226.851 233.314 231.76C233.314 231.76 236.148 224.066 235.528 219.706L234.898 215.346C234.898 215.346 234.472 222.46 232.278 225.926C230.603 228.257 228.413 230.17 225.879 231.516Z" fill="#BD9D40"/>
<path d="M248.023 183.706C248.023 183.706 249.231 178.269 240.344 177.08L234.311 176.907L236.403 181.826C236.403 181.826 238.312 188.046 244.65 186.664C244.65 186.664 240.395 184.174 239.023 181.897L237.642 179.631C237.642 179.631 240.567 182.791 242.903 183.554C244.576 183.996 246.327 184.049 248.023 183.706Z" fill="#BD9D40"/>
<path d="M296.877 253.948C296.877 253.948 289.432 258.653 282.281 245.349L278.371 235.999L287.035 236.73C287.035 236.73 297.557 236.507 299.294 247.148C299.294 247.148 292.976 241.771 288.731 240.796L284.485 239.779C284.485 239.779 290.996 242.727 293.566 245.989C295.238 248.368 296.368 251.084 296.877 253.948Z" fill="#BD9D40"/>
<path d="M104.324 327.766C104.324 327.766 138.451 356.549 192.078 368.745C245.706 380.942 249.84 452.656 249.84 452.656C249.84 452.656 209.853 421.434 177.077 409.237C144.301 397.041 109.199 366.794 104.324 327.766Z" fill="#BD9D40"/>
<path d="M62.252 269.152C62.252 269.152 82.2303 276.907 89.8783 325.052C94.1847 352.199 108.16 377.039 129.997 393.748C137.454 399.464 145.655 404.135 154.374 407.631C160.356 410.03 166.267 412.581 172.036 415.478C191.334 425.184 230.194 445.45 238.898 455.939C238.898 455.939 142.734 460.533 90.8127 389.876C90.8127 389.876 81.1638 378.696 74.5619 346.802C72.5909 337.127 71.2709 327.331 70.6109 317.48C69.6765 304.847 67.3303 279.854 62.252 269.152Z" fill="#BD9D40"/>
<path d="M405.097 327.766C405.097 327.766 370.971 356.549 317.343 368.745C263.715 380.942 259.592 452.656 259.592 452.656C259.592 452.656 299.569 421.434 332.345 409.237C365.12 397.041 400.222 366.794 405.097 327.766Z" fill="#BD9D40"/>
<path d="M447.194 269.152C447.194 269.152 427.216 276.907 419.578 325.052C415.262 352.199 401.296 377.039 379.449 393.748C371.998 399.458 363.804 404.125 355.093 407.621C349.101 410.02 343.189 412.571 337.42 415.468C318.123 425.174 279.263 445.44 270.559 455.929C270.559 455.929 366.723 460.523 418.644 389.865C418.644 389.865 428.293 378.685 434.895 346.792C436.866 337.117 438.186 327.321 438.846 317.47C439.739 304.847 442.116 279.854 447.194 269.152Z" fill="#BD9D40"/>
</svg>
