<svg width="501" height="500" viewBox="0 0 501 500" fill="none" xmlns="http://www.w3.org/2000/svg">
<path d="M229.628 395.883C229.739 395.839 229.86 395.81 229.976 395.786C231.433 395.47 232.86 395.577 234.293 395.975C236.325 396.542 238.077 397.599 239.654 398.972C240.598 399.791 241.401 400.742 242.083 401.789C242.243 402.032 242.427 402.25 242.766 402.211C243.129 402.167 243.356 401.959 243.477 401.629C243.511 401.542 243.535 401.45 243.579 401.362C244.89 398.506 246.801 396.052 248.795 393.657C249.168 393.211 249.584 393.23 250.019 393.647C250.59 394.185 251.166 394.719 251.718 395.272C253.455 397.032 255.129 398.85 256.348 401.042C256.653 401.585 257.137 401.648 257.578 401.207C258.773 400.009 259.953 398.812 261.299 397.779C262.697 396.702 264.168 395.81 265.891 395.378C267.047 395.092 268.209 395.048 269.36 395.427C269.709 395.538 269.97 395.742 270.009 396.125C270.043 396.489 269.796 396.707 269.52 396.906C268.373 397.735 267.468 398.783 266.791 400.024C265.755 401.925 265.465 404.01 265.383 406.129C265.286 408.447 265.378 410.77 265.33 413.083C265.296 414.883 265.155 416.667 264.913 418.447C264.754 419.586 264.468 420.697 264.139 421.798C263.539 423.83 262.644 425.706 261.294 427.345C259.62 429.402 257.471 430.75 254.955 431.506C253.629 431.904 252.274 432.132 250.905 432.248C250.164 432.258 249.424 432.277 248.684 432.292C248.563 432.272 248.442 432.243 248.321 432.243C246.908 432.224 245.524 431.991 244.174 431.613C242.533 431.147 240.97 430.498 239.557 429.513C238.12 428.504 236.915 427.297 236.073 425.735C235.26 424.218 234.786 422.578 234.375 420.925C233.557 417.627 233.393 414.257 233.427 410.867C233.446 408.777 233.499 406.687 233.296 404.602C233.068 402.323 232.42 400.203 230.968 398.385C230.509 397.813 229.981 397.308 229.449 396.814C229.067 396.479 229.163 396.057 229.633 395.878L229.628 395.883Z" fill="#3182CE"/>
<path d="M360.709 180.124C360.709 180.124 381.472 191.069 401.423 205.331V205.327C403.001 214.191 403.828 223.318 403.833 232.629C403.833 255.091 399.042 276.428 390.424 295.671C382.384 283.817 382.76 275.529 383.172 266.463C383.205 265.73 383.238 264.992 383.268 264.247C383.868 249.272 385.421 241.222 387.976 237.119C390.526 233.026 395.979 220.767 387.932 214.138C379.875 207.504 364.991 191.593 364.991 191.593L357.781 181.865C358.821 181.405 359.804 180.818 360.709 180.124Z" fill="#3182CE"/>
<path d="M189.928 314.128C190.836 316.007 191.497 317.372 191.758 317.896C192.12 318.621 193.324 320.305 195.003 322.652C199.591 329.065 207.72 340.428 211.868 350.702C216.814 362.947 213.151 378.363 212.144 382.092C182.564 374.59 156.405 358.504 136.454 336.629C147.574 318.288 158.766 299.88 159.821 298.372C160.73 297.071 161.912 296.462 163.272 295.761C165.121 294.807 167.3 293.685 169.567 290.424C170.96 288.406 171.662 285.734 171.981 282.941C174.028 284.954 175.939 286.889 176.622 287.747C178.004 289.484 186.131 306.281 189.928 314.128Z" fill="#3182CE"/>
<path d="M177.75 134.045C172.05 135.092 167.176 135.987 165.062 135.864H165.057C159.381 135.534 136.101 142.28 136.101 142.28C136.101 142.28 130.584 143.419 123.471 144.956C151.237 104.789 197.603 78.481 250.004 78.481C302.404 78.481 348.689 104.745 376.464 144.85C369.588 143.371 364.323 142.28 364.323 142.28C364.323 142.28 341.034 135.534 335.362 135.864C333.246 135.987 328.371 135.091 322.672 134.044C313.085 132.283 301.166 130.093 296.119 131.601C288.072 133.997 257.843 157.744 255.428 162.133C253.004 166.522 250.067 186.026 250.304 190.012C250.323 190.342 250.372 190.643 250.444 190.919C250.454 190.946 250.463 190.972 250.471 190.998C250.485 191.037 250.497 191.075 250.512 191.113C250.396 191.69 250.289 192.248 250.212 192.781C250.135 192.248 250.033 191.69 249.912 191.113C249.924 191.078 249.937 191.046 249.948 191.014C249.96 190.983 249.97 190.952 249.98 190.919C250.052 190.647 250.096 190.342 250.12 190.012C250.357 186.026 247.41 166.517 244.996 162.133C242.581 157.749 212.352 134.007 204.305 131.601C199.255 130.096 187.335 132.285 177.75 134.045Z" fill="#3182CE"/>
<path d="M98.5168 205.676C118.618 191.249 139.71 180.129 139.71 180.129C140.615 180.823 141.598 181.405 142.638 181.87L135.428 191.598C135.428 191.598 120.534 207.514 112.487 214.143C104.44 220.772 109.888 233.026 112.443 237.124C114.998 241.222 116.561 249.277 117.151 264.252C117.181 264.989 117.214 265.72 117.248 266.445C117.668 275.616 118.052 283.992 109.743 296.054C101.023 276.71 96.1699 255.246 96.1699 232.638C96.1699 223.444 96.978 214.434 98.5168 205.676Z" fill="#3182CE"/>
<path d="M328.452 282.941C328.772 285.739 329.469 288.406 330.867 290.424L330.872 290.419C333.136 293.682 335.314 294.805 337.166 295.759C338.529 296.461 339.714 297.072 340.627 298.377C341.677 299.88 352.768 318.109 363.83 336.357C343.932 358.277 317.816 374.42 288.28 382C287.23 378.106 283.678 362.85 288.575 350.707C292.711 340.44 300.835 329.081 305.424 322.663C307.106 320.311 308.314 318.623 308.676 317.896C308.937 317.372 309.598 316.003 310.509 314.122C314.306 306.271 322.426 289.48 323.812 287.747C324.499 286.889 326.406 284.954 328.452 282.941Z" fill="#3182CE"/>
<path fill-rule="evenodd" clip-rule="evenodd" d="M314.848 271.496C310.649 275.768 302.697 283.861 301.78 284.415H301.785C301.251 284.738 298.578 287.242 295.652 289.983C291.895 293.502 287.721 297.411 287.128 297.591C286.058 297.911 257.136 316.193 251.973 336.949C250.638 342.288 250.11 348.355 250.047 354.426C249.984 348.359 249.447 342.288 248.121 336.949C242.949 316.193 214.031 297.911 212.967 297.591C212.358 297.413 208.124 293.446 204.345 289.906C201.451 287.196 198.824 284.735 198.295 284.415C197.379 283.858 189.44 275.781 185.238 271.506C183.847 270.09 182.865 269.092 182.685 268.921C182.408 268.663 180.862 266.78 178.863 264.345C175.581 260.349 171.078 254.865 168.962 252.632C165.555 249.039 164.292 252.351 164.379 252.54C162.119 247.38 159.748 242.352 157.958 238.957C153.245 230 156.313 218.594 156.313 218.594C160.934 214.894 161.761 204.715 161.761 204.715C164.694 202.606 171.255 194.958 171.255 194.958C194.245 180.051 190.079 174.266 190.079 174.266C194.564 175.367 197.168 174.455 197.168 174.455C196.955 175.44 202.907 177.806 214.418 179.693C225.221 181.458 226.002 178.133 226.057 177.717C225.918 179.375 228.664 180.376 228.664 180.376C227.401 185.454 232.105 192.708 233.503 194.571C234.074 195.334 233.899 196.909 233.669 198.971C233.339 201.938 232.896 205.912 234.403 209.929C236.958 216.737 244.487 214.768 246.379 213.973C247.986 213.299 249.486 205.787 250.038 200.608C250.589 205.787 252.089 213.299 253.696 213.973C255.593 214.768 263.117 216.737 265.672 209.929C267.172 205.917 266.731 201.948 266.402 198.983C266.173 196.915 265.998 195.336 266.572 194.571C267.971 192.708 272.674 185.454 271.411 180.376C271.411 180.376 274.156 179.375 274.018 177.717C274.074 178.134 274.854 181.463 285.657 179.693C297.169 177.806 303.12 175.44 302.908 174.455C302.908 174.455 305.511 175.367 309.997 174.266C309.997 174.266 305.83 180.051 328.82 194.958C328.82 194.958 335.372 202.606 338.314 204.715C338.314 204.715 339.146 214.894 343.763 218.594C343.763 218.594 346.835 229.995 342.117 238.957C340.337 242.352 337.961 247.376 335.696 252.54C335.783 252.346 334.52 249.039 331.114 252.632C328.985 254.877 324.443 260.409 321.157 264.41C319.183 266.813 317.663 268.665 317.39 268.921C317.21 269.091 316.233 270.085 314.848 271.496ZM284.989 265.701C286.707 267.641 285.884 268.766 285.884 268.766L285.875 268.781C285.875 268.781 289.794 266.085 288.57 263.131C287.549 260.682 285.42 260.11 284.718 259.984C285.734 258.558 286.813 257.176 287.955 255.848C288.294 255.935 288.526 256.008 288.526 256.008C288.526 256.008 288.439 255.944 288.289 255.464C291.28 252.016 293.757 249.883 293.791 249.854L293.515 249.534C293.477 249.558 291.076 251.629 288.154 254.975C287.999 254.33 287.8 253.282 287.578 251.575C287.036 247.405 285.468 241.925 271.401 249.97C270.003 250.76 268.745 251.401 267.593 251.91C267.772 251.73 267.946 251.541 268.125 251.342C268.125 251.342 273.472 246.382 273.443 234.937C273.414 223.492 274.527 211.917 281.128 207.62C281.128 207.62 271.527 209.371 270.351 220.398C270.351 220.398 264.496 213.794 265.512 224.84C265.512 224.84 260.02 220.767 261.786 233.031C261.786 233.031 255.617 227.357 257.61 236.474C257.61 236.474 258.181 238.797 258.82 239.689C258.82 239.689 253.226 236.654 258.177 248.578C258.177 248.578 258.636 249.558 257.02 251.105C255.921 249.59 255.288 247.535 254.655 245.484C254.516 245.032 254.377 244.581 254.233 244.136C252.191 237.827 250.43 235.131 237.853 230.204C228.704 226.619 225.109 220.206 223.029 216.494C222.249 215.104 221.682 214.092 221.115 213.75C219.035 212.494 221.633 221.587 221.633 221.587C216.906 222.164 222.156 229.268 222.156 229.268C216.702 229.423 225.016 236.629 225.016 236.629C216.63 239.781 230.038 246.755 230.038 246.755C223.254 252.943 236.377 256.425 236.377 256.425C233.038 268.553 245.295 263.049 245.295 263.049C243.413 265.415 247.226 265.061 247.226 265.061C247.226 265.061 248.097 265.032 239.736 272.495C234.624 277.054 231.694 277.393 229.014 277.704C227.31 277.901 225.707 278.086 223.709 279.338C218.57 282.563 224.609 285.686 224.609 285.686C220.119 291.748 226.782 290.967 226.782 290.967C224.967 297.257 230.716 294.599 230.716 294.599C231.277 302.62 235.932 297.203 235.932 297.203C238.429 305.21 241.831 298.105 241.831 298.105C243.394 301.684 246.583 297.674 244.55 289.308C242.518 280.943 248.237 279.285 248.237 279.285C258.38 288.149 265.348 280.051 268.585 271.758C271.827 263.466 278.137 257.564 278.137 257.564C282.572 258.774 284.165 257.179 285.089 256.253C285.351 255.991 285.559 255.783 285.763 255.707C286.223 255.532 286.925 255.6 287.505 255.717C286.257 257.186 284.946 258.859 283.697 260.697C283.436 260.348 281.849 258.413 278.96 258.762C275.785 259.145 275.374 263.893 275.374 263.893C275.374 263.893 275.945 262.617 278.481 263.16C280.557 263.597 282.744 261.72 283.479 261.017C282.173 262.966 281.084 264.892 280.189 266.788C279.84 266.56 277.339 265.076 274.29 266.492C270.995 268.019 272.689 272.767 272.689 272.767C272.689 272.767 274.697 269.596 277.145 269.469C278.365 269.416 279.134 268.757 279.603 268.112C278.873 269.843 278.311 271.55 277.934 273.213C277.547 273.296 276.806 273.64 275.36 274.678C272.413 276.787 273.942 283.654 273.942 283.654C274.031 283.074 275.235 282.063 276.563 280.947C278.057 279.693 279.707 278.307 280.102 277.258C280.847 275.279 278.345 273.33 278.345 273.33C278.345 273.33 278.34 273.32 278.34 273.31C278.757 271.448 279.415 269.537 280.286 267.588C280.165 268.412 280.242 269.518 281.195 270.449C282.952 272.171 282.352 275.876 282.352 275.876C282.352 275.876 286.765 273.446 285.304 270.114C284.06 267.268 281.534 266.579 280.828 266.443C281.723 264.63 282.734 262.879 283.866 261.206C284.021 260.978 284.176 260.75 284.336 260.522C284.07 261.662 283.683 264.222 284.989 265.701Z" fill="#3182CE"/>
<path d="M274.014 177.675C274.016 177.689 274.017 177.703 274.018 177.717C274.015 177.69 274.014 177.675 274.014 177.675Z" fill="#3182CE"/>
<path d="M226.061 177.675C226.061 177.675 226.06 177.69 226.057 177.717C226.058 177.703 226.059 177.689 226.061 177.675Z" fill="#3182CE"/>
<path d="M296.927 417.515C296.927 417.515 298.551 417.471 301.564 417.191C304.591 416.909 309.008 416.391 314.603 415.394C325.75 413.403 341.651 409.591 359.559 401.486C368.492 397.435 377.895 392.28 387.235 385.727C396.56 379.174 405.822 371.239 414.309 361.753C422.799 352.3 430.501 341.299 436.88 329.14C443.245 316.981 448.381 303.738 451.957 289.928C452.862 286.483 453.573 282.973 454.374 279.489L454.973 276.871C455.154 276.103 455.272 275.129 455.429 274.266L456.315 268.927C456.653 267.149 456.762 265.391 456.971 263.625C457.151 261.861 457.333 260.113 457.527 258.348C457.62 256.575 457.71 254.786 457.788 253.015C457.852 251.245 458.032 249.481 457.979 247.704C458.136 233.525 456.655 219.555 454.116 206.282C453.853 204.605 453.478 202.972 453.131 201.336C452.785 199.699 452.424 198.065 452.08 196.445C451.318 193.211 450.488 190.032 449.704 186.882C448.792 183.76 447.955 180.664 447.007 177.626C446.017 174.609 445.173 171.595 444.148 168.678C440.204 156.966 435.802 146.16 431.359 136.387C426.918 126.63 422.53 117.816 418.391 110.19C414.251 102.563 410.426 96.0361 407.216 90.7298C403.992 85.4247 401.325 81.3451 399.5 78.5806C397.66 75.8173 396.648 74.3865 396.648 74.3865L396.917 74.1342C396.917 74.1342 401.347 79.595 408.25 89.9202C411.708 95.0741 415.767 101.45 420.133 109.008C424.483 116.55 429.248 125.184 433.881 134.973C438.527 144.745 443.15 155.58 447.347 167.368C451.558 179.155 455.177 191.974 457.755 205.521C460.261 219.075 461.7 233.392 461.353 247.899C461.38 249.71 461.175 251.525 461.102 253.345C460.985 255.169 460.881 256.975 460.764 258.799C460.559 260.614 460.341 262.447 460.122 264.263C459.888 266.081 459.745 267.94 459.389 269.687L458.445 275.014C458.277 275.928 458.174 276.737 457.941 277.738L457.314 280.374C456.444 283.898 455.693 287.444 454.734 290.943C450.956 304.933 445.602 318.343 439.029 330.618C432.442 342.894 424.514 353.964 415.809 363.452C407.12 372.955 397.684 380.906 388.177 387.36C378.67 393.83 369.126 398.866 360.082 402.812C341.963 410.675 325.955 414.251 314.749 416.067C303.512 417.869 296.992 417.918 296.992 417.918L296.956 417.513L296.927 417.515Z" fill="#3182CE"/>
<path d="M464.516 305.084C457.047 309.758 448.201 308.475 448.201 308.475C448.201 308.475 451.451 299.596 458.934 294.921C466.403 290.247 475.249 291.53 475.249 291.53C475.249 291.53 471.983 300.394 464.516 305.084Z" fill="#3182CE"/>
<path d="M436.052 294.182C432.081 285.822 433.719 276.447 433.719 276.447C433.719 276.447 441.797 280.591 445.783 288.95C449.768 297.309 448.117 306.702 448.117 306.702C448.117 306.702 440.038 302.557 436.053 294.198L436.052 294.182Z" fill="#3182CE"/>
<path d="M456.121 324.446C448.653 329.12 439.806 327.837 439.806 327.837C439.806 327.837 443.073 318.973 450.54 314.283C458.009 309.608 466.855 310.891 466.855 310.891C466.855 310.891 463.603 319.754 456.121 324.446Z" fill="#3182CE"/>
<path d="M426.505 315.165C423.093 306.543 425.354 297.31 425.354 297.31C425.354 297.31 433.152 302.067 436.551 310.706C439.963 319.328 437.703 328.561 437.703 328.561C437.703 328.561 429.919 323.803 426.505 315.165Z" fill="#3182CE"/>
<path d="M471.078 281.717C463.95 286.965 455.047 286.357 455.047 286.357C455.047 286.357 457.71 277.252 464.838 272.003C471.966 266.754 480.87 267.362 480.87 267.362C480.87 267.362 478.22 276.467 471.078 281.717Z" fill="#3182CE"/>
<path d="M440.809 273.26C436.3 265.225 437.287 255.727 437.287 255.727C437.287 255.727 445.616 259.245 450.14 267.279C454.663 275.313 453.662 284.812 453.662 284.812C453.662 284.812 445.332 281.294 440.809 273.26Z" fill="#3182CE"/>
<path d="M474.9 252.92C468.137 258.692 459.22 258.755 459.22 258.755C459.22 258.755 461.271 249.458 468.048 243.685C474.825 237.911 483.728 237.849 483.728 237.849C483.728 237.849 481.675 247.13 474.898 252.903L474.9 252.92Z" fill="#3182CE"/>
<path d="M444.974 246.524C439.958 238.844 440.344 229.285 440.344 229.285C440.344 229.285 448.881 232.18 453.911 239.859C458.941 247.538 458.555 257.097 458.555 257.097C458.555 257.097 450.019 254.202 444.988 246.523L444.974 246.524Z" fill="#3182CE"/>
<path d="M475.157 225.873C468.931 232.301 460.064 233.274 460.064 233.274C460.064 233.274 461.301 223.804 467.527 217.376C473.751 210.932 482.62 209.975 482.62 209.975C482.62 209.975 481.383 219.445 475.157 225.873Z" fill="#3182CE"/>
<path d="M445.125 224.144C439.458 216.994 439.001 207.427 439.001 207.427C439.001 207.427 447.737 209.455 453.419 216.603C459.086 223.753 459.543 233.32 459.543 233.32C459.543 233.32 450.792 231.293 445.125 224.144Z" fill="#3182CE"/>
<path d="M471.379 196.419C465.153 202.847 456.3 203.819 456.3 203.819C456.3 203.819 457.537 194.349 463.763 187.921C469.989 181.493 478.841 180.521 478.841 180.521C478.841 180.521 477.605 189.991 471.379 196.419Z" fill="#3182CE"/>
<path d="M439.998 199.678C433.035 193.998 430.658 184.746 430.658 184.746C430.658 184.746 439.576 184.683 446.539 190.363C453.502 196.043 455.879 205.294 455.879 205.294C455.879 205.294 446.961 205.357 439.998 199.678Z" fill="#3182CE"/>
<path d="M462.308 165.304C458.243 173.503 450.105 177.337 450.105 177.337C450.105 177.337 448.582 167.88 452.647 159.681C456.713 151.482 464.851 147.648 464.851 147.648C464.851 147.648 466.388 157.104 462.308 165.304Z" fill="#3182CE"/>
<path d="M432.152 174.91C424.743 169.939 421.588 160.935 421.588 160.935C421.588 160.935 430.444 159.995 437.868 164.965C445.277 169.936 448.447 178.938 448.447 178.938C448.447 178.938 439.591 179.878 432.167 174.908L432.152 174.91Z" fill="#3182CE"/>
<path d="M450.72 134.101C446.655 142.3 438.517 146.134 438.517 146.134C438.517 146.134 436.994 136.677 441.059 128.478C445.125 120.279 453.248 116.446 453.248 116.446C453.248 116.446 454.786 125.902 450.706 134.102L450.72 134.101Z" fill="#3182CE"/>
<path d="M420.565 143.722C413.156 138.751 409.986 129.749 409.986 129.749C409.986 129.749 418.842 128.809 426.266 133.778C433.69 138.748 436.845 147.751 436.845 147.751C436.845 147.751 427.975 148.693 420.565 143.722Z" fill="#3182CE"/>
<path d="M434.646 106.624C431.787 114.325 424.921 118.587 424.921 118.587C424.921 118.587 422.705 110.35 425.579 102.648C428.452 94.9455 435.303 90.685 435.303 90.685C435.303 90.685 437.519 98.9215 434.646 106.624Z" fill="#3182CE"/>
<path d="M408.797 118.318C401.779 114.669 398.175 107.011 398.175 107.011C398.175 107.011 405.941 105.252 412.96 108.901C419.978 112.55 423.582 120.207 423.582 120.207C423.582 120.207 415.815 121.967 408.797 118.318Z" fill="#3182CE"/>
<path d="M419.766 85.4472C417.389 91.8479 411.696 95.386 411.696 95.386C411.696 95.386 409.862 88.5375 412.239 82.1368C414.616 75.7361 420.309 72.1979 420.309 72.1979C420.309 72.1979 422.142 79.0464 419.766 85.4472Z" fill="#3182CE"/>
<path d="M398.287 95.1404C392.456 92.1062 389.46 85.7518 389.46 85.7518C389.46 85.7518 395.915 84.2872 401.746 87.3214C407.576 90.3394 410.574 96.71 410.574 96.71C410.574 96.71 404.118 98.1747 398.287 95.1404Z" fill="#3182CE"/>
<path d="M445.921 345.944C437.843 349.299 429.274 346.537 429.274 346.537C429.274 346.537 433.806 338.347 441.869 334.993C449.949 331.654 458.517 334.415 458.517 334.415C458.517 334.415 454 342.605 445.922 345.96L445.921 345.944Z" fill="#3182CE"/>
<path d="M417.973 331.777C415.858 322.699 419.457 313.985 419.457 313.985C419.457 313.985 426.463 319.988 428.593 329.065C430.693 338.145 427.11 346.873 427.11 346.873C427.11 346.873 420.104 340.871 417.988 331.776L417.973 331.777Z" fill="#3182CE"/>
<path d="M434.545 364.767C426.116 366.927 417.952 362.97 417.952 362.97C417.952 362.97 423.463 355.511 431.892 353.35C440.321 351.19 448.486 355.147 448.486 355.147C448.486 355.147 442.989 362.605 434.545 364.767Z" fill="#3182CE"/>
<path d="M408.554 346.769C407.583 337.475 412.224 329.373 412.224 329.373C412.224 329.373 418.439 336.311 419.41 345.604C420.381 354.898 415.726 363.001 415.726 363.001C415.726 363.001 409.511 356.063 408.54 346.77L408.554 346.769Z" fill="#3182CE"/>
<path d="M419.687 382.195C411.095 383.488 403.297 378.731 403.297 378.731C403.297 378.731 409.426 371.87 418.032 370.56C426.623 369.252 434.422 374.025 434.422 374.025C434.422 374.025 428.292 380.885 419.687 382.195Z" fill="#3182CE"/>
<path d="M395.349 361.683C395.189 352.352 400.527 344.744 400.527 344.744C400.527 344.744 406.125 352.275 406.271 361.608C406.418 370.941 401.094 378.547 401.094 378.547C401.094 378.547 395.496 371.016 395.349 361.683Z" fill="#3182CE"/>
<path d="M402.918 396.573C394.224 396.698 387.036 390.94 387.036 390.94C387.036 390.94 393.94 384.959 402.635 384.834C411.327 384.693 418.502 390.468 418.502 390.468C418.502 390.468 411.598 396.449 402.918 396.573Z" fill="#3182CE"/>
<path d="M381.152 372.977C382.088 363.713 388.279 356.896 388.279 356.896C388.279 356.896 392.95 365.113 392.014 374.377C391.079 383.642 384.888 390.459 384.888 390.459C384.888 390.459 380.203 382.243 381.152 372.977Z" fill="#3182CE"/>
<path d="M384.593 409.208C375.935 408.251 369.414 401.634 369.414 401.634C369.414 401.634 376.922 396.581 385.579 397.521C394.236 398.478 400.758 405.095 400.758 405.095C400.758 405.095 393.25 410.148 384.593 409.208Z" fill="#3182CE"/>
<path d="M365.48 383.076C367.406 374.002 374.31 368.022 374.31 368.022C374.31 368.022 378.079 376.743 376.141 385.833C374.201 394.908 367.311 400.888 367.311 400.888C367.311 400.888 363.554 392.149 365.48 383.076Z" fill="#3182CE"/>
<path d="M362.08 419.874C353.626 417.592 348.042 410.059 348.042 410.059C348.042 410.059 356.164 406.21 364.618 408.492C373.071 410.773 378.656 418.306 378.656 418.306C378.656 418.306 370.534 422.155 362.08 419.874Z" fill="#3182CE"/>
<path d="M346.62 391.118C349.744 382.446 357.387 377.609 357.387 377.609C357.387 377.609 359.949 386.812 356.826 395.484C353.687 404.141 346.059 408.992 346.059 408.992C346.059 408.992 343.497 399.789 346.635 391.116L346.62 391.118Z" fill="#3182CE"/>
<path d="M203.075 417.515C203.075 417.515 201.451 417.471 198.438 417.19C195.411 416.908 190.994 416.39 185.399 415.393C174.252 413.403 158.351 409.591 140.443 401.485C131.51 397.434 122.107 392.28 112.767 385.726C103.442 379.174 94.1803 371.238 85.6928 361.753C77.2026 352.3 69.5014 341.299 63.1222 329.139C56.7573 316.981 51.6208 303.737 48.045 289.928C47.1396 286.483 46.4287 282.973 45.6284 279.488L45.0286 276.87C44.8485 276.103 44.7301 275.129 44.573 274.265L43.6875 268.926C43.3486 267.149 43.2404 265.391 43.0313 263.624C42.8511 261.86 42.6694 260.112 42.4747 258.347C42.3824 256.574 42.2915 254.786 42.2137 253.014C42.1502 251.244 41.9699 249.48 42.0233 247.704C41.866 233.524 43.3472 219.554 45.8865 206.281C46.1491 204.605 46.5242 202.971 46.8705 201.335C47.2168 199.699 47.5775 198.064 47.9224 196.444C48.6843 193.21 49.5141 190.032 50.2977 186.882C51.2097 183.759 52.0468 180.663 52.995 177.626C53.9851 174.608 54.8295 171.594 55.8544 168.678C59.7979 156.966 64.2001 146.16 68.6429 136.387C73.0842 126.63 77.4723 117.816 81.6115 110.189C85.7506 102.562 89.5757 96.0357 92.7857 90.7293C96.0101 85.4242 98.6769 81.3446 100.502 78.5801C102.342 75.8168 103.354 74.386 103.354 74.386L103.085 74.1337C103.085 74.1337 98.6553 79.5945 91.7519 89.9198C88.2937 95.0736 84.2347 101.449 79.869 109.007C75.5192 116.55 70.7544 125.184 66.1213 134.973C61.4752 144.744 56.8525 155.58 52.6552 167.368C48.4436 179.154 44.8248 191.973 42.247 205.521C39.7413 219.075 38.3025 233.392 38.6492 247.898C38.6219 249.709 38.8268 251.525 38.9004 253.345C39.0173 255.168 39.1212 256.975 39.2381 258.799C39.443 260.614 39.6608 262.446 39.8801 264.263C40.1138 266.081 40.2567 267.939 40.6129 269.686L41.5575 275.014C41.7248 275.927 41.8285 276.737 42.0608 277.737L42.6881 280.374C43.5577 283.898 44.309 287.444 45.2679 290.942C49.0458 304.933 54.4004 318.342 60.9731 330.617C67.5602 342.893 75.4878 353.963 84.193 363.451C92.8824 372.954 102.318 380.905 111.825 387.359C121.332 393.83 130.876 398.865 139.92 402.812C158.039 410.674 174.047 414.251 185.253 416.067C196.489 417.869 203.01 417.918 203.01 417.918L203.046 417.512L203.075 417.515Z" fill="#3182CE"/>
<path d="M35.4881 305.084C42.9568 309.758 51.803 308.475 51.803 308.475C51.803 308.475 48.5526 299.596 41.0694 294.921C33.6007 290.247 24.7545 291.53 24.7545 291.53C24.7545 291.53 28.0208 300.394 35.4881 305.084Z" fill="#3182CE"/>
<path d="M63.9521 294.182C67.9228 285.821 66.2851 276.446 66.2851 276.446C66.2851 276.446 58.2064 280.591 54.2214 288.95C50.2363 297.309 51.8869 306.701 51.8869 306.701C51.8869 306.701 59.9656 302.557 63.9507 294.198L63.9521 294.182Z" fill="#3182CE"/>
<path d="M43.8846 324.446C51.3533 329.12 60.1995 327.837 60.1995 327.837C60.1995 327.837 56.9332 318.973 49.4659 314.283C41.9972 309.608 33.151 310.891 33.151 310.891C33.151 310.891 36.4028 319.754 43.8846 324.446Z" fill="#3182CE"/>
<path d="M73.4965 315.164C76.9087 306.543 74.6483 297.309 74.6483 297.309C74.6483 297.309 66.8504 302.066 63.4512 310.705C60.039 319.327 62.2994 328.56 62.2994 328.56C62.2994 328.56 70.0829 323.802 73.4965 315.164Z" fill="#3182CE"/>
<path d="M28.9259 281.716C36.0538 286.965 44.9574 286.357 44.9574 286.357C44.9574 286.357 42.2935 277.251 35.1656 272.003C28.0377 266.754 19.1341 267.362 19.1341 267.362C19.1341 267.362 21.7836 276.466 28.9259 281.716Z" fill="#3182CE"/>
<path d="M59.197 273.259C63.7061 265.224 62.7186 255.726 62.7186 255.726C62.7186 255.726 54.3894 259.244 49.8659 267.278C45.3424 275.312 46.3443 284.811 46.3443 284.811C46.3443 284.811 54.6735 281.294 59.197 273.259Z" fill="#3182CE"/>
<path d="M25.1021 252.919C31.8646 258.691 40.7822 258.754 40.7822 258.754C40.7822 258.754 38.7309 249.458 31.954 243.684C25.177 237.911 16.2738 237.849 16.2738 237.849C16.2738 237.849 18.3266 247.129 25.1035 252.903L25.1021 252.919Z" fill="#3182CE"/>
<path d="M55.032 246.524C60.0478 238.843 59.6616 229.284 59.6616 229.284C59.6616 229.284 51.1252 232.179 46.0949 239.858C41.0647 247.538 41.4509 257.097 41.4509 257.097C41.4509 257.097 49.9873 254.202 55.0176 246.523L55.032 246.524Z" fill="#3182CE"/>
<path d="M24.845 225.873C31.0707 232.301 39.9379 233.274 39.9379 233.274C39.9379 233.274 38.701 223.804 32.4753 217.376C26.2511 210.932 17.3825 209.975 17.3825 209.975C17.3825 209.975 18.6193 219.445 24.845 225.873Z" fill="#3182CE"/>
<path d="M54.8771 224.143C60.5441 216.994 61.0014 207.427 61.0014 207.427C61.0014 207.427 52.2646 209.455 46.5831 216.603C40.9161 223.752 40.4588 233.319 40.4588 233.319C40.4588 233.319 49.21 231.293 54.8771 224.143Z" fill="#3182CE"/>
<path d="M28.6231 196.419C34.8488 202.846 43.7016 203.819 43.7016 203.819C43.7016 203.819 42.4647 194.348 36.239 187.92C30.0133 181.493 21.1606 180.52 21.1606 180.52C21.1606 180.52 22.3974 189.991 28.6231 196.419Z" fill="#3182CE"/>
<path d="M60.0075 199.677C66.9705 193.997 69.3477 184.745 69.3477 184.745C69.3477 184.745 60.43 184.682 53.4671 190.362C46.5041 196.042 44.1269 205.293 44.1269 205.293C44.1269 205.293 53.0446 205.356 60.0075 199.677Z" fill="#3182CE"/>
<path d="M37.6937 165.304C41.7592 173.503 49.8971 177.337 49.8971 177.337C49.8971 177.337 51.4203 167.88 47.3547 159.681C43.2892 151.482 35.1513 147.648 35.1513 147.648C35.1513 147.648 33.6137 157.104 37.6937 165.304Z" fill="#3182CE"/>
<path d="M67.8534 174.909C75.2631 169.938 78.4179 160.934 78.4179 160.934C78.4179 160.934 69.5623 159.994 62.1382 164.964C54.7285 169.935 51.5592 178.937 51.5592 178.937C51.5592 178.937 60.4148 179.877 67.8389 174.907L67.8534 174.909Z" fill="#3182CE"/>
<path d="M49.2796 134.101C53.3451 142.3 61.483 146.134 61.483 146.134C61.483 146.134 63.0062 136.677 58.9407 128.478C54.8752 120.279 46.7517 116.446 46.7517 116.446C46.7517 116.446 45.2141 125.902 49.294 134.102L49.2796 134.101Z" fill="#3182CE"/>
<path d="M79.4386 143.721C86.8482 138.75 90.0175 129.748 90.0175 129.748C90.0175 129.748 81.1619 128.808 73.7378 133.778C66.3137 138.747 63.1588 147.751 63.1588 147.751C63.1588 147.751 72.0289 148.692 79.4386 143.721Z" fill="#3182CE"/>
<path d="M65.3563 106.623C68.2155 114.324 75.0807 118.586 75.0807 118.586C75.0807 118.586 77.2966 110.349 74.4231 102.647C71.5495 94.9446 64.6986 90.6841 64.6986 90.6841C64.6986 90.6841 62.4827 98.9205 65.3563 106.623Z" fill="#3182CE"/>
<path d="M91.2051 118.317C98.2233 114.668 101.827 107.01 101.827 107.01C101.827 107.01 94.0606 105.251 87.0424 108.9C80.0242 112.549 76.4201 120.206 76.4201 120.206C76.4201 120.206 84.1869 121.966 91.2051 118.317Z" fill="#3182CE"/>
<path d="M80.2441 85.4467C82.621 91.8474 88.3141 95.3855 88.3141 95.3855C88.3141 95.3855 90.1473 88.537 87.7705 82.1363C85.3936 75.7356 79.7005 72.1974 79.7005 72.1974C79.7005 72.1974 77.8673 79.046 80.2441 85.4467Z" fill="#3182CE"/>
<path d="M101.715 95.1395C107.546 92.1052 110.542 85.7508 110.542 85.7508C110.542 85.7508 104.086 84.2862 98.2555 87.3204C92.426 90.3384 89.4283 96.7091 89.4283 96.7091C89.4283 96.7091 95.8838 98.1737 101.715 95.1395Z" fill="#3182CE"/>
<path d="M54.0812 345.943C62.1592 349.299 70.7276 346.537 70.7276 346.537C70.7276 346.537 66.1963 338.346 58.1328 334.992C50.0534 331.653 41.485 334.415 41.485 334.415C41.485 334.415 46.0018 342.604 54.0798 345.96L54.0812 345.943Z" fill="#3182CE"/>
<path d="M82.0325 331.777C84.1475 322.699 80.5484 313.985 80.5484 313.985C80.5484 313.985 73.5427 319.988 71.4133 329.065C69.3126 338.145 72.8959 346.873 72.8959 346.873C72.8959 346.873 79.9016 340.871 82.0181 331.776L82.0325 331.777Z" fill="#3182CE"/>
<path d="M65.4604 364.766C73.8897 366.926 82.0538 362.969 82.0538 362.969C82.0538 362.969 76.5431 355.51 68.1138 353.349C59.6845 351.189 51.5204 355.146 51.5204 355.146C51.5204 355.146 57.0166 362.604 65.4604 364.766Z" fill="#3182CE"/>
<path d="M91.4517 346.769C92.4228 337.475 87.7821 329.373 87.7821 329.373C87.7821 329.373 81.5667 336.311 80.5956 345.604C79.6244 354.898 84.2796 363.001 84.2796 363.001C84.2796 363.001 90.4949 356.063 91.4661 346.77L91.4517 346.769Z" fill="#3182CE"/>
<path d="M80.3151 382.195C88.9074 383.487 96.7053 378.73 96.7053 378.73C96.7053 378.73 90.5755 371.87 81.9702 370.56C73.3793 369.251 65.58 374.024 65.58 374.024C65.58 374.024 71.7098 380.885 80.3151 382.195Z" fill="#3182CE"/>
<path d="M104.653 361.683C104.813 352.351 99.4754 344.743 99.4754 344.743C99.4754 344.743 93.8768 352.274 93.7305 361.607C93.5843 370.94 98.9077 378.547 98.9077 378.547C98.9077 378.547 104.506 371.015 104.653 361.683Z" fill="#3182CE"/>
<path d="M97.0838 396.572C105.778 396.698 112.966 390.939 112.966 390.939C112.966 390.939 106.062 384.959 97.3675 384.834C88.6746 384.692 81.4999 390.468 81.4999 390.468C81.4999 390.468 88.404 396.449 97.0838 396.572Z" fill="#3182CE"/>
<path d="M118.853 372.977C117.918 363.712 111.727 356.895 111.727 356.895C111.727 356.895 107.056 365.113 107.991 374.377C108.927 383.641 115.118 390.458 115.118 390.458C115.118 390.458 119.803 382.242 118.853 372.977Z" fill="#3182CE"/>
<path d="M115.411 409.208C124.068 408.252 130.59 401.635 130.59 401.635C130.59 401.635 123.082 396.581 114.425 397.522C105.767 398.478 99.2459 405.095 99.2459 405.095C99.2459 405.095 106.754 410.149 115.411 409.208Z" fill="#3182CE"/>
<path d="M134.52 383.075C132.594 374.001 125.69 368.021 125.69 368.021C125.69 368.021 121.921 376.742 123.859 385.832C125.799 394.907 132.689 400.887 132.689 400.887C132.689 400.887 136.446 392.148 134.52 383.075Z" fill="#3182CE"/>
<path d="M137.922 419.873C146.376 417.592 151.96 410.059 151.96 410.059C151.96 410.059 143.838 406.21 135.384 408.491C126.931 410.773 121.346 418.305 121.346 418.305C121.346 418.305 129.468 422.154 137.922 419.873Z" fill="#3182CE"/>
<path d="M153.382 391.117C150.258 382.445 142.615 377.609 142.615 377.609C142.615 377.609 140.053 386.811 143.176 395.483C146.315 404.14 153.943 408.992 153.943 408.992C153.943 408.992 156.505 399.789 153.367 391.116L153.382 391.117Z" fill="#3182CE"/>
</svg>
