<?xml version="1.0" standalone="no"?>
<!DOCTYPE svg PUBLIC "-//W3C//DTD SVG 20010904//EN"
 "http://www.w3.org/TR/2001/REC-SVG-20010904/DTD/svg10.dtd">
<svg version="1.0" xmlns="http://www.w3.org/2000/svg"
 width="300.000000pt" height="240.000000pt" viewBox="0 0 300.000000 240.000000"
 preserveAspectRatio="xMidYMid meet">

<g transform="translate(0.000000,240.000000) scale(0.100000,-0.100000)"
fill="#000000" stroke="none">
<path d="M435 1943 c-36 -9 -77 -45 -91 -79 -11 -27 -14 -149 -14 -664 0 -694
-1 -676 61 -721 l34 -24 1075 0 1075 0 34 24 c62 45 61 27 61 721 0 694 1 676
-61 721 l-34 24 -1060 1 c-583 1 -1069 0 -1080 -3z m2161 -76 l24 -28 0 -639
0 -639 -24 -28 -24 -28 -1072 0 -1072 0 -24 28 -24 28 0 637 c0 691 -2 670 54
692 11 5 495 8 1079 7 l1059 -2 24 -28z"/>
<path d="M908 1507 c-30 -26 -48 -57 -48 -86 0 -25 3 -25 44 -6 35 17 66 61
66 94 0 28 -28 27 -62 -2z"/>
<path d="M1250 1230 l0 -270 40 0 40 0 0 94 0 94 94 4 c102 3 127 14 170 72
30 39 30 153 0 192 -49 67 -98 83 -246 84 l-98 0 0 -270z m247 174 c37 -28 48
-67 34 -115 -16 -52 -45 -69 -130 -76 l-71 -6 0 113 0 112 70 -4 c50 -2 77 -9
97 -24z"/>
<path d="M906 1384 c-36 -12 -55 -13 -79 -5 -112 39 -197 -29 -197 -157 0 -95
50 -207 111 -249 18 -14 29 -14 75 -3 44 11 64 11 109 0 52 -12 58 -12 82 7
15 11 40 44 57 74 l29 54 -36 37 c-33 32 -37 42 -37 86 0 39 6 57 25 80 14 17
25 35 25 41 0 13 -76 51 -100 50 -8 0 -37 -7 -64 -15z"/>
<path d="M1725 1332 c-36 -22 -50 -39 -59 -69 -7 -21 -4 -23 28 -23 24 0 43 8
60 25 49 49 136 24 136 -39 l0 -33 -80 -6 c-123 -8 -180 -54 -166 -132 17 -90
148 -127 219 -61 29 27 37 24 37 -11 0 -20 5 -23 35 -23 l35 0 0 155 0 155
-34 37 c-33 36 -37 38 -108 41 -58 2 -79 -1 -103 -16z m165 -221 c0 -62 -70
-106 -131 -81 -36 15 -49 54 -26 78 16 15 70 28 130 31 23 1 27 -3 27 -28z"/>
<path d="M2060 1191 c85 -231 85 -232 66 -269 -12 -23 -25 -33 -51 -38 -30 -5
-35 -10 -35 -35 0 -27 3 -29 36 -29 84 0 118 38 172 190 17 47 51 142 76 213
l45 127 -43 0 c-40 0 -44 -3 -51 -27 -3 -16 -25 -86 -47 -158 l-41 -130 -13
40 c-7 22 -29 93 -49 158 l-36 117 -43 0 -44 0 58 -159z"/>
</g>
</svg>
