<svg width="500" height="500" viewBox="0 0 500 500" fill="none" xmlns="http://www.w3.org/2000/svg">
<g clip-path="url(#clip0_1913_3456)">
<path d="M369.602 451.2C373.915 452.834 378.535 454.254 382.775 456.074C389.589 459.314 401.175 465.047 401.075 473.634C400.849 479.067 396.722 483.447 392.522 486.567C380.975 494.727 366.589 497.867 352.695 499.56C348.009 499.914 343.309 500.08 338.615 499.967C343.295 499.674 347.955 499.247 352.575 498.56C366.295 496.887 380.515 493.8 391.902 485.767C395.675 482.94 399.355 479.207 399.982 474.414C401.382 462.98 378.122 455.467 369.602 451.207V451.2Z" fill="black"/>
<path d="M176.047 482.154C167.854 479.868 159.887 476.901 152.194 473.308C146.627 470.568 128.674 462.748 132.194 455.014C135.827 447.594 157.854 447.334 165.714 446.708C169.994 446.814 174.22 447.288 178.434 447.948C174.194 447.688 169.94 447.481 165.734 447.714C158.254 448.334 136.72 448.594 133.127 455.434C129.287 463.854 157.92 474.701 164.3 477.328C168.18 479.021 172.1 480.608 176.047 482.154Z" fill="black"/>
<path d="M374.52 475.247C375.32 464.261 329.306 452.114 271.76 448.114C214.213 444.114 166.913 449.781 166.12 460.767C165.32 471.754 211.333 483.901 268.88 487.901C326.426 491.901 373.726 486.234 374.52 475.247Z" fill="black"/>
<path d="M470.787 266.18C503.674 201.753 469.514 96.9733 396.427 41.0133C313.14 -22.7667 205.487 -2.20668 139.5 35.5867C61.2403 80.4133 7.88695 176.027 17.867 264.6C30.9003 380.247 129.654 481.993 299.534 467.533C299.06 467.507 293.767 467.887 293.254 467.853C282.04 468.313 272.7 467.4 247.514 459.353C247.5 459.353 247.48 459.347 247.467 459.34C195.72 445.36 121.174 412.147 89.3803 342.593C59.567 277.393 83.1403 214.853 85.5536 208.753C111.107 144.08 169.68 115.92 200.407 105.2C209.874 101.887 216.734 100.22 219.207 99.6533C225.667 98.1667 322.507 77.4467 388.98 139.867C396.754 147.167 435.794 183.827 436.327 238.533C436.42 248.207 436.674 274.167 424.054 295.247C421.174 300.1 417.614 304.7 413.22 308.787C418.594 308.74 423.934 307.98 429.18 306.333C454.32 298.467 466.9 273.82 470.8 266.187" fill="#22B580"/>
<path d="M436.184 238.714V238.7C435.644 183.954 396.597 147.26 388.817 139.96C322.331 77.4938 225.471 98.2271 219.004 99.7138C216.544 100.28 209.764 101.927 200.391 105.2C169.671 115.92 111.097 144.08 85.5372 208.754C83.1305 214.854 59.5572 277.394 89.3639 342.594C121.164 412.14 195.704 445.36 247.451 459.34C247.464 459.34 247.484 459.347 247.497 459.354C272.684 467.4 282.024 468.314 293.237 467.854L296.151 467.7C295.977 467.7 295.764 467.687 295.531 467.674C295.391 467.674 295.251 467.66 295.111 467.654C292.177 467.507 286.171 467.127 285.344 467.02C275.191 466.12 270.504 464.527 269.924 464.354C268.511 463.94 267.071 463.48 265.611 462.994C265.477 462.947 265.337 462.9 265.204 462.854C264.284 462.54 263.357 462.227 262.417 461.887H262.397C262.117 461.787 261.824 461.674 261.544 461.574C260.871 461.327 260.204 461.087 259.524 460.827C259.277 460.734 259.031 460.634 258.784 460.54C257.344 459.98 255.884 459.394 254.404 458.78C254.057 458.634 253.711 458.494 253.364 458.347C252.731 458.08 252.091 457.794 251.451 457.514C250.971 457.307 250.497 457.094 250.017 456.88C249.404 456.607 248.791 456.32 248.177 456.04C247.657 455.8 247.137 455.554 246.611 455.307C246.017 455.027 245.417 454.74 244.817 454.447C244.257 454.174 243.704 453.9 243.144 453.62C242.564 453.334 241.991 453.047 241.411 452.747C240.797 452.434 240.184 452.114 239.564 451.787C239.031 451.507 238.497 451.234 237.957 450.947C237.091 450.487 236.224 450.007 235.357 449.534C234.837 449.247 234.317 448.96 233.797 448.667C232.884 448.154 231.964 447.634 231.051 447.094C230.597 446.827 230.144 446.554 229.691 446.287C228.957 445.854 228.217 445.414 227.484 444.967C226.997 444.674 226.511 444.367 226.024 444.067C225.311 443.627 224.591 443.174 223.877 442.72C223.391 442.414 222.904 442.1 222.417 441.787C221.684 441.314 220.957 440.834 220.224 440.347C219.757 440.04 219.297 439.734 218.831 439.42C218.031 438.88 217.231 438.334 216.437 437.78C216.044 437.507 215.651 437.24 215.257 436.967C214.071 436.134 212.884 435.287 211.697 434.414C204.584 429.207 197.544 423.414 190.771 417.047C184.464 411.12 178.391 404.707 172.704 397.8C134.717 351.7 115.771 275.187 161.604 222.28C173.704 208.314 188.877 198.507 205.271 192.127C226.737 183.774 250.297 181.3 271.844 183.074C279.984 183.74 287.831 185.014 295.171 186.807C305.131 189.24 357.137 201.947 379.164 248.774C386.857 265.134 391.097 286.087 389.791 305.154C389.364 311.347 388.357 317.334 386.691 322.907C386.857 322.867 387.024 322.82 387.184 322.78C394.457 320.907 401.504 317.84 407.951 313.14C409.717 311.847 411.384 310.48 412.944 309.047C413.031 308.967 413.104 308.887 413.191 308.807H413.077C417.517 304.727 421.117 300.12 424.024 295.26C436.51 274.207 436.271 248.38 436.171 238.734L436.184 238.714Z" fill="#621ED3"/>
<path d="M379.172 248.754C357.138 201.927 305.138 189.227 295.178 186.787C287.838 184.994 279.985 183.72 271.852 183.054C250.305 181.28 226.738 183.754 205.278 192.107C188.885 198.487 173.712 208.294 161.612 222.26C115.778 275.16 134.725 351.68 172.712 397.78C178.405 404.687 184.478 411.1 190.778 417.027C197.552 423.394 204.592 429.187 211.705 434.394C212.892 435.26 214.078 436.107 215.265 436.947C215.658 437.22 216.052 437.487 216.445 437.76C217.245 438.314 218.045 438.86 218.838 439.4C219.305 439.714 219.765 440.02 220.232 440.327C220.965 440.814 221.692 441.294 222.425 441.767C222.912 442.08 223.398 442.394 223.885 442.7C224.598 443.154 225.318 443.6 226.032 444.047C226.518 444.347 227.005 444.647 227.492 444.947C228.232 445.394 228.965 445.834 229.698 446.267C230.152 446.534 230.605 446.814 231.058 447.074C231.978 447.607 232.892 448.127 233.805 448.647C234.325 448.94 234.845 449.227 235.365 449.514C236.232 449.994 237.098 450.467 237.965 450.927C238.505 451.214 239.038 451.487 239.572 451.767C240.185 452.087 240.805 452.414 241.418 452.727C241.998 453.02 242.578 453.314 243.152 453.6C243.712 453.88 244.272 454.154 244.825 454.427C245.425 454.72 246.025 455.007 246.618 455.287C247.138 455.534 247.665 455.78 248.185 456.02C248.798 456.307 249.412 456.587 250.025 456.86C250.505 457.074 250.978 457.28 251.458 457.494C252.098 457.774 252.738 458.06 253.372 458.327C253.718 458.474 254.065 458.614 254.412 458.76C255.885 459.38 257.345 459.967 258.792 460.52C259.038 460.614 259.285 460.714 259.532 460.807C260.212 461.067 260.878 461.307 261.552 461.554C261.845 461.66 262.138 461.767 262.432 461.874C263.372 462.207 264.298 462.527 265.218 462.84C265.352 462.887 265.492 462.934 265.625 462.98C266.565 463.294 267.498 463.594 268.418 463.88C268.932 464.04 269.438 464.194 269.945 464.347C270.525 464.52 275.212 466.114 285.365 467.014C286.192 467.12 292.192 467.507 295.132 467.647C295.285 467.654 295.418 467.66 295.552 467.667C295.765 467.674 295.972 467.687 296.172 467.694C296.285 467.694 299.525 467.5 299.632 467.494H299.592L288.112 466.6C287.465 466.48 286.805 466.347 286.132 466.2L285.858 466.14C285.218 465.994 284.558 465.834 283.892 465.66C283.825 465.64 283.765 465.627 283.698 465.607C283.645 465.594 283.598 465.58 283.545 465.567C282.872 465.387 282.185 465.194 281.492 464.987C281.492 464.987 281.452 464.974 281.438 464.967C281.418 464.967 281.398 464.954 281.378 464.947C281.338 464.934 281.232 464.9 281.232 464.9H281.225C280.492 464.68 279.752 464.447 278.998 464.187C274.852 462.8 270.412 460.94 265.812 458.64C251.892 451.654 236.625 440.554 224.192 425.7C219.998 420.687 216.125 415.254 212.738 409.407C210.858 406.154 209.158 402.84 207.645 399.474C190.212 360.854 196.492 316.067 215.118 288.56C219.678 281.827 228.032 269.84 243.918 263.2C247.292 261.787 250.632 260.774 253.865 260.08C267.812 257.06 279.905 259.827 285.505 261.174C307.672 266.534 320.718 280.54 327.165 287.467C331.865 292.514 342.632 305.007 348.598 323.7C349.145 325.407 349.645 327.16 350.105 328.967C351.992 336.46 354.058 345.127 351.678 355.254L351.445 356.247L352.138 356.12L352.445 356.067C357.912 355.067 363.825 353.06 369.332 349.254C378.165 343.14 383.918 333.78 387.172 322.88C387.185 322.834 387.198 322.794 387.212 322.747C387.045 322.787 386.878 322.834 386.718 322.874C388.385 317.3 389.392 311.307 389.818 305.12C391.125 286.054 386.885 265.1 379.192 248.74L379.178 248.754H379.172Z" fill="#EC008C"/>
<path d="M351.663 355.274C354.043 345.14 351.976 336.474 350.09 328.987C349.63 327.181 349.13 325.42 348.583 323.72C342.623 305.027 331.85 292.534 327.15 287.487C320.696 280.561 307.656 266.554 285.489 261.194C279.896 259.841 267.796 257.08 253.849 260.1C250.616 260.794 247.276 261.807 243.903 263.22C228.016 269.867 219.656 281.854 215.103 288.58C196.476 316.087 190.196 360.874 207.629 399.494C209.143 402.854 210.843 406.174 212.723 409.427C216.109 415.274 219.983 420.707 224.176 425.721C236.609 440.567 251.876 451.674 265.796 458.66C270.396 460.967 274.836 462.82 278.983 464.207C279.736 464.46 280.476 464.694 281.21 464.914C281.21 464.914 281.316 464.947 281.356 464.96C281.376 464.967 281.396 464.974 281.416 464.98C281.436 464.98 281.469 464.994 281.469 464.994H281.476C282.17 465.2 282.856 465.394 283.529 465.574C283.583 465.587 283.63 465.6 283.683 465.614C283.749 465.634 283.816 465.647 283.876 465.667C284.543 465.84 285.203 466.007 285.843 466.147L286.116 466.207C286.789 466.354 287.449 466.494 288.096 466.614L299.576 467.507C299.576 467.507 299.636 467.494 299.663 467.487C299.783 467.454 299.916 467.427 300.036 467.394C300.456 467.267 300.856 467.12 301.23 466.96C301.536 466.827 301.963 466.64 302.416 466.394C303.416 465.847 304.549 464.994 304.829 463.727C304.876 463.514 304.896 463.307 304.889 463.1C304.709 456.4 277.523 452.307 265.27 433.414C255.723 418.694 253.303 391.987 262.563 377.807C269.369 367.394 299.029 362.407 309.263 368.967C317.229 374.067 320.343 385.287 335.703 379.267C346.196 375.154 350.076 363.08 351.583 358.08C351.776 357.427 351.95 356.787 352.11 356.154L351.416 356.28L351.65 355.287V355.274H351.663Z" fill="#FF4E17"/>
</g>
<defs>
<clipPath id="clip0_1913_3456">
<rect width="466.667" height="500" fill="white" transform="translate(16.666)"/>
</clipPath>
</defs>
</svg>
