<svg width="1080" height="1080" viewBox="0 0 1080 1080" fill="none" xmlns="http://www.w3.org/2000/svg">
<path d="M472.687 481.454C476.734 437.659 465.605 353.929 452.276 330.052C452.345 330.014 484.176 268.748 484.176 268.783C488.542 277.616 492.347 287.119 495.547 297.201C509.251 340.379 512.02 391.042 503.865 453.951L472.687 481.454Z" fill="white"/>
<path d="M554.817 390.757C557.026 333.544 550.889 281.01 536.546 238.33C530.558 220.51 523.106 204.031 514.395 189.354C507.792 178.227 500.451 168.096 492.554 159.213L523.346 104C610.185 184.68 596.849 335.941 596.849 335.941L554.819 390.757H554.817Z" fill="white"/>
<path d="M510.856 446.796C517.617 387.169 514.738 337.116 501.485 295.354C495.96 277.945 488.671 262.19 479.819 248.527C479.764 248.527 509.256 192.44 509.196 192.433C517.693 206.751 524.97 222.847 530.826 240.272C545.678 284.469 551.582 337.386 548.38 397.559L510.856 446.794V446.796Z" fill="white"/>
<path d="M555.601 398.789L681.362 418.37L514.545 450.685L555.601 398.789Z" fill="white"/>
<path d="M521.234 455.143L688.785 422.685L627.99 479.88L521.234 455.143Z" fill="white"/>
<path d="M512.88 458.999L621.119 484.08L547.151 525.993L512.88 458.999Z" fill="white"/>
<path d="M508.404 462.429L542.135 528.365L483.167 551.559L508.404 462.429Z" fill="white"/>
<path d="M502.509 462.96L476.906 553.381L396.29 553.409L502.509 462.96Z" fill="white"/>
<path d="M606.309 338.384L695.011 312.282V412.134L606.309 338.384Z" fill="white"/>
<path d="M641.537 226.92L708.392 226.337L700.296 275.697L700.337 275.684L696.112 301.552L641.537 226.92Z" fill="white"/>
<path d="M559.605 393.697L600.878 341.146L688.156 413.714L559.605 393.697Z" fill="white"/>
<path d="M716.282 227.364L789.667 256.199L707.508 281.036L716.282 227.364Z" fill="white"/>
<path d="M603.224 275.763L688.922 308.196L603.224 333.413V275.763Z" fill="white"/>
<path d="M604.93 270.384L636.032 228.822L689.958 302.564L604.93 270.384Z" fill="white"/>
<path d="M290.333 562.343L388.699 559.062H462.788L348.568 600.322L290.333 562.343Z" fill="white"/>
<path d="M392.002 648.6L474.425 564.833L454.959 660.3L399.82 703.2L392.002 648.6Z" fill="white"/>
<path d="M353.697 644.722L351.125 605.398L468.341 563.052L387.941 644.722H353.697Z" fill="white"/>
<path d="M426.486 845.153C426.006 845.153 425.574 845.009 425.19 844.721C424.902 844.337 424.758 843.905 424.758 843.425V746.081C424.758 745.601 424.902 745.217 425.19 744.929C425.574 744.545 426.006 744.353 426.486 744.353H452.55C461.286 744.353 468.294 746.897 473.574 751.985C478.854 757.073 481.494 763.841 481.494 772.289V817.217C481.494 825.665 478.854 832.433 473.574 837.521C468.294 842.609 461.286 845.153 452.55 845.153H426.486ZM445.062 827.009C445.062 827.489 445.302 827.729 445.782 827.729L452.262 827.585C454.854 827.489 456.966 826.385 458.598 824.273C460.23 822.161 461.094 819.377 461.19 815.921V773.585C461.19 769.937 460.374 767.057 458.742 764.945C457.11 762.833 454.902 761.777 452.118 761.777H445.782C445.302 761.777 445.062 762.017 445.062 762.497V827.009Z" fill="white"/>
<path d="M391.973 746.081C391.973 745.601 392.117 745.217 392.405 744.929C392.789 744.545 393.221 744.353 393.701 744.353H410.405C410.885 744.353 411.269 744.545 411.557 744.929C411.941 745.217 412.133 745.601 412.133 746.081V843.425C412.133 843.905 411.941 844.337 411.557 844.721C411.269 845.009 410.885 845.153 410.405 845.153H391.397C390.437 845.153 389.813 844.673 389.525 843.713L371.669 787.985C371.573 787.697 371.381 787.601 371.093 787.697C370.901 787.697 370.805 787.841 370.805 788.129L370.949 843.425C370.949 843.905 370.757 844.337 370.373 844.721C370.085 845.009 369.701 845.153 369.221 845.153H352.517C352.037 845.153 351.605 845.009 351.221 844.721C350.933 844.337 350.789 843.905 350.789 843.425V746.081C350.789 745.601 350.933 745.217 351.221 744.929C351.605 744.545 352.037 744.353 352.517 744.353H371.381C372.341 744.353 372.965 744.833 373.253 745.793L391.253 801.521C391.349 801.809 391.493 801.953 391.685 801.953C391.973 801.857 392.117 801.665 392.117 801.377L391.973 746.081Z" fill="white"/>
<path d="M340.496 760.049C340.496 760.529 340.304 760.961 339.92 761.345C339.632 761.633 339.248 761.777 338.768 761.777H308.672C308.192 761.777 307.952 762.017 307.952 762.497V785.249C307.952 785.729 308.192 785.969 308.672 785.969H325.952C326.432 785.969 326.816 786.161 327.104 786.545C327.488 786.833 327.68 787.217 327.68 787.697V801.665C327.68 802.145 327.488 802.577 327.104 802.961C326.816 803.249 326.432 803.393 325.952 803.393H308.672C308.192 803.393 307.952 803.633 307.952 804.113V827.009C307.952 827.489 308.192 827.729 308.672 827.729H338.768C339.248 827.729 339.632 827.921 339.92 828.305C340.304 828.593 340.496 828.977 340.496 829.457V843.425C340.496 843.905 340.304 844.337 339.92 844.721C339.632 845.009 339.248 845.153 338.768 845.153H289.376C288.896 845.153 288.464 845.009 288.08 844.721C287.792 844.337 287.648 843.905 287.648 843.425V746.081C287.648 745.601 287.792 745.217 288.08 744.929C288.464 744.545 288.896 744.353 289.376 744.353H338.768C339.248 744.353 339.632 744.545 339.92 744.929C340.304 745.217 340.496 745.601 340.496 746.081V760.049Z" fill="white"/>
<path d="M259.611 845.153C258.555 845.153 257.883 844.673 257.595 843.713L246.507 803.969C246.315 803.585 246.075 803.393 245.787 803.393H240.891C240.411 803.393 240.171 803.633 240.171 804.113V843.425C240.171 843.905 239.979 844.337 239.595 844.721C239.307 845.009 238.923 845.153 238.443 845.153H221.595C221.115 845.153 220.683 845.009 220.299 844.721C220.011 844.337 219.867 843.905 219.867 843.425V746.081C219.867 745.601 220.011 745.217 220.299 744.929C220.683 744.545 221.115 744.353 221.595 744.353H250.683C255.963 744.353 260.667 745.649 264.795 748.241C268.923 750.737 272.091 754.289 274.299 758.897C276.603 763.505 277.755 768.785 277.755 774.737C277.755 780.401 276.651 785.393 274.443 789.713C272.331 794.033 269.355 797.393 265.515 799.793C265.323 799.889 265.179 800.033 265.083 800.225C264.987 800.321 264.987 800.465 265.083 800.657L278.331 843.137L278.475 843.713C278.475 844.673 277.947 845.153 276.891 845.153H259.611ZM240.891 761.777C240.411 761.777 240.171 762.017 240.171 762.497V787.121C240.171 787.601 240.411 787.841 240.891 787.841H247.371C250.347 787.841 252.747 786.689 254.571 784.385C256.491 781.985 257.451 778.817 257.451 774.881C257.451 770.849 256.491 767.681 254.571 765.377C252.747 762.977 250.347 761.777 247.371 761.777H240.891Z" fill="white"/>
<path d="M208.38 744.353C208.86 744.353 209.244 744.545 209.532 744.929C209.916 745.217 210.108 745.601 210.108 746.081V760.049C210.108 760.529 209.916 760.961 209.532 761.345C209.244 761.633 208.86 761.777 208.38 761.777H190.38C189.9 761.777 189.66 762.017 189.66 762.497V843.425C189.66 843.905 189.468 844.337 189.084 844.721C188.796 845.009 188.412 845.153 187.932 845.153H171.084C170.604 845.153 170.172 845.009 169.788 844.721C169.5 844.337 169.356 843.905 169.356 843.425V762.497C169.356 762.017 169.116 761.777 168.636 761.777H151.356C150.876 761.777 150.444 761.633 150.06 761.345C149.772 760.961 149.628 760.529 149.628 760.049V746.081C149.628 745.601 149.772 745.217 150.06 744.929C150.444 744.545 150.876 744.353 151.356 744.353H208.38Z" fill="white"/>
<rect x="501.494" y="713.2" width="438.878" height="163.104" rx="20" fill="white"/>
<path d="M872.148 846.304C866.58 846.304 861.684 845.2 857.46 842.992C853.236 840.784 849.972 837.712 847.668 833.776C845.364 829.744 844.212 825.136 844.212 819.952V815.776C844.212 815.296 844.356 814.912 844.644 814.624C845.028 814.24 845.46 814.048 845.94 814.048H862.5C862.98 814.048 863.364 814.24 863.652 814.624C864.036 814.912 864.228 815.296 864.228 815.776V818.944C864.228 821.92 864.996 824.32 866.532 826.144C868.068 827.968 869.988 828.88 872.292 828.88C874.596 828.88 876.516 828.016 878.052 826.288C879.588 824.56 880.356 822.304 880.356 819.52C880.356 816.64 879.396 814.192 877.476 812.176C875.556 810.064 871.812 806.992 866.244 802.96C861.444 799.504 857.556 796.432 854.58 793.744C851.604 791.056 849.06 787.744 846.948 783.808C844.836 779.872 843.78 775.312 843.78 770.128C843.78 761.968 846.324 755.44 851.412 750.544C856.5 745.648 863.22 743.2 871.572 743.2C880.02 743.2 886.788 745.744 891.876 750.832C897.06 755.92 899.652 762.592 899.652 770.848V774.304C899.652 774.784 899.46 775.216 899.076 775.6C898.788 775.888 898.404 776.032 897.924 776.032H881.364C880.884 776.032 880.452 775.888 880.068 775.6C879.78 775.216 879.636 774.784 879.636 774.304V770.416C879.636 767.44 878.868 765.088 877.332 763.36C875.892 761.536 873.972 760.624 871.572 760.624C869.268 760.624 867.396 761.488 865.956 763.216C864.516 764.848 863.796 767.152 863.796 770.128C863.796 773.008 864.708 775.552 866.532 777.76C868.356 779.968 871.956 783.04 877.332 786.976C883.284 791.392 887.748 794.992 890.724 797.776C893.796 800.464 896.148 803.488 897.78 806.848C899.508 810.112 900.372 814.048 900.372 818.656C900.372 827.104 897.78 833.824 892.596 838.816C887.412 843.808 880.596 846.304 872.148 846.304Z" fill="#FF4F00"/>
<path d="M834.741 744.353C835.221 744.353 835.605 744.545 835.893 744.929C836.277 745.217 836.469 745.601 836.469 746.081V760.049C836.469 760.529 836.277 760.961 835.893 761.345C835.605 761.633 835.221 761.777 834.741 761.777H816.741C816.261 761.777 816.021 762.017 816.021 762.497V843.425C816.021 843.905 815.829 844.337 815.445 844.721C815.157 845.009 814.773 845.153 814.293 845.153H797.445C796.965 845.153 796.533 845.009 796.149 844.721C795.861 844.337 795.717 843.905 795.717 843.425V762.497C795.717 762.017 795.477 761.777 794.997 761.777H777.717C777.237 761.777 776.805 761.633 776.421 761.345C776.133 760.961 775.989 760.529 775.989 760.049V746.081C775.989 745.601 776.133 745.217 776.421 744.929C776.805 744.545 777.237 744.353 777.717 744.353H834.741Z" fill="#FF4F00"/>
<path d="M745.826 746.081C745.826 745.601 745.97 745.217 746.258 744.929C746.642 744.545 747.074 744.353 747.554 744.353H764.402C764.882 744.353 765.266 744.545 765.554 744.929C765.938 745.217 766.13 745.601 766.13 746.081V843.425C766.13 843.905 765.938 844.337 765.554 844.721C765.266 845.009 764.882 845.153 764.402 845.153H747.554C747.074 845.153 746.642 845.009 746.258 844.721C745.97 844.337 745.826 843.905 745.826 843.425V804.113C745.826 803.633 745.586 803.393 745.106 803.393H730.706C730.226 803.393 729.986 803.633 729.986 804.113V843.425C729.986 843.905 729.794 844.337 729.41 844.721C729.122 845.009 728.738 845.153 728.258 845.153H711.41C710.93 845.153 710.498 845.009 710.114 844.721C709.826 844.337 709.682 843.905 709.682 843.425V746.081C709.682 745.601 709.826 745.217 710.114 744.929C710.498 744.545 710.93 744.353 711.41 744.353H728.258C728.738 744.353 729.122 744.545 729.41 744.929C729.794 745.217 729.986 745.601 729.986 746.081V785.249C729.986 785.729 730.226 785.969 730.706 785.969H745.106C745.586 785.969 745.826 785.729 745.826 785.249V746.081Z" fill="#FF4F00"/>
<path d="M669.679 846.304C661.039 846.304 654.079 843.856 648.799 838.96C643.615 833.968 641.023 827.344 641.023 819.088V770.416C641.023 762.16 643.615 755.584 648.799 750.688C654.079 745.696 661.039 743.2 669.679 743.2C678.319 743.2 685.279 745.696 690.559 750.688C695.839 755.68 698.479 762.304 698.479 770.56V776.032C698.479 776.512 698.287 776.944 697.903 777.328C697.615 777.616 697.231 777.76 696.751 777.76H679.903C679.423 777.76 678.991 777.616 678.607 777.328C678.319 776.944 678.175 776.512 678.175 776.032V770.272C678.175 767.392 677.407 765.088 675.871 763.36C674.335 761.536 672.271 760.624 669.679 760.624C667.183 760.624 665.167 761.536 663.631 763.36C662.095 765.088 661.327 767.392 661.327 770.272V819.232C661.327 822.112 662.095 824.464 663.631 826.288C665.167 828.016 667.183 828.88 669.679 828.88C672.271 828.88 674.335 828.016 675.871 826.288C677.407 824.464 678.175 822.112 678.175 819.232V807.712C678.175 807.232 677.935 806.992 677.455 806.992H671.119C670.639 806.992 670.207 806.848 669.823 806.56C669.535 806.176 669.391 805.744 669.391 805.264V792.448C669.391 791.968 669.535 791.584 669.823 791.296C670.207 790.912 670.639 790.72 671.119 790.72H696.751C697.231 790.72 697.615 790.912 697.903 791.296C698.287 791.584 698.479 791.968 698.479 792.448V819.088C698.479 827.344 695.839 833.968 690.559 838.96C685.279 843.856 678.319 846.304 669.679 846.304Z" fill="#FF4F00"/>
<path d="M611.003 845.153C610.523 845.153 610.091 845.009 609.707 844.721C609.419 844.337 609.275 843.905 609.275 843.425V746.081C609.275 745.601 609.419 745.217 609.707 744.929C610.091 744.545 610.523 744.353 611.003 744.353H627.851C628.331 744.353 628.715 744.545 629.003 744.929C629.387 745.217 629.579 745.601 629.579 746.081V843.425C629.579 843.905 629.387 844.337 629.003 844.721C628.715 845.009 628.331 845.153 627.851 845.153H611.003Z" fill="#FF4F00"/>
<path d="M581.238 845.153C580.182 845.153 579.51 844.673 579.222 843.713L568.134 803.969C567.942 803.585 567.702 803.393 567.414 803.393H562.518C562.038 803.393 561.798 803.633 561.798 804.113V843.425C561.798 843.905 561.606 844.337 561.222 844.721C560.934 845.009 560.55 845.153 560.07 845.153H543.222C542.742 845.153 542.31 845.009 541.926 844.721C541.638 844.337 541.494 843.905 541.494 843.425V746.081C541.494 745.601 541.638 745.217 541.926 744.929C542.31 744.545 542.742 744.353 543.222 744.353H572.31C577.59 744.353 582.294 745.649 586.422 748.241C590.55 750.737 593.718 754.289 595.926 758.897C598.23 763.505 599.382 768.785 599.382 774.737C599.382 780.401 598.278 785.393 596.07 789.713C593.958 794.033 590.982 797.393 587.142 799.793C586.95 799.889 586.806 800.033 586.71 800.225C586.614 800.321 586.614 800.465 586.71 800.657L599.958 843.137L600.102 843.713C600.102 844.673 599.574 845.153 598.518 845.153H581.238ZM562.518 761.777C562.038 761.777 561.798 762.017 561.798 762.497V787.121C561.798 787.601 562.038 787.841 562.518 787.841H568.998C571.974 787.841 574.374 786.689 576.198 784.385C578.118 781.985 579.078 778.817 579.078 774.881C579.078 770.849 578.118 767.681 576.198 765.377C574.374 762.977 571.974 761.777 568.998 761.777H562.518Z" fill="#FF4F00"/>
</svg>
