<svg width="500" height="500" viewBox="0 0 500 500" fill="none" xmlns="http://www.w3.org/2000/svg">
<path d="M250 500C388.071 500 500 388.071 500 250C500 111.929 388.071 0 250 0C111.929 0 0 111.929 0 250C0 388.071 111.929 500 250 500Z" fill="#EF5223"/>
<path d="M357.914 201.198C357.914 201.198 378.154 211.854 397.602 225.726H397.584C399.148 234.492 399.937 243.379 399.942 252.283C399.971 273.418 395.514 294.319 386.867 313.604C379.028 302.077 379.395 294.012 379.797 285.192C379.829 284.48 379.862 283.762 379.89 283.038C380.475 268.472 381.999 260.637 384.48 256.651C386.961 252.665 392.268 240.755 384.433 234.292C376.598 227.83 362.088 212.354 362.088 212.354L355.06 202.891C356.074 202.44 357.032 201.872 357.914 201.198Z" fill="white"/>
<path d="M191.49 331.661C192.348 333.432 192.971 334.717 193.22 335.217V335.198C193.573 335.903 194.747 337.54 196.383 339.822C200.856 346.059 208.783 357.114 212.824 367.108C217.645 379.019 214.074 394.014 213.093 397.641C184.705 390.437 159.052 375.069 139.305 353.439C150.145 335.599 161.055 317.693 162.084 316.226C162.969 314.961 164.122 314.368 165.448 313.686C167.251 312.759 169.374 311.667 171.584 308.495C172.947 306.533 173.631 303.934 173.942 301.217C175.937 303.174 177.801 305.056 178.466 305.887C179.82 307.585 187.813 324.075 191.49 331.661Z" fill="white"/>
<path d="M179.564 156.387C174.009 157.405 169.258 158.275 167.197 158.156V158.137C161.664 157.816 138.971 164.377 138.971 164.377C138.971 164.377 133.593 165.486 126.659 166.981C153.725 127.929 198.914 102.358 249.999 102.358C301.084 102.358 346.197 127.882 373.277 166.896C366.574 165.457 361.442 164.396 361.442 164.396C361.442 164.396 338.744 157.835 333.211 158.156C331.151 158.275 326.408 157.404 320.862 156.384C311.513 154.667 299.88 152.529 294.956 154.009C287.112 156.368 257.645 179.462 255.286 183.726C252.928 187.99 250.06 206.962 250.291 210.84C250.311 211.139 250.358 211.436 250.433 211.726C250.456 211.792 250.475 211.854 250.499 211.915C250.381 212.476 250.282 213.019 250.206 213.538C250.126 213.019 250.027 212.476 249.909 211.915C249.924 211.879 249.938 211.843 249.951 211.806C249.96 211.78 249.968 211.753 249.975 211.726C250.052 211.436 250.099 211.139 250.117 210.84C250.348 206.962 247.475 188.009 245.121 183.726C242.768 179.443 213.31 156.344 205.456 154.009C200.531 152.545 188.909 154.674 179.564 156.387Z" fill="white"/>
<path d="M102.334 226.061C121.928 212.028 142.489 201.212 142.489 201.212C143.372 201.886 144.329 202.454 145.343 202.906L138.315 212.368C138.315 212.368 123.801 227.84 115.956 234.292C108.112 240.745 113.419 252.665 115.909 256.651C118.4 260.637 119.923 268.472 120.499 283.038C120.527 283.762 120.56 284.48 120.593 285.192C120.999 294.105 121.37 302.249 113.277 313.972C104.526 294.586 100.013 273.557 100.041 252.288C100.041 243.495 100.808 234.72 102.334 226.061Z" fill="white"/>
<path d="M326.452 301.217C326.768 303.939 327.452 306.533 328.81 308.495L328.824 308.49C331.032 311.662 333.156 312.756 334.957 313.685C336.284 314.368 337.437 314.962 338.32 316.231C339.343 317.693 350.154 335.429 360.937 353.179C341.25 374.85 315.648 390.282 287.291 397.571C286.268 393.783 282.805 378.924 287.579 367.132C291.611 357.151 299.519 346.115 303.993 339.871C305.638 337.575 306.819 335.927 307.173 335.217C307.422 334.717 308.046 333.43 308.904 331.659C312.582 324.07 320.574 307.581 321.928 305.887C322.598 305.056 324.456 303.174 326.452 301.217Z" fill="white"/>
<path fill-rule="evenodd" clip-rule="evenodd" d="M314.077 289.187C310.342 292.992 301.432 302.07 300.47 302.651C299.952 302.963 297.374 305.378 294.543 308.03C290.875 311.465 286.782 315.299 286.197 315.472C285.159 315.778 256.965 333.566 251.932 353.755C250.621 358.943 250.107 364.83 250.046 370.736C249.975 364.854 249.451 358.943 248.159 353.755C243.135 333.566 214.933 315.778 213.89 315.472C213.291 315.295 209.048 311.332 205.322 307.852C202.566 305.278 200.093 302.968 199.588 302.651C198.711 302.101 191.234 294.507 187.088 290.296C185.615 288.8 184.563 287.731 184.376 287.556C184.106 287.305 182.597 285.472 180.646 283.102C177.446 279.215 173.057 273.884 170.994 271.712C167.673 268.217 166.446 271.439 166.531 271.623C164.324 266.613 162.013 261.717 160.267 258.415C155.673 249.698 158.664 238.604 158.664 238.604C163.168 235.009 163.975 225.104 163.975 225.104C166.833 223.052 173.23 215.613 173.23 215.613C195.64 201.113 191.579 195.486 191.579 195.486C195.951 196.556 198.489 195.67 198.489 195.67C198.286 196.623 204.079 198.953 215.305 200.764C225.845 202.465 226.602 199.242 226.655 198.842C226.519 200.459 229.197 201.429 229.197 201.429C227.961 206.368 232.564 213.424 233.914 215.236C234.466 215.977 234.296 217.505 234.073 219.506C233.751 222.392 233.32 226.263 234.791 230.174C237.281 236.797 244.616 234.882 246.461 234.108C248.031 233.453 249.489 226.146 250.031 221.108C250.569 226.146 252.031 233.453 253.597 234.108C255.442 234.891 262.782 236.797 265.267 230.174C266.732 226.271 266.302 222.409 265.98 219.524C265.756 217.515 265.585 215.979 266.145 215.236C267.508 213.424 272.098 206.368 270.862 201.429C270.862 201.429 273.539 200.459 273.403 198.842C273.456 199.242 274.212 202.488 284.753 200.764C295.975 198.929 301.772 196.613 301.569 195.67C301.569 195.67 304.107 196.556 308.48 195.486C308.48 195.486 304.418 201.113 326.829 215.613C326.829 215.613 333.22 223.052 336.083 225.104C336.083 225.104 336.895 235 341.395 238.604C341.395 238.604 344.39 249.703 339.791 258.415C338.05 261.717 335.734 266.599 333.531 271.623C333.612 271.434 332.39 268.217 329.065 271.712C326.92 273.966 322.269 279.615 319.047 283.528C317.273 285.683 315.932 287.312 315.682 287.556C315.548 287.688 314.956 288.291 314.077 289.187ZM284.983 287.417C285.064 287.291 285.669 286.218 284.102 284.448C282.829 283.033 283.206 280.519 283.461 279.41C283.416 279.474 283.372 279.537 283.328 279.601C283.219 279.759 283.11 279.917 282.989 280.075C281.885 281.703 280.895 283.405 280.027 285.17C280.988 285.37 281.886 285.799 282.646 286.421C283.405 287.042 284.004 287.838 284.39 288.74C285.805 291.981 281.513 294.349 281.513 294.349C281.513 294.349 282.093 290.74 280.381 289.071C280.016 288.715 279.745 288.275 279.591 287.79C279.436 287.304 279.403 286.789 279.494 286.288C278.68 288.075 278.048 289.94 277.607 291.854C277.607 291.854 280.046 293.74 279.314 295.679C278.927 296.705 277.319 298.051 275.864 299.27C274.57 300.353 273.396 301.335 273.31 301.901C273.31 301.901 271.819 295.222 274.692 293.165C276.107 292.156 276.829 291.821 277.206 291.75C277.599 290.051 278.144 288.39 278.833 286.788C278.564 287.179 278.208 287.503 277.792 287.732C277.376 287.961 276.912 288.09 276.437 288.108C274.05 288.231 272.093 291.316 272.093 291.316C272.093 291.316 270.442 286.698 273.654 285.212C274.561 284.781 275.562 284.581 276.565 284.631C277.569 284.681 278.544 284.98 279.404 285.5C280.332 283.551 281.404 281.675 282.612 279.887C281.895 280.571 279.781 282.401 277.739 281.972C275.267 281.443 274.711 282.684 274.711 282.684C274.711 282.684 275.112 278.066 278.206 277.693C279.073 277.579 279.954 277.693 280.763 278.024C281.573 278.354 282.281 278.891 282.819 279.58C283.969 277.9 285.208 276.283 286.532 274.736C285.974 274.599 285.391 274.599 284.833 274.736C284.635 274.81 284.432 275.012 284.177 275.265C283.276 276.162 281.723 277.708 277.399 276.542C277.399 276.542 271.267 282.278 268.088 290.344C264.909 298.41 258.14 306.292 248.253 297.67C248.253 297.67 242.678 299.278 244.659 307.42C246.64 315.561 243.531 319.457 242.013 315.976C242.013 315.976 238.711 322.887 236.263 315.094C236.263 315.094 231.72 320.363 231.178 312.561C231.178 312.561 225.569 315.146 227.343 309.028C227.343 309.028 220.848 309.792 225.225 303.891C225.225 303.891 219.338 300.854 224.348 297.717C226.296 296.497 227.859 296.317 229.521 296.126C232.133 295.826 234.989 295.497 239.97 291.061C248.121 283.802 247.272 283.83 247.272 283.83C247.272 283.83 243.555 284.174 245.385 281.873C245.385 281.873 233.432 287.231 236.687 275.429C236.687 275.429 223.895 272.042 230.513 266.023C230.513 266.023 217.437 259.24 225.616 256.174C225.616 256.174 217.513 249.165 222.829 249.014C222.829 249.014 217.711 242.104 222.315 241.542C222.315 241.542 219.782 232.698 221.81 233.92C222.363 234.253 222.915 235.236 223.675 236.588C225.703 240.198 229.207 246.434 238.126 249.924C250.385 254.722 252.107 257.339 254.093 263.476C254.233 263.908 254.369 264.346 254.504 264.784C255.122 266.778 255.742 268.78 256.81 270.25C258.39 268.745 257.937 267.797 257.937 267.797C253.112 256.198 258.565 259.151 258.565 259.151C257.947 258.283 257.39 256.023 257.39 256.023C255.447 247.156 261.461 252.674 261.461 252.674C259.739 240.745 265.093 244.707 265.093 244.707C264.107 233.962 269.81 240.387 269.81 240.387C270.956 229.656 280.315 227.957 280.315 227.957C273.885 232.137 272.8 243.396 272.829 254.528C272.857 265.66 267.64 270.486 267.64 270.486C267.465 270.679 267.296 270.863 267.121 271.033C268.391 270.469 269.63 269.84 270.833 269.146C284.546 261.321 286.074 266.651 286.602 270.707C286.733 271.817 286.921 272.919 287.164 274.009C288.788 272.131 290.534 270.362 292.39 268.712L292.659 269.023C290.751 270.721 288.959 272.544 287.296 274.481C287.442 274.953 287.527 275.009 287.527 275.009C287.527 275.009 287.3 274.934 286.975 274.854C285.862 276.146 284.81 277.49 283.819 278.873C284.656 279.022 285.441 279.382 286.1 279.917C286.76 280.452 287.274 281.146 287.593 281.934C288.739 284.692 285.263 287.219 284.983 287.417Z" fill="white"/>
<path d="M273.399 198.802C273.401 198.815 273.402 198.828 273.403 198.842C273.4 198.816 273.399 198.802 273.399 198.802Z" fill="white"/>
<path d="M226.659 198.802C226.659 198.802 226.658 198.816 226.655 198.842C226.656 198.829 226.657 198.815 226.659 198.802Z" fill="white"/>
<path d="M198.314 421.453C201.948 422.512 204.815 423.899 206.917 425.616C209.008 427.368 210.427 429.261 211.176 431.292C211.924 433.324 212.059 435.295 211.581 437.205C211.496 437.496 211.313 437.718 211.031 437.873C210.703 438.053 210.375 438.096 210.048 438L203.181 435.999C202.672 435.85 202.317 435.648 202.116 435.393C201.878 435.126 201.692 434.816 201.559 434.462C201.427 433.832 201.181 433.188 200.821 432.531C200.424 431.864 199.855 431.245 199.115 430.674C198.328 430.129 197.298 429.672 196.026 429.301C193.919 428.687 192.243 428.553 190.999 428.9C189.718 429.236 188.914 429.968 188.585 431.094C188.352 431.893 188.452 432.632 188.885 433.31C189.308 434.025 190.115 434.772 191.307 435.553C192.451 436.36 194.032 437.294 196.049 438.355C198.641 439.741 200.785 441.174 202.483 442.655C204.133 444.161 205.25 445.807 205.833 447.593C206.406 449.416 206.363 451.453 205.707 453.706C205.061 455.923 203.866 457.723 202.122 459.107C200.342 460.48 198.183 461.329 195.644 461.654C193.105 461.978 190.292 461.69 187.203 460.79C184.696 460.059 182.593 459.091 180.894 457.887C179.159 456.671 177.796 455.328 176.806 453.857C175.816 452.385 175.173 450.937 174.88 449.511C174.539 448.11 174.52 446.823 174.822 445.65C174.907 445.359 175.095 445.119 175.387 444.928C175.669 444.773 175.973 444.744 176.3 444.839L183.495 446.936C183.894 447.053 184.218 447.226 184.467 447.456C184.715 447.686 184.9 447.996 185.023 448.387C185.008 449.25 185.388 450.11 186.164 450.966C186.892 451.849 188.001 452.507 189.491 452.941C191.089 453.407 192.428 453.482 193.506 453.166C194.536 452.875 195.221 452.148 195.56 450.985C195.772 450.259 195.721 449.554 195.408 448.871C195.058 448.178 194.378 447.467 193.368 446.739C192.322 446.001 190.863 445.122 188.992 444.103C185.865 442.522 183.422 440.962 181.663 439.425C179.893 437.923 178.753 436.29 178.242 434.525C177.721 432.796 177.784 430.823 178.43 428.607C179.15 426.136 180.483 424.199 182.43 422.795C184.33 421.417 186.652 420.616 189.399 420.391C192.145 420.167 195.117 420.521 198.314 421.453Z" fill="white"/>
<path d="M180.897 416.633C181.164 416.775 181.362 417.008 181.489 417.333C181.566 417.673 181.533 417.977 181.391 418.245C181.303 418.412 181.206 418.553 181.102 418.669L152.239 444.617C151.943 444.932 151.574 445.143 151.131 445.251C150.637 445.374 150.106 445.285 149.538 444.984L142.115 441.047C141.547 440.746 141.192 440.365 141.051 439.904C140.858 439.459 140.809 439.026 140.904 438.605L146.245 400.182C146.249 400.013 146.295 399.845 146.384 399.678C146.526 399.41 146.776 399.222 147.134 399.112C147.441 399.018 147.745 399.05 148.046 399.21L154.215 402.482C154.717 402.748 155.039 403.069 155.182 403.445C155.275 403.836 155.301 404.15 155.261 404.386L154.504 410.539L167.895 417.641L172.514 413.536C172.687 413.371 172.962 413.217 173.338 413.074C173.696 412.964 174.159 413.06 174.728 413.361L180.897 416.633ZM162.008 423.773L152.68 418.825L150.372 434.566L162.008 423.773Z" fill="white"/>
<path d="M144.975 396.503C145.262 396.749 145.435 397.071 145.493 397.469C145.522 397.843 145.401 398.188 145.131 398.504L121.145 426.549C120.875 426.865 120.552 427.038 120.179 427.067C119.777 427.072 119.432 426.951 119.144 426.705L114.484 422.72C114.024 422.326 113.79 421.901 113.781 421.446C113.719 420.994 113.721 420.672 113.786 420.479L117.853 400.35L98.5986 407.49C98.3894 407.56 98.0856 407.624 97.6875 407.682C97.236 407.744 96.7657 407.566 96.2767 407.147L91.6601 403.199C91.3437 402.928 91.1709 402.606 91.1418 402.233C91.0839 401.835 91.1902 401.477 91.4608 401.161L115.447 373.116C115.717 372.8 116.054 372.639 116.456 372.635C116.829 372.606 117.174 372.726 117.491 372.997L122.625 377.388C122.942 377.659 123.129 377.993 123.187 378.391C123.216 378.765 123.095 379.11 122.824 379.426L108.987 395.606L121.574 390.758C121.911 390.598 122.28 390.515 122.683 390.511C123.085 390.506 123.487 390.676 123.89 391.02L126.134 392.939C126.536 393.284 126.767 393.655 126.825 394.053C126.882 394.451 126.873 394.841 126.795 395.223L123.958 408.411L137.796 392.231C138.067 391.914 138.389 391.742 138.762 391.713C139.136 391.683 139.481 391.804 139.797 392.075L144.975 396.503Z" fill="white"/>
<path d="M113.301 366.888C113.552 367.22 113.652 367.572 113.6 367.943C113.549 368.314 113.357 368.625 113.025 368.876L83.5892 391.13C83.2571 391.381 82.9055 391.481 82.5344 391.429C82.1633 391.378 81.8522 391.186 81.6011 390.854L65.6126 369.705C65.3615 369.373 65.2617 369.022 65.3133 368.651C65.3649 368.279 65.5567 367.968 65.8888 367.717L70.1456 364.499C70.4777 364.248 70.8293 364.148 71.2004 364.2C71.5715 364.251 71.8826 364.443 72.1337 364.775L83.0552 379.221L89.1687 374.599L79.0004 361.15C78.7494 360.818 78.6647 360.455 78.7464 360.061C78.798 359.689 78.9898 359.378 79.3219 359.127L83.2618 356.149C83.5637 355.92 83.9153 355.821 84.3166 355.849C84.6877 355.901 84.9988 356.093 85.2498 356.425L95.4181 369.875L101.713 365.116L90.5174 350.307C90.2663 349.975 90.1666 349.624 90.2181 349.253C90.2697 348.882 90.4615 348.57 90.7936 348.319L95.0505 345.101C95.3825 344.85 95.7341 344.75 96.1053 344.802C96.4764 344.853 96.7874 345.045 97.0385 345.377L113.301 366.888Z" fill="white"/>
<path d="M93.6049 339.221C93.785 339.597 93.813 339.961 93.6888 340.315C93.5646 340.668 93.3148 340.935 92.9395 341.115L59.6721 357.083C59.2968 357.263 58.9324 357.291 58.5789 357.167C58.2254 357.042 57.9586 356.793 57.7784 356.417L55.1745 350.992C54.8961 350.412 54.836 349.937 54.9944 349.567C55.1022 349.18 55.208 348.919 55.3117 348.785L69.0222 326.839L49.6248 336.15C49.2494 336.33 48.885 336.358 48.5316 336.234C48.1781 336.109 47.9113 335.86 47.7311 335.484L44.7832 329.343C44.6031 328.967 44.5751 328.603 44.6993 328.249C44.8235 327.896 45.0733 327.629 45.4486 327.449L78.716 311.481C79.0572 311.318 79.4216 311.29 79.8092 311.397C80.1627 311.522 80.4295 311.771 80.6097 312.147L83.2382 317.623C83.5002 318.169 83.5603 318.644 83.4183 319.048C83.26 319.418 83.146 319.661 83.0764 319.779L70.1336 341.356L88.7634 332.414C89.1387 332.234 89.5031 332.206 89.8566 332.33C90.2101 332.455 90.4769 332.704 90.657 333.08L93.6049 339.221Z" fill="white"/>
<path d="M73.0072 280.77C73.1082 281.406 73.0201 281.937 72.7431 282.364C72.4661 282.791 72.1152 283.115 71.6905 283.336L37.6251 300.477C37.4501 300.581 37.2879 300.645 37.1384 300.669C36.8393 300.716 36.5599 300.646 36.2999 300.457C35.9967 300.237 35.8184 299.959 35.7649 299.622L34.66 292.67C34.565 292.072 34.6589 291.578 34.9419 291.188C35.2248 290.798 35.5099 290.542 35.797 290.42L60.4437 278.398L33.2754 274.553C32.9586 274.488 32.6082 274.333 32.2243 274.088C31.8344 273.805 31.5919 273.364 31.4969 272.766L30.392 265.814C30.3386 265.478 30.4248 265.176 30.6508 264.911C30.8335 264.613 31.0744 264.441 31.3734 264.393C31.5229 264.37 31.6971 264.38 31.8958 264.425L69.5966 270.16C70.0689 270.239 70.5029 270.438 70.8987 270.758C71.2886 271.041 71.537 271.519 71.6439 272.192L73.0072 280.77Z" fill="white"/>
<path d="M71.2493 239.472C71.0841 242.95 70.3733 245.947 69.117 248.464C67.8608 250.981 66.0644 252.904 63.7279 254.233C61.3535 255.56 58.4427 256.217 54.9953 256.205C53.3679 256.165 51.7414 256.107 50.1158 256.03C48.4902 255.953 46.8466 255.856 45.185 255.739C41.7897 255.426 38.9732 254.496 36.7354 252.95C34.4616 251.365 32.7997 249.259 31.7499 246.632C30.7001 244.006 30.2569 240.972 30.4204 237.532C30.582 234.13 31.3099 231.171 32.6039 228.656C33.8998 226.103 35.7547 224.145 38.1686 222.782C40.5448 221.417 43.4367 220.759 46.8445 220.807C48.5115 220.811 50.1578 220.851 51.7834 220.928C53.409 221.006 55.0328 221.121 56.6548 221.273C60.0878 221.588 62.9233 222.519 65.1611 224.065C67.3611 225.609 68.9671 227.693 69.9792 230.318C70.9912 232.943 71.4145 235.994 71.2493 239.472ZM63.0835 239.084C63.1787 237.08 62.6511 235.426 61.5006 234.121C60.3519 232.778 58.4562 232.006 55.8135 231.805C54.1537 231.65 52.5866 231.538 51.1122 231.468C49.6378 231.398 48.1049 231.363 46.5135 231.363C44.7331 231.354 43.2804 231.626 42.1553 232.179C40.9943 232.692 40.1248 233.447 39.5471 234.442C38.9693 235.438 38.649 236.597 38.5861 237.92C38.5251 239.206 38.7349 240.371 39.2157 241.417C39.6965 242.463 40.4896 243.315 41.595 243.974C42.6626 244.631 44.083 245.039 45.8562 245.199C47.4422 245.313 48.9724 245.404 50.4468 245.474C51.9211 245.544 53.4909 245.6 55.1561 245.641C57.8078 245.654 59.7682 245.065 61.0372 243.875C62.3062 242.685 62.9883 241.088 63.0835 239.084Z" fill="white"/>
<path d="M77.2858 202.681C76.401 206.049 75.0826 208.833 73.3305 211.033C71.5784 213.234 69.4215 214.741 66.8597 215.555C64.2614 216.36 61.2775 216.398 57.9079 215.669C56.3243 215.292 54.7455 214.897 53.1715 214.483C51.5974 214.07 50.0099 213.633 48.4089 213.173C45.1529 212.161 42.5912 210.667 40.7237 208.689C38.8293 206.665 37.6417 204.26 37.1608 201.472C36.68 198.685 36.8772 195.626 37.7523 192.295C38.6178 189 39.9449 186.258 41.7336 184.067C43.532 181.839 45.7534 180.309 48.398 179.478C51.0059 178.637 53.9716 178.594 57.2949 179.35C58.9247 179.7 60.5267 180.082 62.1007 180.495C63.6747 180.909 65.2391 181.359 66.7939 181.846C70.0865 182.867 72.6665 184.367 74.534 186.345C76.3648 188.313 77.5024 190.685 77.9466 193.463C78.3908 196.241 78.1705 199.313 77.2858 202.681ZM69.3791 200.604C69.8888 198.664 69.7166 196.936 68.8626 195.42C68.0182 193.868 66.3245 192.718 63.7813 191.972C62.1899 191.476 60.6805 191.04 59.2529 190.665C57.8253 190.29 56.3331 189.937 54.7765 189.606C53.0368 189.227 51.5593 189.192 50.3439 189.498C49.1015 189.759 48.0942 190.316 47.3221 191.17C46.5499 192.023 45.9956 193.091 45.659 194.372C45.332 195.617 45.295 196.8 45.5478 197.923C45.8006 199.046 46.3991 200.045 47.3434 200.919C48.2511 201.784 49.5555 202.479 51.2567 203.004C52.7845 203.444 54.2622 203.852 55.6898 204.227C57.1174 204.602 58.6413 204.983 60.2616 205.369C62.8528 205.933 64.8927 205.764 66.3815 204.864C67.8702 203.964 68.8694 202.544 69.3791 200.604Z" fill="white"/>
<path d="M81.6925 179.889C81.5051 180.259 81.2339 180.503 80.8789 180.619C80.5239 180.736 80.1612 180.701 79.7906 180.513L46.9487 163.908C46.5782 163.72 46.3346 163.449 46.2181 163.094C46.1015 162.739 46.1369 162.376 46.3242 162.006L53.273 148.263C55.47 143.918 58.2092 141.01 61.4905 139.539C64.7553 138.017 68.2234 138.185 71.8949 140.041C74.2865 141.25 76.0095 142.862 77.0639 144.875C78.1354 146.855 78.6153 149.001 78.5036 151.313L94.4585 150.625C94.7117 150.626 94.9225 150.669 95.0909 150.754C95.3604 150.891 95.5534 151.136 95.67 151.491C95.7699 151.796 95.7432 152.099 95.59 152.403L92.2178 159.072C91.8942 159.712 91.5042 160.107 91.0477 160.257C90.5576 160.39 90.1437 160.455 89.8061 160.454L75.7781 160.593L73.1467 165.798L84.3635 171.469C84.734 171.656 84.9776 171.928 85.0942 172.283C85.2107 172.638 85.1753 173 84.988 173.371L81.6925 179.889ZM66.0226 162.196L68.986 156.334C69.7865 154.751 69.9952 153.377 69.6122 152.21C69.2462 151.01 68.3895 150.069 67.0422 149.388C65.7285 148.724 64.4716 148.575 63.2715 148.941C62.0883 149.273 61.0795 150.264 60.245 151.915L57.2816 157.776L66.0226 162.196Z" fill="white"/>
<path d="M116.586 129.854C116.149 130.326 115.676 130.585 115.169 130.631C114.662 130.677 114.191 130.601 113.755 130.404L79.2327 114.203C79.0424 114.13 78.8918 114.042 78.7807 113.939C78.5586 113.733 78.4415 113.47 78.4293 113.149C78.415 112.774 78.5236 112.462 78.7552 112.212L83.54 107.049C83.9515 106.605 84.398 106.373 84.8794 106.355C85.3608 106.337 85.7382 106.403 86.0117 106.553L110.691 118.509L96.9319 94.7686C96.787 94.4795 96.6925 94.1082 96.6484 93.6546C96.6301 93.1732 96.8267 92.7104 97.2383 92.2663L102.023 87.1028C102.255 86.853 102.545 86.7348 102.893 86.7483C103.24 86.7083 103.524 86.7912 103.746 86.997C103.858 87.0999 103.957 87.2434 104.044 87.4276L122.823 120.618C123.053 121.038 123.164 121.502 123.157 122.011C123.175 122.493 122.953 122.983 122.49 123.483L116.586 129.854Z" fill="white"/>
<path d="M134.304 109.249C133.967 109.491 133.614 109.581 133.246 109.52C132.878 109.459 132.573 109.26 132.331 108.923L110.929 79.0329C110.687 78.6957 110.597 78.343 110.658 77.9747C110.719 77.6064 110.918 77.3016 111.255 77.0601L123.763 68.104C127.717 65.2722 131.488 63.9638 135.073 64.1788C138.668 64.3412 141.661 66.0931 144.054 69.4347C145.612 71.6113 146.393 73.8348 146.396 76.1052C146.429 78.3537 145.862 80.4758 144.694 82.4715L159.14 89.2397C159.363 89.3578 159.53 89.4935 159.64 89.6468C159.815 89.892 159.873 90.1988 159.812 90.567C159.76 90.8827 159.595 91.1393 159.32 91.3369L153.25 95.6832C152.667 96.1003 152.139 96.2697 151.666 96.1913C151.17 96.0823 150.773 95.9491 150.475 95.7917L137.989 89.4288L133.253 92.8203L140.562 103.029C140.804 103.366 140.894 103.719 140.833 104.087C140.772 104.455 140.573 104.76 140.236 105.002L134.304 109.249ZM128.61 86.3365L133.944 82.5169C135.385 81.4852 136.205 80.3644 136.406 79.1544C136.637 77.9225 136.313 76.6934 135.435 75.4671C134.579 74.2715 133.535 73.5583 132.303 73.3274C131.102 73.0746 129.75 73.486 128.248 74.5616L122.914 78.3812L128.61 86.3365Z" fill="white"/>
<path d="M167.045 90.688C166.673 90.8749 166.309 90.9094 165.953 90.7915C165.598 90.6737 165.326 90.4288 165.14 90.0568L148.576 57.0817C148.39 56.7097 148.355 56.3459 148.473 55.9902C148.591 55.6346 148.836 55.3633 149.208 55.1764L156.006 51.7619C156.378 51.575 156.742 51.5405 157.097 51.6583C157.453 51.7762 157.724 52.0211 157.911 52.3931L174.474 85.3681C174.661 85.7402 174.695 86.104 174.578 86.4597C174.46 86.8153 174.215 87.0866 173.843 87.2735L167.045 90.688Z" fill="white"/>
<path d="M195.007 76.9744C192.958 77.6431 190.916 78.0309 188.882 78.1376C186.873 78.1967 184.979 77.9395 183.2 77.3661C181.422 76.7927 179.849 75.8738 178.481 74.6093C177.15 73.3331 176.114 71.682 175.373 69.6561C175.268 69.3325 175.288 69.0276 175.433 68.7415C175.566 68.4194 175.813 68.1997 176.173 68.0824L183.453 65.7065C183.957 65.5423 184.375 65.5449 184.709 65.7145C185.079 65.8723 185.436 66.1735 185.78 66.6183C186.288 67.5663 186.9 68.2818 187.614 68.7648C188.317 69.2117 189.099 69.4738 189.959 69.551C190.844 69.5806 191.772 69.4369 192.743 69.1201C194.541 68.5335 195.737 67.5065 196.333 66.0392C196.916 64.5359 196.838 62.6517 196.099 60.3865L191.013 44.8001L173.539 50.5021C173.179 50.6195 172.815 50.5992 172.445 50.4414C172.111 50.2718 171.88 49.9893 171.751 49.5938L170.008 44.2545C169.879 43.859 169.9 43.4944 170.069 43.1605C170.275 42.815 170.557 42.5836 170.917 42.4662L197.02 33.9483C197.416 33.8193 197.78 33.8395 198.114 34.0091C198.484 34.1669 198.733 34.4436 198.862 34.8391L206.219 57.3828C207.239 60.5108 207.419 63.3764 206.756 65.9796C206.082 68.5468 204.74 70.7748 202.731 72.6638C200.71 74.5168 198.136 75.9536 195.007 76.9744Z" fill="white"/>
<path d="M217.656 70.5523C217.244 70.5939 216.894 70.4969 216.605 70.2611C216.316 70.0253 216.151 69.7013 216.109 69.2892L212.419 32.7571C212.378 32.345 212.475 31.9945 212.711 31.7057C212.946 31.417 213.27 31.2518 213.682 31.2101L220.933 30.4778C221.345 30.4361 221.695 30.5332 221.984 30.769C222.273 31.0048 222.438 31.3288 222.48 31.7409L223.848 45.2859L237.73 43.8836L236.362 30.3387C236.32 29.9265 236.417 29.5761 236.653 29.2873C236.889 28.9985 237.213 28.8333 237.625 28.7917L244.875 28.0593C245.287 28.0177 245.638 28.1148 245.927 28.3506C246.215 28.5864 246.381 28.9103 246.422 29.3225L250.112 65.8545C250.154 66.2667 250.057 66.6171 249.821 66.9059C249.585 67.1947 249.261 67.3599 248.849 67.4015L241.599 68.1339C241.187 68.1755 240.836 68.0784 240.548 67.8426C240.259 67.6069 240.094 67.2829 240.052 66.8707L238.638 52.8761L224.756 54.2784L226.17 68.273C226.211 68.6851 226.114 69.0356 225.879 69.3244C225.643 69.6131 225.319 69.7783 224.907 69.82L217.656 70.5523Z" fill="white"/>
<path d="M257.145 70.1877C256.73 70.146 256.405 69.9801 256.168 69.69C255.931 69.3999 255.833 69.0478 255.874 68.6335L259.565 31.9175C259.607 31.5033 259.773 31.1776 260.063 30.9405C260.353 30.7034 260.705 30.6057 261.119 30.6473L287.498 33.2989C287.912 33.3405 288.238 33.5064 288.475 33.7965C288.712 34.0866 288.81 34.4388 288.768 34.853L288.235 40.1627C288.193 40.5769 288.027 40.9026 287.737 41.1397C287.447 41.3768 287.095 41.4745 286.681 41.4329L268.662 39.6217L267.895 47.2473L284.671 48.9336C285.086 48.9753 285.409 49.16 285.643 49.4877C285.88 49.7778 285.978 50.13 285.936 50.5442L285.442 55.4585C285.404 55.8351 285.238 56.1608 284.944 56.4355C284.654 56.6726 284.302 56.7704 283.888 56.7287L267.111 55.0424L266.322 62.894L284.793 64.7506C285.207 64.7923 285.533 64.9582 285.77 65.2483C286.007 65.5384 286.105 65.8905 286.063 66.3047L285.53 71.6144C285.488 72.0287 285.322 72.3544 285.032 72.5915C284.742 72.8286 284.39 72.9263 283.976 72.8847L257.145 70.1877Z" fill="white"/>
<path d="M291.677 75.2396C291.274 75.1364 290.977 74.9236 290.786 74.6012C290.595 74.2789 290.551 73.916 290.654 73.5127L299.806 37.7646C299.909 37.3613 300.122 37.0641 300.445 36.8732C300.767 36.6822 301.13 36.6384 301.533 36.7416L308.903 38.6284C309.306 38.7316 309.603 38.9444 309.794 39.2668C309.985 39.5891 310.029 39.952 309.926 40.3553L300.774 76.1034C300.67 76.5067 300.458 76.8039 300.135 76.9948C299.813 77.1857 299.45 77.2296 299.047 77.1263L291.677 75.2396Z" fill="white"/>
<path d="M309.705 79.902C309.322 79.7355 309.061 79.4774 308.924 79.1277C308.786 78.778 308.8 78.4116 308.967 78.0286L323.727 44.0797C323.894 43.6966 324.152 43.4363 324.502 43.2985C324.851 43.1607 325.218 43.1751 325.601 43.3416L339.18 49.2458C342.593 50.7294 345.258 52.5506 347.176 54.7094C349.109 56.8334 350.258 59.2375 350.623 61.9216C351.003 64.5709 350.571 67.4677 349.329 70.6121C348.697 72.1593 348.132 73.5074 347.632 74.6564C347.133 75.8055 346.54 77.121 345.854 78.6031C344.307 81.7808 342.445 84.1591 340.268 85.7381C338.126 87.3322 335.644 88.1369 332.822 88.152C330.05 88.1474 326.958 87.4034 323.546 85.9198L309.705 79.902ZM321.018 75.8781L326.554 78.2852C328.052 78.9362 329.386 79.2473 330.558 79.2185C331.78 79.1701 332.854 78.747 333.78 77.9491C334.742 77.1665 335.595 75.9644 336.342 74.3431C336.85 73.3636 337.279 72.4734 337.627 71.6725C338.01 70.8868 338.358 70.086 338.672 69.27C339.02 68.4692 339.371 67.5661 339.725 66.5609C340.685 64.1629 340.808 62.1668 340.093 60.5727C339.429 58.9589 337.947 57.6524 335.649 56.6533L330.374 54.3597L321.018 75.8781Z" fill="white"/>
<path d="M355.824 104.486C355.503 104.22 355.325 103.9 355.291 103.526C355.257 103.153 355.373 102.806 355.639 102.485L379.256 74.0714C379.522 73.7508 379.842 73.5733 380.216 73.5388C380.589 73.5044 380.936 73.6204 381.257 73.8868L401.671 90.8545C401.992 91.121 402.169 91.441 402.204 91.8145C402.238 92.1881 402.122 92.5351 401.856 92.8557L398.44 96.9648C398.174 97.2853 397.854 97.4628 397.48 97.4973C397.107 97.5317 396.76 97.4157 396.439 97.1493L382.495 85.5589L377.59 91.4603L390.572 102.251C390.893 102.518 391.058 102.852 391.069 103.255C391.103 103.629 390.987 103.976 390.721 104.296L387.56 108.099C387.317 108.391 386.997 108.568 386.6 108.632C386.226 108.666 385.879 108.55 385.558 108.284L372.576 97.4927L367.525 103.569L381.819 115.45C382.14 115.716 382.318 116.036 382.352 116.41C382.386 116.783 382.27 117.131 382.004 117.451L378.589 121.56C378.322 121.881 378.002 122.058 377.629 122.093C377.255 122.127 376.908 122.011 376.587 121.745L355.824 104.486Z" fill="white"/>
<path d="M381.45 126.86C381.188 126.536 381.076 126.186 381.116 125.813C381.156 125.439 381.338 125.121 381.663 124.859L410.446 101.611C410.77 101.349 411.12 101.238 411.493 101.278C411.867 101.317 412.185 101.5 412.447 101.824L416.238 106.518C416.643 107.02 416.811 107.47 416.742 107.867C416.726 108.27 416.683 108.549 416.613 108.703L408.291 133.278L425.074 119.722C425.399 119.46 425.748 119.349 426.121 119.389C426.495 119.428 426.813 119.611 427.075 119.935L431.367 125.249C431.629 125.574 431.74 125.923 431.701 126.297C431.661 126.67 431.479 126.988 431.154 127.25L402.371 150.498C402.076 150.736 401.727 150.848 401.324 150.832C400.95 150.792 400.632 150.61 400.37 150.285L396.543 145.547C396.162 145.075 395.994 144.625 396.039 144.198C396.108 143.801 396.163 143.537 396.204 143.406L403.861 119.368L387.743 132.387C387.418 132.649 387.069 132.76 386.696 132.721C386.322 132.681 386.004 132.499 385.742 132.174L381.45 126.86Z" fill="white"/>
<path d="M415.015 179.035C414.768 178.441 414.729 177.904 414.899 177.423C415.068 176.943 415.334 176.546 415.695 176.232L444.805 151.598C444.95 151.455 445.093 151.355 445.233 151.297C445.513 151.181 445.801 151.184 446.098 151.306C446.444 151.449 446.682 151.678 446.813 151.993L449.514 158.494C449.746 159.053 449.77 159.555 449.587 160C449.403 160.446 449.185 160.761 448.935 160.947L427.785 178.402L455.099 175.784C455.422 175.773 455.799 175.842 456.23 175.99C456.675 176.174 457.014 176.546 457.246 177.105L459.947 183.606C460.077 183.921 460.064 184.234 459.906 184.545C459.798 184.877 459.604 185.101 459.325 185.217C459.185 185.275 459.013 185.305 458.809 185.308L420.813 188.552C420.336 188.587 419.867 188.494 419.407 188.276C418.962 188.092 418.609 187.685 418.347 187.056L415.015 179.035Z" fill="white"/>
<path d="M424.071 204.269C423.99 203.861 424.054 203.501 424.263 203.19C424.471 202.879 424.78 202.683 425.188 202.602L461.389 195.447C461.797 195.366 462.157 195.43 462.468 195.639C462.78 195.847 462.976 196.156 463.056 196.564L468.197 222.573C468.278 222.981 468.214 223.341 468.005 223.653C467.797 223.964 467.488 224.16 467.08 224.241L461.845 225.275C461.436 225.356 461.076 225.292 460.765 225.084C460.454 224.875 460.258 224.567 460.177 224.158L456.666 206.392L449.147 207.878L452.416 224.419C452.497 224.827 452.414 225.191 452.169 225.509C451.96 225.821 451.652 226.017 451.243 226.097L446.398 227.055C446.027 227.128 445.667 227.065 445.319 226.863C445.007 226.655 444.811 226.346 444.731 225.938L441.461 209.397L433.72 210.927L437.319 229.139C437.4 229.547 437.336 229.907 437.128 230.218C436.919 230.53 436.611 230.726 436.202 230.806L430.967 231.841C430.559 231.922 430.199 231.858 429.887 231.649C429.576 231.441 429.38 231.132 429.3 230.724L424.071 204.269Z" fill="white"/>
<path d="M429.815 237.524C429.822 237.107 429.96 236.769 430.229 236.508C430.498 236.248 430.841 236.121 431.257 236.128L468.153 236.726C468.569 236.733 468.908 236.871 469.168 237.14C469.429 237.41 469.556 237.752 469.549 238.169L469.299 253.608C469.219 258.49 468.022 262.312 465.706 265.076C463.427 267.878 460.225 269.245 456.1 269.178C453.414 269.135 451.154 268.436 449.321 267.081C447.488 265.764 446.115 264.039 445.203 261.904L431.113 269.511C430.884 269.621 430.675 269.674 430.485 269.671C430.183 269.666 429.901 269.529 429.64 269.26C429.417 269.029 429.308 268.743 429.314 268.403L429.435 260.91C429.447 260.191 429.626 259.664 429.972 259.329C430.356 258.995 430.7 258.754 431.006 258.608L443.599 252.339L443.694 246.493L431.092 246.288C430.676 246.281 430.337 246.143 430.077 245.874C429.816 245.605 429.689 245.262 429.696 244.846L429.815 237.524ZM451.697 246.623L451.59 253.207C451.561 254.986 451.975 256.317 452.831 257.202C453.687 258.124 454.872 258.598 456.385 258.622C457.861 258.646 459.06 258.23 459.983 257.375C460.904 256.557 461.38 255.221 461.41 253.367L461.517 246.782L451.697 246.623Z" fill="white"/>
<path d="M428.428 274.329C428.513 273.921 428.712 273.615 429.026 273.409C429.339 273.204 429.7 273.144 430.107 273.229L466.23 280.769C466.637 280.854 466.944 281.053 467.149 281.367C467.354 281.68 467.414 282.041 467.329 282.448L463.791 299.398C463.126 302.584 462.136 305.104 460.822 306.956C459.507 308.808 457.916 310.041 456.048 310.657C454.209 311.317 452.159 311.411 449.899 310.939C448.566 310.661 447.434 310.154 446.505 309.419C445.605 308.728 444.899 307.943 444.387 307.063C443.867 306.22 443.525 305.452 443.36 304.761C442.399 306.029 441.047 307.042 439.304 307.8C437.553 308.594 435.658 308.779 433.621 308.353C431.176 307.843 429.18 306.846 427.633 305.364C426.116 303.926 425.097 302.051 424.574 299.738C424.081 297.47 424.152 294.817 424.786 291.779L428.428 274.329ZM433.866 284.395L432.242 292.175C431.91 293.768 432.121 295.069 432.877 296.077C433.634 297.086 434.604 297.714 435.79 297.961C437.087 298.232 438.269 298.034 439.336 297.367C440.395 296.738 441.087 295.645 441.412 294.089L443.036 286.309L433.866 284.395ZM450.093 287.782L448.574 295.062C448.257 296.581 448.41 297.792 449.033 298.696C449.649 299.636 450.568 300.234 451.791 300.489C452.976 300.736 454.021 300.549 454.924 299.925C455.857 299.347 456.482 298.298 456.799 296.779L458.318 289.499L450.093 287.782Z" fill="white"/>
<path d="M418.912 311.171C419.061 310.782 419.306 310.511 419.648 310.358C419.99 310.205 420.355 310.203 420.744 310.351L455.215 323.521C455.604 323.67 455.875 323.915 456.028 324.257C456.181 324.599 456.183 324.965 456.034 325.354L453.319 332.46C453.171 332.849 452.926 333.12 452.583 333.273C452.241 333.426 451.876 333.428 451.487 333.279L417.016 320.109C416.627 319.961 416.356 319.715 416.204 319.373C416.051 319.031 416.048 318.666 416.197 318.277L418.912 311.171Z" fill="white"/>
<path d="M412.25 328.571C412.458 328.208 412.744 327.978 413.107 327.88C413.47 327.782 413.832 327.837 414.195 328.045L446.298 346.496C446.661 346.704 446.891 346.99 446.989 347.353C447.087 347.716 447.032 348.078 446.824 348.44L443.815 353.676C443.493 354.235 443.134 354.555 442.738 354.634C442.356 354.765 442.081 354.826 441.911 354.816L415.97 355.939L434.689 366.697C435.051 366.905 435.281 367.19 435.379 367.553C435.477 367.916 435.422 368.279 435.214 368.641L431.808 374.568C431.6 374.93 431.314 375.16 430.951 375.258C430.588 375.356 430.225 375.301 429.863 375.093L397.759 356.643C397.43 356.453 397.2 356.168 397.069 355.786C396.971 355.423 397.026 355.06 397.234 354.698L400.271 349.413C400.574 348.887 400.933 348.567 401.348 348.455C401.744 348.376 402.01 348.332 402.147 348.323L427.347 346.774L409.369 336.442C409.007 336.234 408.777 335.948 408.679 335.585C408.581 335.222 408.636 334.86 408.844 334.497L412.25 328.571Z" fill="white"/>
<path d="M392.026 360.579C392.305 360.27 392.632 360.106 393.006 360.087C393.38 360.068 393.722 360.198 394.031 360.477L421.419 385.207C421.728 385.486 421.892 385.812 421.911 386.186C421.93 386.561 421.801 386.902 421.522 387.211L411.63 398.166C409.144 400.919 406.577 402.859 403.928 403.986C401.307 405.138 398.67 405.46 396.018 404.952C393.394 404.469 390.794 403.142 388.218 400.968C386.957 399.88 385.863 398.918 384.936 398.081C384.009 397.244 382.954 396.266 381.771 395.147C379.26 392.676 377.605 390.161 376.804 387.603C375.978 385.072 376.007 382.472 376.889 379.801C377.773 377.183 379.459 374.498 381.944 371.745L392.026 360.579ZM392.235 372.546L388.202 377.013C387.111 378.221 386.394 379.383 386.049 380.499C385.706 381.669 385.765 382.818 386.224 383.947C386.659 385.104 387.523 386.292 388.818 387.513C389.582 388.304 390.287 388.992 390.933 389.575C391.554 390.187 392.2 390.77 392.871 391.325C393.517 391.909 394.259 392.527 395.096 393.181C397.057 394.85 398.904 395.6 400.637 395.431C402.373 395.316 404.078 394.331 405.752 392.477L409.595 388.221L392.235 372.546Z" fill="white"/>
<path d="M364.871 388.182C365.195 387.92 365.545 387.808 365.918 387.848C366.292 387.888 366.61 388.07 366.872 388.395L390.12 417.178C390.382 417.502 390.493 417.852 390.453 418.225C390.414 418.599 390.231 418.917 389.907 419.179L383.973 423.971C383.648 424.234 383.299 424.345 382.926 424.305C382.552 424.265 382.234 424.083 381.972 423.759L358.724 394.976C358.462 394.651 358.351 394.302 358.39 393.928C358.43 393.555 358.612 393.237 358.937 392.975L364.871 388.182Z" fill="white"/>
<path d="M350.189 399.577C350.55 399.37 350.912 399.316 351.273 399.415C351.635 399.513 351.919 399.743 352.125 400.105L370.436 432.142C370.643 432.504 370.697 432.865 370.598 433.227C370.5 433.588 370.27 433.872 369.908 434.079L364.684 437.065C364.125 437.384 363.656 437.478 363.276 437.347C362.881 437.267 362.614 437.18 362.473 437.086L339.601 424.984L350.277 443.664C350.484 444.026 350.538 444.387 350.439 444.748C350.341 445.11 350.111 445.394 349.749 445.601L343.835 448.981C343.473 449.188 343.112 449.242 342.75 449.143C342.389 449.045 342.105 448.815 341.898 448.453L323.587 416.416C323.4 416.087 323.346 415.726 323.425 415.331C323.524 414.97 323.754 414.686 324.115 414.479L329.389 411.465C329.915 411.164 330.384 411.071 330.798 411.183C331.178 411.315 331.429 411.411 331.551 411.472L354.001 422.835L343.746 404.894C343.54 404.532 343.486 404.171 343.584 403.809C343.683 403.448 343.913 403.164 344.274 402.957L350.189 399.577Z" fill="white"/>
<path d="M302.306 421.265C305.733 420.176 308.868 419.796 311.712 420.124C314.532 420.499 316.971 421.551 319.029 423.28C321.062 425.056 322.65 427.491 323.791 430.583C324.319 432.123 324.859 433.758 325.408 435.49C325.97 437.257 326.484 438.94 326.952 440.539C327.782 443.651 327.849 446.489 327.155 449.052C326.46 451.616 325.045 453.852 322.912 455.761C320.778 457.669 318.034 459.157 314.679 460.222C311.974 461.081 309.466 461.5 307.156 461.479C304.858 461.495 302.828 461.167 301.066 460.495C299.268 459.835 297.796 458.952 296.651 457.847C295.469 456.753 294.654 455.562 294.206 454.275C294.067 453.962 294.089 453.657 294.273 453.36C294.42 453.075 294.657 452.881 294.981 452.778L302.881 450.269C303.278 450.143 303.602 450.1 303.852 450.139C304.079 450.226 304.304 450.373 304.528 450.58C304.953 451.041 305.509 451.479 306.197 451.896C306.861 452.36 307.694 452.672 308.698 452.829C309.665 452.999 310.834 452.866 312.204 452.431C314.261 451.777 315.712 450.721 316.559 449.261C317.369 447.812 317.451 445.88 316.803 443.465C315.926 440.328 314.929 437.19 313.812 434.05C312.902 431.56 311.656 429.95 310.075 429.221C308.493 428.492 306.692 428.449 304.672 429.09C303.302 429.526 302.168 430.144 301.271 430.945C300.337 431.758 299.719 432.749 299.415 433.917C299.123 435.122 299.223 436.5 299.715 438.051L300.042 439.079L305.128 437.464C305.525 437.338 305.907 437.355 306.276 437.516C306.62 437.724 306.855 438.027 306.981 438.424L308.253 442.428C308.379 442.824 308.356 443.189 308.184 443.522C307.987 443.902 307.69 444.155 307.293 444.281L293.658 448.612C293.261 448.738 292.891 448.697 292.547 448.488C292.214 448.316 291.985 448.031 291.859 447.635L289.9 441.466C288.914 438.364 288.776 435.489 289.484 432.842C290.192 430.195 291.655 427.864 293.874 425.849C296.069 423.881 298.879 422.353 302.306 421.265Z" fill="white"/>
<path d="M231.891 435.415C232.001 435.374 232.115 435.343 232.23 435.321C233.627 435.034 235.073 435.099 236.438 435.51C238.376 436.073 240.161 437.068 241.66 438.42C242.569 439.221 243.362 440.143 244.018 441.161C244.179 441.401 244.358 441.632 244.688 441.571C244.847 441.558 244.999 441.496 245.122 441.395C245.246 441.294 245.336 441.158 245.382 441.005C245.415 440.92 245.438 440.831 245.481 440.746C246.759 437.963 248.617 435.557 250.565 433.25C250.929 432.816 251.334 432.831 251.759 433.25C252.315 433.774 252.877 434.293 253.414 434.835C255.167 436.491 256.685 438.378 257.928 440.444C257.971 440.561 258.045 440.664 258.142 440.742C258.238 440.82 258.355 440.87 258.478 440.887C258.601 440.904 258.727 440.887 258.841 440.838C258.955 440.789 259.054 440.71 259.127 440.609C260.261 439.419 261.473 438.304 262.754 437.274C264.062 436.18 265.588 435.376 267.23 434.915C268.339 434.609 269.512 434.623 270.613 434.958C270.776 434.99 270.926 435.073 271.039 435.195C271.153 435.317 271.225 435.472 271.245 435.637C271.278 435.991 271.037 436.208 270.773 436.397C269.669 437.195 268.761 438.234 268.117 439.434C267.108 441.279 266.825 443.307 266.745 445.368C266.65 447.623 266.745 449.882 266.693 452.132C266.657 453.879 266.521 455.623 266.287 457.354C266.116 458.458 265.863 459.547 265.532 460.614C264.983 462.583 264.04 464.421 262.759 466.015C261.159 467.961 259.003 469.373 256.579 470.062C255.29 470.437 253.966 470.681 252.627 470.788L250.462 470.826C250.345 470.803 250.227 470.788 250.108 470.779C248.739 470.755 247.379 470.549 246.065 470.165C244.461 469.742 242.94 469.052 241.565 468.123C240.156 467.186 238.992 465.927 238.169 464.448C237.423 462.965 236.866 461.392 236.513 459.769C235.785 456.562 235.468 453.274 235.57 449.986C235.636 447.954 235.594 445.92 235.443 443.892C235.304 441.695 234.514 439.59 233.174 437.845C232.717 437.299 232.221 436.788 231.688 436.316C231.607 436.259 231.545 436.18 231.51 436.088C231.474 435.995 231.467 435.895 231.489 435.798C231.51 435.702 231.56 435.614 231.632 435.546C231.703 435.478 231.794 435.432 231.891 435.415Z" fill="white"/>
</svg>
