<svg width="1080" height="1080" viewBox="0 0 1080 1080" fill="none" xmlns="http://www.w3.org/2000/svg">
<path d="M484.364 989.865C470.368 989.042 453.254 983.964 438.587 976.288C424.931 969.141 415.651 960.784 414.946 955.012V954.906C413.593 934.864 402.949 923.827 390.222 912.46C383.835 906.547 376.755 900.388 367.969 893.123C359.982 886.599 351.843 880.005 343.974 873.634C326.167 859.199 307.748 844.282 289.952 829.259C283.883 824.275 279.249 819.597 275.744 814.942C270.522 808.148 266.311 800.119 263.229 791.056C258.595 777.057 250.891 764.209 243.446 751.795L241.764 748.986C239.6 745.225 237.247 741.451 234.965 737.807C230.872 731.248 226.65 724.477 223.309 717.448C220.475 711.606 217.946 705.058 215.57 697.418C208.337 674.402 197.422 652.503 186.859 631.309L184.895 627.371C183.272 623.598 181.861 619.625 180.496 615.769L179.849 613.947C178.532 610.009 178.532 607.517 179.849 606.33C180.449 605.825 181.378 605.413 182.602 605.155C184.589 604.755 186.648 604.602 188.682 604.72C192.282 604.931 195.998 605.989 199.727 607.858C211.336 614.147 221.639 624.515 231.178 639.526C238.118 650.857 244.304 662.906 250.279 674.555C252.302 678.504 254.396 682.583 256.49 686.58C257.066 687.591 256.995 687.955 256.995 687.955C256.666 688.261 254.761 688.343 253.843 688.39C249.644 688.684 247.092 689.166 244.351 690.165C238.67 692.316 235.06 695.384 233.613 699.275C232.025 703.53 232.942 708.597 236.412 714.768C240.788 722.926 246.974 729.967 252.42 736.162C257.266 741.745 260.559 744.978 267.122 751.408L268.875 753.124C279.614 763.656 292.058 775.293 303.043 785.555C311.935 793.866 320.345 801.73 326.179 807.454C329.072 810.675 331.46 814.554 333.777 818.316C334.647 819.726 335.541 821.184 336.459 822.606L336.517 822.689C336.706 822.935 337.141 823.676 337.552 824.405C339.693 828.084 340.505 829.283 341.81 829.353C342.281 829.377 342.739 829.224 343.081 828.919C343.692 828.378 343.716 827.602 343.727 827.343V827.085L343.657 826.838C337.799 808.407 323.203 795.077 311.147 785.532C307.324 782.605 305.29 780.924 301.385 777.28C282.448 759.189 256.137 732.764 244.293 717.824C240.023 711.253 236.624 704.506 240.505 699.569C244.34 695.584 251.162 693.574 259.254 694.056C263.147 694.279 267.158 695.09 270.533 696.336C292.434 704.259 308.854 721.339 323.791 738.16C336.859 752.454 353.208 763.797 372.415 771.884C414.816 789.399 467.568 811.181 499.419 849.877C507.441 860.116 510.546 872.258 513.781 887.058C515.945 897.284 517.65 908.052 518.968 919.971C520.05 929.775 520.885 940.154 521.555 952.649C521.99 959.467 521.661 964.898 520.555 969.271C516.027 987.796 498.361 990.7 484.329 989.877L484.364 989.865Z" fill="#3182CE"/>
<path d="M306 711.805C305.129 711.241 304.306 710.454 303.459 709.631C302.906 709.102 302.33 708.549 301.73 708.044C292.956 699.921 281.3 693.468 268.903 689.871C266.409 689.236 264.41 687.837 263.751 686.274L263.716 686.18L263.669 686.098C255.153 671.721 250.601 655.911 250.86 641.606V641.512C249.719 617.496 244.744 592.659 236.052 567.668C235.652 566.551 235.499 565.752 235.581 565.293L235.605 565.176C235.746 564.482 236.593 563.836 238.122 563.248C241.639 561.908 245.144 561.332 248.531 561.532C250.331 561.638 252.083 561.967 253.753 562.507C264.198 565.834 269.902 577.765 273.713 587.804C279.606 606.988 283.617 623.045 286.357 638.338C290.168 663.011 296.402 686.662 304.882 708.573L305.047 708.984C305.541 710.219 305.87 711.159 306.023 711.805H306Z" fill="#3182CE"/>
<path d="M339.833 744.143C339.669 744.12 339.304 743.755 339.151 743.602C337.281 741.71 319.344 723.525 319.344 723.525C319.109 723.29 318.885 723.067 318.662 722.843C317.286 721.48 316.298 720.492 315.639 718.694C311.052 706.939 306.335 694.608 302.818 683.864C299.584 673.755 297.408 663.552 295.291 653.114C293.691 645.779 292.456 638.256 291.245 630.979C289.916 622.963 288.551 614.675 286.705 606.588C285.434 601.287 283.694 596.044 282 590.966C281.659 589.92 281.306 588.885 280.965 587.839C280.812 587.24 280.577 586.558 280.33 585.829C279.777 584.23 278.754 581.268 279.6 580.575C280.377 580.116 281.635 580.093 282.847 580.081C283.282 580.081 283.741 580.093 284.188 580.116C297.549 580.904 306.429 593.058 310.287 604.167C311.769 608.363 312.887 613.065 313.792 618.989C317.497 646.014 323.178 670.417 331.129 693.562C334.728 705.27 338.375 721.574 339.598 731.448C340.198 736.091 340.515 740.029 340.515 743.179V743.261C340.527 743.473 340.409 743.743 340.21 743.932C340.068 744.061 339.927 744.131 339.81 744.131L339.833 744.143Z" fill="#3182CE"/>
<path d="M375.955 767.547C370.992 765.408 350.526 752.196 350.267 751.96C349.197 750.997 348.174 750.08 347.644 749.022C346.797 746.095 334.53 683.653 334.059 680.55C333.283 675.801 325.332 654.337 333.13 647.19C337.106 644.945 338.27 645.015 339.352 645.074C347.609 645.556 351.526 653.396 352.831 656.735C354.019 659.556 354.89 662.694 355.537 666.35C356.572 673.662 357.148 681.232 357.701 688.555C358.795 703.037 359.924 718.001 364.746 732.248C366.028 736.256 367.616 740.217 369.157 744.049C370.815 748.187 372.521 752.466 373.85 756.78C374.767 760.248 375.579 764.609 375.967 767.559L375.955 767.547Z" fill="#3182CE"/>
<path d="M596.807 989.865C610.804 989.042 627.917 983.964 642.584 976.288C656.24 969.141 665.52 960.784 666.226 955.012V954.906C667.578 934.864 678.223 923.827 690.949 912.46C697.336 906.547 704.417 900.388 713.203 893.123C721.189 886.599 729.328 880.005 737.197 873.634C755.004 859.199 773.423 844.282 791.219 829.259C797.288 824.275 801.922 819.597 805.427 814.942C810.65 808.148 814.861 800.119 817.942 791.056C822.576 777.057 830.28 764.209 837.726 751.795L839.408 748.986C841.572 745.225 843.924 741.451 846.206 737.807C850.299 731.248 854.522 724.477 857.862 717.448C860.697 711.606 863.225 705.058 865.601 697.418C872.835 674.402 883.75 652.503 894.312 631.309L896.276 627.371C897.899 623.598 899.311 619.625 900.675 615.769L901.322 613.947C902.639 610.009 902.639 607.517 901.322 606.33C900.722 605.825 899.793 605.413 898.57 605.155C896.582 604.755 894.524 604.602 892.489 604.72C888.89 604.931 885.173 605.989 881.444 607.858C869.835 614.147 859.532 624.515 849.993 639.526C843.054 650.857 836.867 662.906 830.892 674.555C828.869 678.504 826.775 682.583 824.682 686.58C824.105 687.591 824.176 687.955 824.176 687.955C824.505 688.261 826.411 688.343 827.328 688.39C831.527 688.684 834.079 689.166 836.82 690.165C842.501 692.316 846.112 695.384 847.559 699.275C849.146 703.53 848.229 708.597 844.759 714.768C840.384 722.926 834.197 729.967 828.751 736.162C823.905 741.745 820.612 744.978 814.049 751.408L812.296 753.124C801.558 763.656 789.114 775.293 778.128 785.555C769.236 793.866 760.826 801.73 754.993 807.454C752.099 810.675 749.712 814.554 747.394 818.316C746.524 819.726 745.63 821.184 744.713 822.606L744.654 822.689C744.466 822.935 744.031 823.676 743.619 824.405C741.478 828.084 740.667 829.283 739.361 829.353C738.891 829.377 738.432 829.224 738.091 828.919C737.479 828.378 737.456 827.602 737.444 827.343V827.085L737.514 826.838C743.372 808.407 757.968 795.077 770.024 785.532C773.847 782.605 775.882 780.924 779.787 777.28C798.723 759.189 825.035 732.764 836.879 717.824C841.148 711.253 844.547 704.506 840.666 699.569C836.832 695.584 830.01 693.574 821.918 694.056C818.024 694.279 814.014 695.09 810.638 696.336C788.737 704.259 772.318 721.339 757.38 738.16C744.313 752.454 727.964 763.797 708.757 771.884C666.355 789.399 613.603 811.181 581.752 849.877C573.73 860.116 570.625 872.258 567.391 887.058C565.227 897.284 563.521 908.052 562.204 919.971C561.122 929.775 560.287 940.154 559.616 952.649C559.181 959.467 559.51 964.898 560.616 969.271C565.144 987.796 582.811 990.7 596.843 989.877L596.807 989.865Z" fill="#3182CE"/>
<path d="M775.162 711.805C776.033 711.241 776.856 710.454 777.703 709.631C778.256 709.102 778.832 708.549 779.432 708.044C788.206 699.921 799.862 693.468 812.259 689.871C814.753 689.236 816.752 687.837 817.411 686.274L817.446 686.18L817.493 686.098C826.009 671.721 830.561 655.911 830.302 641.606V641.512C831.443 617.496 836.418 592.659 845.11 567.668C845.51 566.551 845.663 565.752 845.581 565.293L845.557 565.176C845.416 564.482 844.569 563.836 843.04 563.248C839.523 561.908 836.018 561.332 832.631 561.532C830.831 561.638 829.079 561.967 827.409 562.507C816.964 565.834 811.26 577.765 807.449 587.804C801.556 606.988 797.545 623.045 794.805 638.338C790.994 663.011 784.76 686.662 776.28 708.573L776.115 708.984C775.621 710.219 775.292 711.159 775.139 711.805H775.162Z" fill="#3182CE"/>
<path d="M741.326 744.141C741.49 744.118 741.855 743.753 742.008 743.6C743.878 741.708 761.815 723.523 761.815 723.523C762.05 723.288 762.273 723.065 762.497 722.841C763.873 721.478 764.861 720.49 765.52 718.692C770.107 706.937 774.823 694.606 778.34 683.862C781.575 673.753 783.751 663.55 785.868 653.112C787.468 645.777 788.703 638.254 789.914 630.977C791.243 622.961 792.608 614.674 794.454 606.586C795.724 601.285 797.465 596.042 799.159 590.964C799.5 589.918 799.853 588.883 800.194 587.837C800.347 587.238 800.582 586.556 800.829 585.827C801.382 584.229 802.405 581.266 801.558 580.573C800.782 580.114 799.523 580.091 798.312 580.079C797.877 580.079 797.418 580.091 796.971 580.114C783.61 580.902 774.729 593.056 770.871 604.165C769.389 608.361 768.272 613.063 767.366 618.988C763.661 646.012 757.98 670.415 750.029 693.56C746.43 705.268 742.784 721.572 741.561 731.446C740.961 736.089 740.643 740.027 740.643 743.177V743.26C740.632 743.471 740.749 743.741 740.949 743.93C741.09 744.059 741.231 744.129 741.349 744.129L741.326 744.141Z" fill="#3182CE"/>
<path d="M705.208 767.547C710.172 765.408 730.637 752.196 730.896 751.96C731.966 750.997 732.99 750.08 733.519 749.022C734.366 746.095 746.634 683.653 747.104 680.55C747.88 675.801 755.831 654.337 748.033 647.19C744.058 644.945 742.893 645.015 741.811 645.074C733.554 645.556 729.638 653.396 728.332 656.735C727.144 659.556 726.274 662.694 725.627 666.35C724.592 673.662 724.015 681.232 723.463 688.555C722.369 703.037 721.24 718.001 716.417 732.248C715.135 736.256 713.547 740.217 712.006 744.049C710.348 748.187 708.643 752.466 707.313 756.78C706.396 760.248 705.584 764.609 705.196 767.559L705.208 767.547Z" fill="#3182CE"/>
<path d="M706.561 108.032C706.467 108.079 697.599 113.239 692.106 114.803C689.142 115.649 681.555 116.39 673.522 117.177C666.265 117.894 658.761 118.623 653.033 119.552C651.739 119.763 650.339 120.069 648.869 120.469C650.951 118.964 655.832 115.167 656.397 112.522C657.749 112.017 658.949 111.488 659.784 110.947C663.054 108.808 665.935 104.799 666.159 104.482C667.735 103.201 669.605 100.556 671.722 96.6062C673.298 93.6675 674.428 91.0579 674.439 91.0227L674.886 90L674.122 90.8111C674.063 90.8699 668.476 96.7708 660.572 101.285C657.302 103.142 652.574 105.399 647.563 107.785C640.295 111.253 632.061 115.167 626.321 118.846C617.276 124.63 613.277 132.447 612.795 133.446C608.855 133.787 605.479 132.517 601.904 131.177C599.845 130.401 597.705 129.602 595.388 129.097C589.001 127.686 585.261 132.106 585.225 132.153L585.061 132.353L585.296 132.458C585.296 132.458 586.648 133.058 589.471 134.186C591.777 135.103 597.611 142.45 602.292 148.363C603.315 149.644 604.28 150.866 605.162 151.96C609.761 157.661 617.712 161.023 626.968 161.175C634.684 161.305 642.788 161.857 649.728 165.055C654.632 167.311 661.043 175.128 665.289 180.312C666.947 182.334 668.241 183.921 669.135 184.814C670.911 186.589 673.075 187.694 674.533 187.694C674.91 187.694 675.251 187.624 675.521 187.459C675.957 187.201 676.38 186.625 676.133 185.379C677.25 186.119 678.215 186.495 679.026 186.495C679.579 186.495 679.956 186.307 680.132 185.931C680.473 185.226 680.038 183.851 678.827 181.864C678.415 181.194 677.991 180.571 677.65 180.089C679.273 181.1 680.826 181.617 682.285 181.617C683.508 181.617 684.249 181.311 684.496 180.7C685.072 179.313 682.826 176.809 680.791 174.776C679.709 173.694 675.616 169.921 668.641 167.006C665.959 165.889 663.218 164.925 660.313 163.903C656.373 162.516 652.303 161.093 648.351 159.224C642.259 156.344 633.12 146.764 631.473 145.013C641.682 143.649 647.422 139.406 647.481 139.359L647.458 139.335C648.446 139.276 649.386 139.17 650.21 138.994C654.515 138.089 659.349 134.198 659.396 134.151L659.372 134.128C660.69 134.045 661.866 133.904 662.724 133.646C666.747 132.482 671.734 129.531 672.158 129.273C674.863 129.226 677.156 129.014 678.238 128.521C680.156 127.651 682.332 126.029 683.825 124.818C684.684 124.124 685.39 123.501 685.837 123.102C686.248 122.725 686.472 122.537 686.578 122.42C689.93 122.114 692.553 121.479 695.14 120.222C699.528 118.094 706.514 108.702 706.808 108.302L707.373 107.538L706.549 108.02L706.561 108.032Z" fill="#3182CE"/>
<path d="M871.603 224.087L871.415 224.24C871.274 224.24 871.179 224.228 871.156 224.216C868.804 224.91 865.769 225.168 862.405 223.875L862.44 223.769C863.981 224.357 866.087 224.851 868.545 224.616C874.214 224.263 878.013 220.337 878.013 220.337L863.37 217.857C860.264 217.234 846.491 217.939 835.423 217.88L836.094 218.021C831.683 218.021 827.637 217.904 824.72 217.551C821.085 217.104 816.087 215.177 810.676 212.602L812.076 212.908C802.361 208.382 791.104 201.588 783.812 197.533C772.732 191.385 760.1 185.167 749.114 184.403C738.517 183.662 730.201 183.392 725.32 184.908C724.979 185.002 724.661 185.108 724.355 185.214C723.873 185.39 723.344 185.555 722.803 185.731C718.063 187.177 711.97 188.376 711.97 188.376C711.97 188.376 712.017 188.376 712.076 188.399C711.958 188.423 711.853 188.446 711.77 188.458C712.935 188.752 718.122 190.115 720.862 192.055C723.92 194.218 731.448 195.817 731.519 195.828C731.519 195.828 731.624 195.769 731.671 195.734C731.73 195.746 731.777 195.758 731.824 195.769C731.801 195.793 731.766 195.805 731.742 195.828C727.308 198.826 721.521 203.504 716.416 207.618C712.594 210.698 708.994 213.613 706.383 215.482C701.643 218.879 696.068 221.654 689.987 223.64C688.07 224.251 686.094 224.804 684.047 225.274C675.155 227.296 669.792 228.307 669.792 228.307C669.792 228.307 701.02 225.862 709.688 223.088C709.935 223.088 710.277 223.064 710.712 223.029C712.253 222.947 715.464 222.665 718.957 221.795H718.933L718.957 221.806C718.874 221.83 718.78 221.865 718.698 221.877C719.474 222.065 722.485 222.712 726.132 222.5C727.79 222.441 729.578 222.194 731.389 221.665C731.295 221.689 731.213 221.736 731.119 221.759C731.671 221.795 733.024 221.853 734.788 221.748C736.553 221.665 738.799 221.419 741.14 220.772L741.093 220.796C740.999 220.819 740.916 220.854 740.822 220.878C741.457 221.066 743.892 221.724 746.927 221.583C747.809 221.56 748.75 221.477 749.726 221.301C749.726 221.301 749.761 221.313 749.785 221.324C749.679 221.348 749.573 221.383 749.455 221.407C749.949 221.607 751.584 222.218 753.807 222.359C754.454 222.406 755.195 222.394 755.995 222.324C757.842 222.218 759.935 221.748 762.1 220.56L758.559 256.119C758.653 255.954 758.818 255.696 759.018 255.366L758.924 256.26C758.924 256.26 762.052 251.335 764.193 246.621C764.193 246.621 764.193 246.597 764.205 246.586V246.621C764.205 246.621 768.357 246.48 770.015 241.319C770.227 241.507 770.556 241.719 771.003 241.719C771.121 241.719 771.239 241.707 771.344 241.684C772.05 241.731 773.038 241.308 774.261 239.474C776.767 235.712 778.637 224.204 778.754 223.523C781.507 223.958 784.118 224.169 786.564 224.157C786.6 224.157 786.647 224.157 786.682 224.157C787.094 224.157 787.517 224.157 787.917 224.146C789.858 224.087 791.822 223.875 793.716 223.452L793.445 223.429C794.221 223.252 794.974 223.041 795.692 222.794C796.433 222.535 797.373 222.406 798.397 222.335C797.55 222.406 796.774 222.535 796.162 222.759C795.362 223.041 794.551 223.264 793.727 223.452L851.549 228.26C858.465 229.788 864.628 231.363 867.228 232.762C870.039 234.278 876.072 234.913 879.425 234.69C882.6 234.549 883.918 233.714 879.354 232.068C874.779 230.411 875.179 230.235 875.179 230.235H875.12C875.967 230.258 876.825 230.246 877.684 230.199C880.06 230.105 882.424 229.682 884.365 228.707C891.045 225.333 871.615 224.11 871.615 224.11L871.603 224.087ZM737.188 211.474L737.247 211.568C737.247 211.568 737.176 211.615 737.058 211.697L736.529 211.921C736.964 211.639 737.188 211.486 737.188 211.486V211.474ZM748.303 210.91L747.985 211.027C748.185 210.874 748.291 210.78 748.303 210.769L748.373 210.851C748.373 210.851 748.338 210.874 748.303 210.91ZM755.478 212.109L755.172 212.226C755.383 212.05 755.489 211.956 755.501 211.944L755.572 212.026C755.572 212.026 755.536 212.062 755.489 212.097L755.478 212.109ZM763.546 212.073L763.24 212.191C763.464 212.003 763.558 211.921 763.558 211.921L763.629 212.003C763.629 212.003 763.605 212.026 763.546 212.073ZM772.897 211.509L772.65 211.615C772.815 211.45 772.885 211.356 772.897 211.356L772.979 211.427C772.979 211.427 772.944 211.462 772.897 211.509ZM771.391 233.232L771.25 233.491C771.333 232.821 771.356 232.456 771.356 232.445H771.462C771.462 232.445 771.45 232.727 771.391 233.232ZM778.013 225.015C778.166 224.181 778.249 223.64 778.26 223.581C775.802 223.17 773.238 222.57 770.603 221.795C770.356 221.724 770.18 221.677 770.145 221.665V221.56C770.145 221.56 770.333 221.607 770.627 221.689C773.426 222.512 776.131 223.111 778.743 223.523L778.013 225.015ZM798.844 222.312C798.844 222.312 798.797 222.312 798.773 222.312C798.797 222.312 798.82 222.312 798.844 222.312ZM869.498 229.741C867.145 229.353 865.522 228.906 865.475 228.895L865.498 228.789C865.498 228.789 867.933 229.459 871.121 229.882L869.486 229.741H869.498Z" fill="#3182CE"/>
<path d="M949.363 419.015C949.128 418.298 948.258 417.781 947.117 417.404C945.388 416.793 942.871 416.535 941.059 416.429C943.494 415.771 945.329 414.642 945.976 413.349C946.258 412.773 946.258 412.256 945.976 411.786C945.658 411.268 944.988 410.881 944.153 410.575C942.541 409.94 940.118 409.705 938.589 409.623C939.307 409.258 940.048 408.812 940.824 408.353C942.4 407.413 943.059 406.555 942.847 405.755C942.671 405.109 941.883 404.592 940.742 404.18C936.743 402.617 927.251 402.476 927.251 402.476C927.251 402.476 924.24 402.394 919.97 402.158L920.1 402.229C916.936 402.053 913.101 401.794 909.279 401.418L909.149 401.359C912.984 401.735 916.818 401.994 919.97 402.17L863.36 371.055C864.16 370.785 865.76 369.797 868.406 366.247C871.958 361.463 871.923 357.173 871.887 356.432C872.57 355.774 873.193 355.127 873.722 354.528C877.216 350.519 877.18 343.302 877.157 342.397C878.286 340.986 879.192 339.682 879.639 338.635C881.591 334.18 881.379 327.104 881.344 326.363C883.638 322.355 881.603 313.821 881.344 312.845C885.32 305.111 883.602 296.588 883.449 295.907C884.896 288.113 882.908 277.675 882.803 277.158C883.226 269.352 881.344 259.302 881.321 259.173L881.179 258.409L880.956 259.032C880.956 258.973 880.932 258.926 880.932 258.926C880.932 258.926 865.595 301.819 858.044 310.976C852.727 317.418 843.283 328.467 836.355 336.825C836.79 335.226 837.343 332.323 837.39 327.903C837.449 322.296 834.861 320.768 833.673 320.357C833.532 320.298 833.403 320.251 833.297 320.216C833.497 313.268 830.415 311.258 829.733 310.906C829.733 310.283 829.697 309.766 829.615 309.389C828.909 305.781 825.122 299.621 824.699 298.951C824.675 296.6 824.546 294.79 824.24 293.955C822.793 289.959 818.406 280.543 818.371 280.449L817.971 279.579V280.531C817.971 280.731 817.947 297.023 816.501 308.002C816.23 310.024 815.901 311.87 815.513 313.386C815.242 314.444 815.007 315.796 814.807 317.336C814.772 317.559 814.748 317.782 814.713 318.017C814.713 318.041 814.713 318.064 814.713 318.088C813.313 329.184 813.372 349.861 813.443 356.926C811.572 356.926 809.655 357.079 807.867 357.514C800.893 359.195 798.034 360.076 795.541 360.441L793.047 360.805C793.047 360.805 793.094 360.84 793.165 360.887L792.647 360.958L793.094 361.263C793.177 361.31 800.963 366.588 807.644 370.15C814.431 373.759 821.476 375.299 822.593 375.158C822.84 375.158 823.558 376.121 824.252 377.05C826.181 379.648 829.403 383.985 834.932 386.795C841.871 390.333 856.279 397.668 865.983 397.668C866.195 397.668 866.418 397.668 866.63 397.668C875.898 397.668 884.014 399.713 892.142 404.098C900.493 408.588 927.027 421.354 927.298 421.483C927.663 421.636 933.673 424.069 939.624 424.069C942.494 424.069 945.341 423.505 947.552 421.848C949.01 420.755 949.587 419.814 949.304 418.968L949.363 419.015Z" fill="#3182CE"/>
<path d="M989.882 513.889C989.694 513.372 975.768 496.786 964.253 491.155C955.773 487.006 939.906 483.068 929.403 480.47C925.862 479.588 922.804 478.836 920.793 478.26C913.112 476.062 902.209 470.655 898.375 467.14C896.681 465.588 895.869 463.508 895.011 461.31C893.988 458.677 892.917 455.961 890.271 453.657C885.448 449.484 875.192 441.244 875.086 441.162L874.58 440.762L874.745 441.385C874.769 441.456 876.686 448.614 876.815 453.986C876.968 459.664 878.638 470.008 880.003 472.124C880.226 472.477 880.297 472.735 880.203 472.9C879.85 473.511 877.462 473.441 874.698 473.358C873.91 473.335 873.075 473.311 872.181 473.3C872.122 473.3 872.063 473.3 872.005 473.3C868.335 473.3 863.595 475.216 858.596 477.249C855.973 478.307 853.268 479.412 850.563 480.305C842.717 482.88 835.343 485.066 830.332 486.289C825.31 487.511 804.973 487.029 799.939 486.265C794.682 485.466 786.836 484.09 786.754 484.079L785.343 483.832L786.625 484.478C786.754 484.537 799.598 490.991 808.984 493.424C809.89 493.659 811.007 493.823 812.289 493.929C812.677 494.693 815.265 498.761 826.804 500.947C832.72 502.064 840.471 502.334 848.81 501.382C848.775 502.111 848.845 504.297 850.492 505.637C852.092 506.942 854.667 507.036 858.161 505.919C860.96 505.026 863.724 504.132 866.265 503.298C866.5 503.768 867.276 505.026 869.005 505.708C870.911 506.46 873.31 506.295 876.145 505.202C876.721 506.013 879.803 509.775 885.143 506.648C886.131 506.06 886.954 505.555 887.636 505.096C887.636 506.601 888.189 511.726 895.14 516.91C902.762 522.588 912.983 531.944 917.406 539.08C920.146 543.511 922.322 553.703 924.074 561.896C925.074 566.574 925.933 570.618 926.768 573.098C927.321 574.755 929.367 577.177 931.861 579.116C934.131 580.88 936.236 581.855 937.718 581.855C938.024 581.855 938.295 581.82 938.542 581.738C939.424 581.444 939.93 580.656 940.047 579.41C940.141 578.294 939.918 576.777 939.365 574.92C941.788 577.4 944.47 579.61 946.34 579.61C946.399 579.61 946.469 579.61 946.528 579.61C947.246 579.551 947.81 579.152 948.175 578.411C950.221 574.391 948.786 571.405 947.939 570.159C950.68 572.228 953.632 573.803 955.808 573.251C957.678 572.781 958.702 572.064 958.925 571.041C959.478 568.572 955.067 564.975 950.386 561.155C949.257 560.238 947.869 559.169 946.399 558.04C939.6 552.844 929.332 544.992 926.039 536.517C922.263 526.807 919.923 501.182 919.593 497.338C923.51 501.123 925.662 501.676 926.78 501.452C927.309 501.347 927.627 501.076 927.791 500.876C932.378 504.92 937.613 503.709 938.401 503.486C944.905 507.929 949.727 505.52 950.551 505.038C958.443 510.386 963.218 508.787 963.994 508.458C969.04 511.315 977.344 511.021 978.085 510.997C982.061 512.843 989.553 514.159 989.635 514.171L990 514.23L989.871 513.889H989.882Z" fill="#3182CE"/>
<path d="M202.618 551.586C205.805 550.834 210.169 548.812 215.027 546.285C219.896 543.757 225.201 540.748 230.141 537.939C239.974 532.367 248.501 527.536 248.501 527.536C248.501 527.536 241.256 534.095 233.058 541.524C228.871 545.274 224.472 549.259 220.237 552.597C216.003 555.924 212.098 558.545 208.958 559.391C216.873 560.449 225.577 559.003 234.246 555.688C242.938 552.374 251.489 547.249 259.499 540.948C261.698 539.208 263.792 537.304 265.768 535.317C267.791 533.319 269.708 531.227 271.472 529.134C272.354 528.088 273.201 527.03 274.013 525.984C274.86 524.926 275.671 523.88 276.436 522.834C277.988 520.753 279.306 518.731 280.564 516.78C281.823 514.829 282.881 512.983 283.728 511.267C284.552 509.563 285.304 507.964 285.728 506.577C286.175 505.178 286.351 503.955 286.281 502.956C286.245 501.957 285.916 501.17 285.281 500.664C282.74 498.654 274.389 499.982 263.651 502.263C252.912 504.508 239.797 507.893 227.671 508.74C222.507 509.081 218.203 510.715 214.674 513.383C211.157 516.028 208.299 519.707 206.358 523.915C202.242 532.355 201.512 542.981 202.618 551.586Z" fill="#3182CE"/>
<path d="M187.361 555.194C184.185 555.947 179.292 556.064 173.799 555.688C168.307 555.312 162.167 554.454 156.403 553.384C150.64 552.326 145.241 551.057 141.372 550.034C137.479 549.011 134.997 548.259 134.997 548.259C134.997 548.259 137.337 549.752 141.031 551.856C144.783 553.948 149.946 556.617 155.463 559.038C160.991 561.46 167.036 563.575 172.376 564.845C177.704 566.126 182.491 566.538 185.644 565.691C179.469 570.805 171.4 574.519 162.214 576C153.051 577.47 142.618 576.717 132.162 572.65C129.245 571.533 126.305 570.017 123.4 568.183C120.541 566.338 117.73 564.187 115.002 561.789C113.637 560.59 112.296 559.344 110.991 558.051C109.72 556.746 108.474 555.406 107.274 554.019C104.886 551.256 102.569 548.376 100.605 545.473C98.6289 542.558 96.8646 539.631 95.3591 536.81C93.8301 533.989 92.7127 531.25 91.807 528.746C90.9249 526.242 90.325 523.962 90.0898 522.034C89.8898 520.106 90.0192 518.519 90.525 517.402C92.5363 512.9 101.064 513.794 112.096 515.134C123.129 516.509 136.655 518.167 148.711 516.462C153.828 515.757 158.45 516.873 162.543 519.107C166.66 521.352 170.153 524.726 173.388 528.64C179.621 536.528 184.491 546.566 187.384 555.206L187.361 555.194Z" fill="#3182CE"/>
<path d="M192.933 477.356C195.861 477.309 200.119 476.368 204.836 475.087C209.552 473.794 214.751 472.172 219.667 470.656C229.348 467.635 237.746 465.013 237.746 465.013C237.746 465.013 230.136 469.398 221.538 474.37C217.209 476.874 212.469 479.531 208.153 481.635C203.871 483.739 199.919 485.29 197.002 485.431C210.423 490.368 228.571 486.971 244.814 478.955C253.895 474.464 262.116 467.529 267.962 461.663C269.42 460.182 270.691 458.76 271.737 457.408C272.843 456.068 273.772 454.81 274.419 453.67C275.713 451.378 276.007 449.532 275.137 448.404C273.314 446.17 265.727 445.735 255.871 445.7C250.942 445.677 245.438 445.759 239.816 445.677C234.229 445.594 228.501 445.336 223.102 444.536C218.515 443.855 214.433 444.478 210.822 446.135C209.023 446.958 207.329 448.051 205.765 449.332C204.977 449.979 204.224 450.672 203.507 451.413C202.789 452.154 202.154 452.953 201.519 453.776C200.26 455.433 199.119 457.255 198.108 459.159C197.602 460.112 197.108 461.099 196.685 462.086C196.273 463.086 195.908 464.096 195.556 465.119C194.862 467.164 194.285 469.245 193.827 471.302C193.344 473.359 193.144 475.381 192.956 477.321L192.933 477.356Z" fill="#3182CE"/>
<path d="M178.88 477.602C175.952 477.649 171.67 476.815 166.907 475.439C162.131 474.064 156.886 472.136 152.087 470.103C142.442 466.059 134.291 461.545 134.291 461.545C134.291 461.545 136.079 463.297 138.949 465.836C140.384 467.105 142.089 468.575 143.983 470.115C145.865 471.654 147.947 473.277 150.181 474.852C154.627 478.014 159.403 481.035 163.86 483.162C168.354 485.302 172.447 486.583 175.364 486.442C168.942 489.733 161.143 491.438 152.816 490.968C144.5 490.497 135.585 487.829 127.116 482.281C124.799 480.741 122.529 478.86 120.341 476.709C118.154 474.558 116.048 472.136 114.178 469.539C110.403 464.343 106.992 458.407 104.686 452.553C103.498 449.626 102.487 446.734 101.687 443.972C100.946 441.209 100.44 438.6 100.134 436.237C99.5228 431.512 99.7933 427.809 101.146 426.046C103.781 422.484 111.096 424.882 120.494 428.15C125.199 429.784 130.421 431.641 135.844 433.157C141.289 434.674 146.923 435.861 152.357 436.272C156.98 436.625 160.814 438.482 163.978 441.221C165.566 442.596 166.977 444.183 168.236 445.947C168.871 446.828 169.459 447.745 170.012 448.697C170.577 449.649 171.141 450.637 171.659 451.648C172.694 453.67 173.599 455.797 174.364 457.972C174.752 459.065 175.093 460.158 175.434 461.263C175.799 462.368 176.128 463.485 176.434 464.602C177.046 466.835 177.528 469.057 177.904 471.243C178.257 473.418 178.669 475.557 178.869 477.579L178.88 477.602Z" fill="#3182CE"/>
<path d="M201.383 401.126C206.476 402.125 216.944 401.138 225.977 400.386C230.482 399.986 234.681 399.622 237.751 399.351C240.832 399.093 242.785 398.94 242.785 398.94C242.785 398.94 235.328 401.303 226.894 403.959C222.543 405.287 218.073 406.733 213.886 407.744C209.722 408.755 205.97 409.355 203.406 408.931C206.064 410.624 209.122 411.941 212.439 412.893C215.756 413.845 219.308 414.421 223.013 414.668C230.376 415.138 238.48 414.292 246.325 412.364C248.513 411.835 250.618 411.13 252.759 410.354C254.9 409.578 256.993 408.696 258.969 407.756C262.874 405.863 266.685 403.83 269.696 401.82C270.449 401.314 271.178 400.809 271.884 400.327C272.589 399.845 273.236 399.351 273.848 398.881C275.059 397.929 276.048 397 276.812 396.13C278.435 394.414 279.094 392.886 278.482 391.722C277.271 389.418 270.766 387.585 262.215 385.669C253.676 383.717 243.044 381.813 233.94 378.369C230.082 376.9 226.377 376.641 222.884 377.381C219.39 378.11 216.25 379.885 213.345 382.271C212.627 382.871 211.91 383.506 211.239 384.176C210.592 384.858 209.957 385.563 209.346 386.303C208.122 387.784 206.993 389.371 205.958 391.005C204.911 392.639 204.1 394.367 203.324 396.072C202.571 397.776 201.889 399.481 201.371 401.138L201.383 401.126Z" fill="#3182CE"/>
<path d="M189.078 398.669C183.903 397.658 174.87 392.462 167.201 387.043C163.379 384.351 159.85 381.636 157.357 379.591C154.875 377.545 153.334 376.182 153.334 376.182C153.334 376.182 153.64 376.64 154.181 377.463C154.734 378.274 155.498 379.426 156.521 380.813C158.568 383.587 161.426 387.255 164.625 390.84C167.789 394.425 171.53 397.999 174.988 400.702C178.469 403.418 181.774 405.298 184.338 405.733C181.198 406.556 177.869 406.968 174.447 406.932C171 406.897 167.437 406.403 163.837 405.416C156.616 403.418 149.453 399.433 143.125 392.968C141.384 391.181 139.69 389.089 138.243 386.808C136.785 384.516 135.456 382.012 134.268 379.367C131.821 374.066 130.269 368.282 129.234 362.687C128.693 359.89 128.481 357.186 128.328 354.635C128.199 352.084 128.222 349.686 128.387 347.559C128.822 343.327 129.822 340.177 131.28 338.872C134.221 336.251 140.137 339.754 147.724 344.42C155.298 349.11 164.602 354.847 173.929 357.621C177.893 358.82 180.845 361.159 183.045 364.145C185.244 367.131 186.82 370.81 187.761 374.701C188.008 375.676 188.196 376.664 188.384 377.675C188.584 378.686 188.761 379.708 188.902 380.731C189.184 382.788 189.349 384.857 189.408 386.902C189.455 388.947 189.549 391.005 189.467 392.979C189.42 394.954 189.243 396.87 189.055 398.68L189.078 398.669Z" fill="#3182CE"/>
<path d="M225.983 328.517C228.101 329.446 231.453 330.175 235.264 330.821C239.074 331.456 243.321 332.008 247.343 332.549C255.282 333.595 262.163 334.5 262.163 334.5C262.163 334.5 255.271 335.123 247.472 335.817C243.544 336.17 239.286 336.511 235.475 336.593C231.688 336.675 228.371 336.499 226.23 335.629C230.241 339.602 235.781 342.506 242.097 344.328C245.261 345.244 248.613 345.891 252.06 346.302C255.518 346.702 259.023 346.843 262.657 346.773C264.657 346.737 266.668 346.549 268.644 346.279C270.62 345.997 272.537 345.609 274.478 345.197C278.324 344.363 281.806 343.234 284.911 342.118C286.44 341.553 287.804 340.942 289.016 340.343C290.262 339.755 291.321 339.155 292.168 338.556C293.015 337.956 293.626 337.333 294.014 336.746C294.426 336.17 294.567 335.594 294.426 335.029C293.85 332.82 288.569 329.998 281.523 326.707C274.49 323.392 265.645 319.701 258.423 314.999C255.353 312.989 252.224 312.072 249.096 312.072C245.99 312.072 242.803 312.93 239.886 314.47C238.439 315.246 237.028 316.163 235.664 317.197C234.981 317.715 234.323 318.255 233.664 318.82C233.041 319.396 232.441 320.007 231.853 320.618C230.676 321.852 229.583 323.157 228.571 324.474C227.56 325.79 226.736 327.177 225.972 328.506L225.983 328.517Z" fill="#3182CE"/>
<path d="M215.821 324.049C213.704 323.121 210.916 321.099 207.952 318.536C204.988 315.974 201.848 312.847 199.084 309.802C193.509 303.713 189.18 297.766 189.18 297.766C189.18 297.766 189.874 299.611 191.098 302.397C191.709 303.784 192.438 305.406 193.285 307.134C193.709 308.004 194.144 308.897 194.626 309.802C195.12 310.719 195.626 311.66 196.167 312.588C198.296 316.326 200.742 320.076 203.212 323.074C205.706 326.083 208.246 328.363 210.375 329.221C204.694 329.468 198.543 328.128 192.721 325.037C189.816 323.497 186.981 321.51 184.346 319.065C181.712 316.62 179.23 313.682 177.16 310.308C176.007 308.439 174.996 306.335 174.149 304.054C173.302 301.786 172.573 299.341 172.102 296.849C171.114 291.853 170.667 286.457 170.961 281.497C171.079 279.005 171.302 276.572 171.667 274.338C172.067 272.117 172.549 270.071 173.114 268.273C173.678 266.474 174.302 264.923 175.007 263.747C175.725 262.572 176.478 261.725 177.242 261.314C180.3 259.633 184.746 263.782 190.404 269.248C196.049 274.738 202.977 281.45 210.517 285.635C213.704 287.421 215.833 290.019 217.197 293.04C218.573 296.073 219.115 299.47 219.244 303.055C219.314 304.854 219.256 306.676 219.091 308.498C219.009 309.403 218.891 310.308 218.762 311.213C218.656 312.13 218.526 313.035 218.373 313.94C218.068 315.739 217.68 317.502 217.221 319.183C216.774 320.876 216.35 322.533 215.833 324.061L215.821 324.049Z" fill="#3182CE"/>
<path d="M267.05 263.453C270.343 265.839 278.012 268.543 284.634 270.941C291.256 273.339 296.996 275.408 296.996 275.408C296.996 275.408 290.962 274.644 284.128 273.785C282.399 273.562 280.6 273.315 278.812 273.045C277.036 272.786 275.319 272.516 273.684 272.198C270.426 271.564 267.591 270.764 265.909 269.624C271.237 277.947 282.729 283.671 295.055 286.046C298.466 286.692 302.112 286.963 305.5 286.904C307.182 286.869 308.923 286.833 310.51 286.704C312.122 286.586 313.604 286.387 315.039 286.187C320.72 285.352 324.66 283.918 324.566 281.861C324.507 279.863 320.496 276.454 315.05 272.304C309.64 268.143 302.771 263.359 297.455 257.963C295.208 255.659 292.679 254.296 289.986 253.685C288.633 253.379 287.245 253.273 285.834 253.32C284.434 253.391 283.046 253.638 281.647 254.026C280.247 254.413 278.847 254.919 277.483 255.554C276.154 256.212 274.848 256.964 273.59 257.799C271.037 259.421 268.885 261.478 267.038 263.453H267.05Z" fill="#3182CE"/>
<path d="M259.179 257.705C255.886 255.319 251.169 248.678 247.511 242.342C245.653 239.168 244.136 236.159 243.03 233.902C241.936 231.645 241.289 230.176 241.289 230.176C241.289 230.176 241.536 231.88 242.042 234.49C242.524 237.064 243.395 240.626 244.489 244.211C245.041 246.009 245.665 247.82 246.335 249.571C247.017 251.323 247.782 253.015 248.57 254.543C250.146 257.6 251.863 260.021 253.545 261.161C243.677 259.398 233.374 251.946 228.61 238.674C227.293 234.995 226.775 230.716 226.799 226.191C226.799 223.922 227.046 221.677 227.351 219.42C227.681 217.175 228.092 214.906 228.681 212.814C229.257 210.71 229.927 208.688 230.657 206.842C231.021 205.914 231.398 205.032 231.786 204.198C232.186 203.375 232.597 202.611 233.021 201.894C234.691 199.049 236.385 197.121 237.843 196.686C240.795 195.828 243.83 200.213 247.652 205.961C251.463 211.721 256.203 218.821 261.884 223.816C264.296 225.944 265.625 228.577 266.225 231.41C266.519 232.832 266.624 234.302 266.577 235.783C266.554 237.287 266.389 238.839 266.107 240.391C265.825 241.942 265.413 243.47 264.919 244.999C264.46 246.55 263.907 248.078 263.296 249.548C262.026 252.463 260.696 255.331 259.203 257.741L259.179 257.705Z" fill="#3182CE"/>
<path d="M316.362 213.295C317.538 214.623 319.62 216.175 322.079 217.856C324.537 219.525 327.336 221.288 329.947 222.934C332.535 224.556 334.958 226.072 336.734 227.177C338.498 228.294 339.627 229.011 339.627 229.011C339.627 229.011 334.628 227.236 328.983 225.238C326.113 224.192 323.09 223.134 320.408 221.97C317.75 220.818 315.468 219.607 314.257 218.314C315.774 222.358 318.703 226.155 322.502 229.434C324.407 231.08 326.513 232.596 328.783 233.972C331.065 235.37 333.499 236.616 336.028 237.71C337.428 238.309 338.875 238.815 340.321 239.238C341.803 239.696 343.297 240.072 344.755 240.378C347.649 240.954 350.531 241.389 353.001 241.53C354.224 241.589 355.412 241.659 356.447 241.624C357.494 241.601 358.411 241.506 359.176 241.342C360.752 241.072 361.74 240.507 361.893 239.637C362.187 237.898 359.411 234.254 355.576 229.74C351.754 225.203 346.79 219.842 343.273 214.271C341.791 211.896 339.898 210.262 337.698 209.228C335.511 208.205 333.088 207.876 330.547 207.982C329.912 208.017 329.265 208.052 328.63 208.158C327.995 208.264 327.371 208.381 326.736 208.534C325.478 208.828 324.207 209.228 322.984 209.686C321.761 210.156 320.608 210.744 319.491 211.344C318.385 211.967 317.303 212.578 316.374 213.295H316.362Z" fill="#3182CE"/>
<path d="M310.729 206.948C309.564 205.631 308.247 203.315 307.024 200.612C305.8 197.897 304.636 194.758 303.671 191.737C302.707 188.716 301.919 185.824 301.401 183.697C300.896 181.581 300.625 180.217 300.625 180.217C300.625 180.217 300.602 180.593 300.555 181.252C300.519 181.91 300.472 182.85 300.46 184.026C300.425 186.353 300.472 189.492 300.731 192.736C300.99 195.98 301.543 199.425 302.295 202.293C303.06 205.173 304.071 207.535 305.283 208.829C301.26 207.183 297.438 204.303 294.368 200.295C292.839 198.296 291.498 196.004 290.439 193.453C289.404 190.926 288.651 188.14 288.263 185.107C288.052 183.426 288.016 181.64 288.134 179.782C288.287 177.949 288.593 176.056 289.028 174.152C289.875 170.308 291.38 166.535 293.109 163.114C293.956 161.386 294.932 159.834 295.897 158.4C296.861 156.966 297.849 155.685 298.814 154.604C300.766 152.499 302.589 151.206 303.918 151.101C306.565 150.877 308.341 155.191 310.54 160.798C312.716 166.429 315.41 173.305 319.315 178.619C320.961 180.876 321.608 183.356 321.573 185.86C321.538 188.363 320.891 190.996 319.809 193.488C319.538 194.111 319.244 194.723 318.938 195.346C318.633 195.969 318.315 196.592 317.974 197.203C317.292 198.425 316.527 199.613 315.727 200.741C314.928 201.881 314.128 203.01 313.281 204.044C312.446 205.09 311.552 206.031 310.74 206.959L310.729 206.948Z" fill="#3182CE"/>
<path d="M378.361 173.682C379.102 175.01 380.584 176.726 382.325 178.572C383.196 179.5 384.148 180.452 385.101 181.405C386.066 182.368 387.054 183.332 387.994 184.273C391.747 187.964 395.016 191.173 395.016 191.173C395.016 191.173 391.147 188.763 386.771 186.048C384.56 184.672 382.184 183.168 380.149 181.698C378.114 180.229 376.456 178.83 375.668 177.525C376.197 181.205 377.962 184.931 380.561 188.399C381.855 190.138 383.36 191.808 385.019 193.383C386.677 194.958 388.477 196.427 390.406 197.838C394.687 200.894 399.85 202.951 403.967 204.209C405.002 204.515 405.955 204.726 406.837 204.902C407.719 205.091 408.519 205.196 409.201 205.208C409.883 205.232 410.448 205.138 410.895 204.997C411.342 204.855 411.648 204.609 411.789 204.268C412.365 202.881 410.707 199.295 408.307 194.77C405.931 190.232 402.744 184.79 400.815 179.453C400.003 177.173 398.71 175.445 397.075 174.211C395.44 172.976 393.428 172.177 391.276 171.813C386.995 171.119 382.066 172.036 378.385 173.693L378.361 173.682Z" fill="#3182CE"/>
<path d="M374.798 167.299C374.057 165.97 373.386 163.807 372.845 161.28C372.575 160.022 372.339 158.67 372.139 157.283C371.94 155.908 371.787 154.521 371.657 153.169C371.14 147.75 371.222 142.907 371.222 142.907C371.222 142.907 370.857 144.153 370.387 146.105C370.152 147.08 369.905 148.22 369.658 149.466C369.54 150.089 369.411 150.736 369.305 151.406C369.199 152.076 369.093 152.781 369.011 153.475C368.646 156.284 368.446 159.235 368.552 161.786C368.67 164.348 369.093 166.558 369.881 167.863C366.8 165.735 364.094 162.597 362.259 158.67C361.342 156.707 360.636 154.545 360.225 152.205C359.813 149.866 359.672 147.351 359.919 144.753C360.048 143.307 360.354 141.802 360.813 140.274C361.26 138.734 361.86 137.171 362.601 135.678C363.33 134.162 364.177 132.657 365.094 131.211C365.329 130.847 365.565 130.494 365.8 130.13C366.047 129.789 366.294 129.448 366.541 129.107C367.047 128.437 367.564 127.779 368.093 127.144C369.152 125.886 370.222 124.676 371.316 123.665C372.41 122.654 373.48 121.772 374.492 121.043C375.503 120.326 376.444 119.75 377.291 119.409C378.138 119.068 378.867 118.927 379.432 119.01C381.714 119.339 382.396 123.277 383.207 128.402C383.995 133.527 384.972 139.804 387.277 145C388.242 147.198 388.324 149.408 387.853 151.535C387.371 153.675 386.313 155.685 384.948 157.613C382.243 161.492 378.291 164.842 374.821 167.31L374.798 167.299Z" fill="#3182CE"/>
<path d="M448.923 123.099C429.845 126.943 415.202 138.674 410.65 152.098C410.556 152.369 410.473 152.651 410.379 152.921C345.148 176.548 289.185 218.83 248.383 275.406C206.017 334.145 183.622 403.592 183.622 476.248C183.622 535.069 198.736 593.126 227.341 644.118L232.469 641.238C204.358 591.116 189.491 534.058 189.491 476.236C189.491 404.826 211.498 336.566 253.146 278.838C293.313 223.156 348.418 181.556 412.637 158.352C422.341 168.003 439.607 172.54 457.827 168.861C478.328 164.723 493.724 151.487 496.958 136.841C488.09 124.992 469.071 119.032 448.911 123.099H448.923Z" fill="#3182CE"/>
<path d="M647.642 526.957C640.348 526.957 634.644 525.157 630.694 521.615C626.766 518.085 624.768 512.837 624.768 506V441.842C624.768 435.005 626.907 429.604 631.114 425.794C635.346 421.972 641.19 420.032 648.483 420.032C655.777 420.032 661.481 421.832 665.432 425.373C669.511 428.903 671.568 434.163 671.568 440.989V505.146C671.568 511.984 669.359 517.372 665.011 521.183C660.768 525.016 654.924 526.957 647.63 526.957H647.642ZM648.063 431.779C645.596 431.779 643.492 432.714 641.809 434.56C640.138 436.232 639.285 438.394 639.285 440.989V506C639.285 508.583 640.138 510.815 641.809 512.638C643.516 514.345 645.62 515.21 648.063 515.21C650.657 515.21 652.82 514.357 654.515 512.662C656.209 510.815 657.063 508.583 657.063 506V440.989C657.063 438.394 656.209 436.232 654.515 434.537C652.843 432.714 650.669 431.779 648.063 431.779Z" fill="#3182CE"/>
<path d="M599.882 526.955C594.506 526.955 591.174 524.956 589.713 520.842L589.339 519.79L588.544 520.585C584.313 524.816 579.474 526.966 574.168 526.966C568.861 526.966 564.548 525.19 561.299 521.672C558.038 518.013 556.39 512.73 556.39 506.009V443.979C556.39 437.142 558.529 431.742 562.736 427.931C566.968 424.109 572.812 422.169 580.105 422.169H588.673V393.836C588.673 389.722 588.077 385.491 586.896 381.236C590.882 379.214 595.172 378.186 599.648 378.186C602.793 378.186 603.19 379.506 603.19 380.663V507.926C603.19 511.094 603.728 513.314 604.826 514.729L604.861 514.764C606.054 516.108 608.017 516.809 610.858 516.903C610.858 520.035 609.923 522.478 608.099 524.185C606.241 526.043 603.482 526.966 599.871 526.966L599.882 526.955ZM579.708 434.325C577.113 434.325 574.951 435.178 573.256 436.873C571.713 438.416 570.918 440.519 570.918 443.114V505.787C570.918 512.52 574.659 513.934 577.791 513.934C580.082 513.934 582.233 513.092 584.196 511.433C586.254 509.668 587.738 507.809 588.626 505.881L588.696 505.74V434.348H579.708V434.325Z" fill="#3182CE"/>
<path d="M514.663 526.956C499.129 526.956 491.578 520.305 491.578 506.63V440.135C491.578 426.6 499.339 420.02 515.306 420.02C531.272 420.02 539.243 427.43 539.243 442.683C539.243 448.785 538.121 454.488 535.901 459.608C533.703 464.704 530.641 468.596 526.807 471.203L506.107 485.439V505.146C506.107 511.446 509.216 514.777 515.095 514.777C518.134 514.777 520.46 513.854 522.003 512.03C523.523 510.242 524.294 507.565 524.294 504.082V499.173L523.698 489.776C525.287 489.448 526.889 489.285 528.478 489.285C530.372 489.285 532.16 489.553 533.773 490.103H533.82C536.894 490.886 538.378 492.253 538.378 494.322V509.622C538.378 515.092 536.251 519.289 531.88 522.433C527.637 525.448 521.839 526.968 514.663 526.968V526.956ZM514.663 432.21C510.759 432.21 506.095 433.473 506.095 439.504V471.296L517.421 462.799C521.98 459.421 524.294 452.431 524.294 442.052C524.294 439.025 523.359 436.629 521.512 434.946C519.7 433.134 517.398 432.21 514.663 432.21Z" fill="#3182CE"/>
<path d="M449.831 526.956C434.297 526.956 426.746 520.305 426.746 506.63V440.135C426.746 426.6 434.507 420.02 450.474 420.02C466.44 420.02 474.411 427.43 474.411 442.683C474.411 448.785 473.289 454.488 471.069 459.608C468.871 464.704 465.809 468.596 461.975 471.203L441.275 485.439V505.146C441.275 511.446 444.384 514.777 450.263 514.777C453.302 514.777 455.628 513.854 457.171 512.03C458.691 510.242 459.462 507.565 459.462 504.082V499.173L458.866 489.776C460.455 489.448 462.057 489.285 463.646 489.285C465.54 489.285 467.328 489.553 468.941 490.103H468.988C472.062 490.886 473.546 492.253 473.546 494.322V509.622C473.546 515.092 471.419 519.289 467.048 522.433C462.805 525.448 457.007 526.968 449.831 526.968V526.956ZM449.831 432.21C445.927 432.21 441.263 433.473 441.263 439.504V471.296L452.589 462.799C457.148 459.421 459.462 452.431 459.462 442.052C459.462 439.025 458.527 436.629 456.68 434.946C454.868 433.134 452.554 432.21 449.831 432.21Z" fill="#3182CE"/>
<path d="M368.405 525.681C365.834 525.681 365.506 524.36 365.506 523.203V439.071C365.506 435.903 364.899 433.671 363.648 432.245C362.584 430.889 360.679 430.187 357.851 430.094C357.851 426.961 358.716 424.507 360.422 422.789C362.386 420.954 365.226 420.019 368.849 420.019C374.191 420.019 377.44 422.625 378.785 427.978L379.194 429.591L380.082 428.177C383.518 422.683 388.252 420.007 394.564 420.007C405.808 420.007 411.278 425.267 411.278 436.078V457.328C411.278 459.385 409.782 460.764 406.72 461.524H406.673C405.048 462.073 403.272 462.354 401.378 462.354C399.812 462.354 398.222 462.19 396.644 461.874C397.018 458.929 397.205 455.75 397.205 452.442V441.607C397.205 436.558 394.751 433.893 390.122 433.893C387.948 433.893 385.914 434.898 384.079 436.885C382.326 438.79 380.994 440.941 380.117 443.278L380.07 443.395V508.114C380.07 514.577 380.526 520.106 381.426 524.547C377.429 525.295 373.069 525.669 368.464 525.669L368.405 525.681Z" fill="#3182CE"/>
<path d="M312.524 525.682C309.953 525.682 309.626 524.361 309.626 523.204V437.61L302.858 438.697C301.993 435.354 301.561 432.409 301.561 429.943C301.561 426.401 303.057 426.401 303.618 426.401H309.637V397.858C309.637 391.71 311.496 386.731 315.166 383.061C318.836 379.391 324.318 377.532 331.448 377.532C338.578 377.532 344.34 379.122 348.443 382.278C352.697 385.293 354.754 389.419 354.754 394.889V405.725C354.754 407.793 353.258 409.243 350.161 410.143C348.548 410.54 346.748 410.75 344.831 410.75C343.265 410.75 341.675 410.587 340.097 410.271C340.471 407.326 340.658 404.147 340.658 400.839V399.565C340.658 396.257 340.05 393.884 338.8 392.33C337.549 390.611 335.282 389.723 332.091 389.723C328.9 389.723 326.878 390.623 325.756 392.388C324.68 394.083 324.154 396.561 324.154 399.997V426.413H335.515L345.953 425.408C346.573 428.774 346.888 431.801 346.888 434.408C346.888 437.739 345.392 437.739 344.831 437.739H324.154V508.126C324.154 513.316 324.622 518.844 325.545 524.56C321.548 525.308 317.176 525.694 312.548 525.694L312.524 525.682Z" fill="#3182CE"/>
<path d="M707.591 426.576C705.007 428.902 699.911 435.167 700.963 442.834C701.174 443.793 701.361 445.523 702.261 445.885C702.506 445.92 702.728 445.698 702.997 445.289C703.242 444.915 703.511 444.4 703.839 443.863C704.423 442.869 705.206 441.642 705.931 440.625C717.046 425.325 727.753 436.885 735.865 449.31C735.97 449.31 735.993 449.169 736.028 449.064C736.122 448.503 736.262 447.404 736.589 446.095C736.952 444.669 737.513 442.951 738.425 441.21C747.448 425.009 759.23 437.586 764.829 445.055C765.027 445.3 765.133 445.452 765.425 445.219C767.774 443.29 771.176 438.1 770.042 432.432C768.031 421.994 757.488 418.745 750.697 419.867C749.47 420.065 748.816 420.322 747.355 420.872C745.519 421.597 742.971 422.859 740.657 424.858C739.547 425.769 738.343 427.137 737.443 428.119C737.209 428.352 737.104 428.399 736.999 428.329C730.745 418.067 719.361 416.547 707.626 426.541L707.591 426.576Z" fill="#3182CE"/>
<path d="M739.345 463.372L724.828 454.372V523.193C724.828 524.35 725.155 525.67 727.727 525.67C732.344 525.67 736.692 525.425 740.689 524.922C739.789 520.352 739.345 514.695 739.345 508.103V463.36V463.372Z" fill="#3182CE"/>
<path d="M772.456 514.754L772.421 514.719C771.322 513.305 770.785 511.072 770.785 507.916V461.513L756.268 453.928V512.159C756.268 517.501 757.144 521.358 758.862 523.602C760.697 525.823 763.514 526.957 767.243 526.957C770.972 526.957 773.824 526.021 775.682 524.175C777.505 522.468 778.44 520.025 778.44 516.893C775.6 516.799 773.637 516.098 772.444 514.754H772.456Z" fill="#3182CE"/>
<path d="M709.005 508.196C709.005 514.789 709.461 520.434 710.349 525.016C706.352 525.507 701.992 525.764 697.387 525.764C694.815 525.764 694.488 524.443 694.488 523.286L695.201 474.92C695.201 471.752 694.593 469.52 693.342 468.094C692.279 466.738 690.374 466.037 687.545 465.943C687.545 462.811 688.41 460.356 690.116 458.638C692.08 456.803 695.271 455.868 699.596 455.868C703.92 455.868 706.983 457.878 708.713 462.016L709.017 508.196H709.005Z" fill="#3182CE"/>
<path d="M714.498 595.402C714.498 598.457 714.716 601.013 715.152 603.07C713.282 603.319 711.256 603.444 709.074 603.444C708.015 603.444 707.485 602.976 707.485 602.041V565.013C707.485 563.703 707.235 562.768 706.737 562.207C706.3 561.646 705.428 561.366 704.119 561.366C704.056 559.745 704.461 558.498 705.334 557.625C706.269 556.753 707.734 556.316 709.729 556.316C711.724 556.316 713.158 557.283 714.03 559.215C716.087 557.283 718.3 556.316 720.669 556.316C723.1 556.316 725.033 557.096 726.467 558.654C727.963 560.213 728.711 562.426 728.711 565.293V595.309C728.711 596.618 728.929 597.553 729.365 598.114C729.864 598.675 730.768 598.955 732.077 598.955C732.14 600.576 731.703 601.823 730.768 602.696C729.895 603.568 728.586 604.005 726.841 604.005C725.095 604.005 723.786 603.475 722.913 602.415C722.103 601.355 721.698 599.61 721.698 597.179V565.854C721.698 563.797 720.638 562.768 718.519 562.768C716.773 562.768 715.433 563.735 714.498 565.667V595.402Z" fill="#3182CE"/>
<path d="M669.801 594.467V566.228C669.801 563.111 670.767 560.68 672.7 558.935C674.632 557.189 677.25 556.316 680.554 556.316C683.858 556.316 686.414 557.127 688.222 558.748C690.092 560.368 691.027 562.737 691.027 565.854V594.093C691.027 597.21 690.03 599.641 688.035 601.387C686.102 603.132 683.484 604.005 680.18 604.005C676.876 604.005 674.32 603.194 672.512 601.574C670.705 599.953 669.801 597.584 669.801 594.467ZM676.814 565.854V594.467C676.814 595.527 677.157 596.431 677.842 597.179C678.528 597.865 679.37 598.207 680.367 598.207C681.427 598.207 682.3 597.865 682.985 597.179C683.671 596.431 684.014 595.527 684.014 594.467V565.854C684.014 564.794 683.671 563.922 682.985 563.236C682.3 562.488 681.427 562.114 680.367 562.114C679.37 562.114 678.528 562.488 677.842 563.236C677.157 563.922 676.814 564.794 676.814 565.854Z" fill="#3182CE"/>
<path d="M649.784 548.743C647.103 548.743 645.763 546.967 645.763 543.413C645.763 539.86 647.103 538.083 649.784 538.083C652.464 538.083 653.804 539.86 653.804 543.413C653.804 546.967 652.464 548.743 649.784 548.743ZM643.986 557.252H653.337V595.31C653.337 596.619 653.555 597.554 653.991 598.115C654.49 598.676 655.394 598.956 656.703 598.956C656.765 600.577 656.329 601.824 655.394 602.697C654.521 603.569 653.212 604.006 651.467 604.006C649.721 604.006 648.412 603.476 647.539 602.416C646.729 601.356 646.324 599.611 646.324 597.18V562.863L643.425 563.33C642.989 561.71 642.771 560.307 642.771 559.123C642.771 557.876 643.176 557.252 643.986 557.252Z" fill="#3182CE"/>
<path d="M631.53 595.871C631.53 598.49 630.532 600.515 628.537 601.949C626.543 603.321 623.987 604.006 620.87 604.006C617.815 604.006 615.353 603.227 613.483 601.669C611.675 600.048 610.771 597.897 610.771 595.217V562.863L607.872 563.331C607.436 561.71 607.218 560.308 607.218 559.123C607.218 557.876 607.623 557.253 608.433 557.253H610.958L612.267 548.463C612.517 547.092 613.67 546.406 615.727 546.406C616.35 546.406 617.036 546.469 617.784 546.593V557.253H625.919L630.782 556.785C631.093 558.406 631.249 559.84 631.249 561.087C631.249 562.271 630.844 562.863 630.034 562.863H617.784V594.095C617.784 595.404 618.096 596.432 618.719 597.18C619.405 597.866 620.246 598.209 621.244 598.209C623.55 598.209 624.704 596.682 624.704 593.627V586.801L624.423 582.406C625.234 582.219 626.044 582.126 626.854 582.126C627.727 582.126 628.537 582.251 629.285 582.5C630.782 582.874 631.53 583.591 631.53 584.651V595.871Z" fill="#3182CE"/>
<path d="M581.796 585.958C579.739 587.329 578.71 589.636 578.71 592.878C578.71 596.057 579.677 597.646 581.609 597.646C583.604 597.646 585.162 596.524 586.284 594.28V582.966L581.796 585.958ZM582.825 556.316C589.807 556.316 593.297 559.402 593.297 565.574V595.309C593.297 596.618 593.516 597.553 593.952 598.114C594.451 598.675 595.355 598.955 596.664 598.955C596.726 600.576 596.29 601.823 595.355 602.696C594.482 603.568 593.204 604.005 591.521 604.005C588.903 604.005 587.313 603.039 586.752 601.106C584.819 603.039 582.544 604.005 579.926 604.005C577.308 604.005 575.219 603.007 573.661 601.013C572.102 599.018 571.323 596.337 571.323 592.971C571.323 587.859 573.474 583.994 577.775 581.376L586.284 576.327V566.228C586.284 563.61 585.038 562.301 582.544 562.301C580.113 562.301 578.897 563.766 578.897 566.696V569.781L579.178 574.176C578.367 574.363 577.526 574.457 576.653 574.457C575.843 574.457 575.064 574.332 574.315 574.083C572.819 573.709 572.071 572.992 572.071 571.932V564.264C572.071 561.771 573.038 559.838 574.97 558.467C576.965 557.033 579.583 556.316 582.825 556.316Z" fill="#3182CE"/>
<path d="M542.004 595.402C542.004 598.457 542.222 601.013 542.658 603.07C540.788 603.319 538.762 603.444 536.58 603.444C535.521 603.444 534.991 602.976 534.991 602.041V565.013C534.991 563.703 534.741 562.768 534.243 562.207C533.806 561.646 532.933 561.366 531.624 561.366C531.562 559.745 531.967 558.498 532.84 557.625C533.775 556.753 535.24 556.316 537.235 556.316C539.23 556.316 540.663 557.283 541.536 559.215C543.593 557.283 545.806 556.316 548.175 556.316C550.606 556.316 552.539 557.096 553.973 558.654C555.469 560.213 556.217 562.426 556.217 565.293V595.309C556.217 596.618 556.435 597.553 556.871 598.114C557.37 598.675 558.274 598.955 559.583 598.955C559.645 600.576 559.209 601.823 558.274 602.696C557.401 603.568 556.092 604.005 554.347 604.005C552.601 604.005 551.292 603.475 550.419 602.415C549.609 601.355 549.204 599.61 549.204 597.179V565.854C549.204 563.797 548.144 562.768 546.025 562.768C544.279 562.768 542.939 563.735 542.004 565.667V595.402Z" fill="#3182CE"/>
<path d="M513.852 548.743C511.171 548.743 509.831 546.967 509.831 543.413C509.831 539.86 511.171 538.083 513.852 538.083C516.532 538.083 517.873 539.86 517.873 543.413C517.873 546.967 516.532 548.743 513.852 548.743ZM508.054 557.252H517.405V595.31C517.405 596.619 517.623 597.554 518.06 598.115C518.558 598.676 519.462 598.956 520.771 598.956C520.834 600.577 520.397 601.824 519.462 602.697C518.59 603.569 517.281 604.006 515.535 604.006C513.79 604.006 512.48 603.476 511.608 602.416C510.797 601.356 510.392 599.611 510.392 597.18V562.863L507.493 563.33C507.057 561.71 506.839 560.307 506.839 559.123C506.839 557.876 507.244 557.252 508.054 557.252Z" fill="#3182CE"/>
<path d="M472.717 545.096C472.717 543.226 472.436 541.325 471.875 539.392C473.745 538.395 475.74 537.896 477.859 537.896C479.106 537.896 479.73 538.364 479.73 539.299V558.748C481.662 557.127 483.657 556.317 485.714 556.317C491.2 556.317 493.943 559.496 493.943 565.855V593.158C493.943 596.275 492.976 598.707 491.044 600.452C489.111 602.197 486.493 603.07 483.189 603.07H472.717V545.096ZM479.73 597.086H483.376C484.436 597.086 485.278 596.774 485.901 596.151C486.587 595.465 486.93 594.592 486.93 593.533V565.948C486.93 563.829 485.995 562.769 484.124 562.769C482.254 562.769 480.789 563.735 479.73 565.668V597.086Z" fill="#3182CE"/>
<path d="M428.481 595.402C428.481 598.457 428.699 601.013 429.136 603.07C427.266 603.319 425.24 603.444 423.058 603.444C421.998 603.444 421.468 602.976 421.468 602.041V565.013C421.468 563.703 421.219 562.768 420.72 562.207C420.284 561.646 419.411 561.366 418.102 561.366C418.04 559.745 418.445 558.498 419.318 557.625C420.253 556.753 421.718 556.316 423.712 556.316C425.77 556.316 427.203 557.283 428.014 559.215C429.946 557.283 432.253 556.316 434.933 556.316C437.676 556.316 439.733 557.532 441.105 559.963C443.224 557.532 445.562 556.316 448.118 556.316C450.736 556.316 452.731 557.096 454.102 558.654C455.474 560.213 456.159 562.426 456.159 565.293V595.309C456.159 596.618 456.378 597.553 456.814 598.114C457.313 598.675 458.217 598.955 459.526 598.955C459.588 600.576 459.152 601.823 458.217 602.696C457.344 603.568 456.035 604.005 454.289 604.005C452.544 604.005 451.235 603.475 450.362 602.415C449.552 601.355 449.146 599.61 449.146 597.179V565.854C449.146 563.797 448.18 562.768 446.248 562.768C444.564 562.768 443.255 563.735 442.32 565.667V595.402C442.32 598.457 442.538 601.013 442.975 603.07C441.105 603.319 439.079 603.444 436.897 603.444C435.837 603.444 435.307 602.976 435.307 602.041V565.854C435.307 563.797 434.341 562.768 432.409 562.768C430.725 562.768 429.416 563.735 428.481 565.667V595.402Z" fill="#3182CE"/>
<path d="M383.781 594.467V566.228C383.781 563.111 384.747 560.68 386.68 558.935C388.612 557.189 391.231 556.316 394.535 556.316C397.839 556.316 400.394 557.127 402.202 558.748C404.072 560.368 405.007 562.737 405.007 565.854V594.093C405.007 597.21 404.01 599.641 402.015 601.387C400.083 603.132 397.464 604.005 394.161 604.005C390.857 604.005 388.301 603.194 386.493 601.574C384.685 599.953 383.781 597.584 383.781 594.467ZM390.794 565.854V594.467C390.794 595.527 391.137 596.431 391.823 597.179C392.509 597.865 393.35 598.207 394.348 598.207C395.407 598.207 396.28 597.865 396.966 597.179C397.651 596.431 397.994 595.527 397.994 594.467V565.854C397.994 564.794 397.651 563.922 396.966 563.236C396.28 562.488 395.407 562.114 394.348 562.114C393.35 562.114 392.509 562.488 391.823 563.236C391.137 563.922 390.794 564.794 390.794 565.854Z" fill="#3182CE"/>
<path d="M366.178 593.626C368.672 594.748 369.918 596.368 369.918 598.488C369.918 599.174 369.638 599.735 369.077 600.171C366.583 602.727 362.812 604.005 357.762 604.005C351.404 604.005 348.225 600.514 348.225 593.532V565.48C348.225 559.371 351.84 556.316 359.071 556.316C362.251 556.316 364.744 557.033 366.552 558.467C368.36 559.901 369.264 561.833 369.264 564.264V571.932C369.264 572.992 368.516 573.709 367.02 574.083C366.272 574.332 365.461 574.457 364.588 574.457C363.778 574.457 362.968 574.363 362.157 574.176C362.344 572.805 362.438 571.34 362.438 569.781V566.696C362.438 565.137 362.157 564.015 361.596 563.329C361.035 562.644 360.069 562.301 358.697 562.301C356.391 562.301 355.238 563.267 355.238 565.2V592.41C355.238 594.342 355.549 595.745 356.173 596.618C356.796 597.491 357.825 597.927 359.258 597.927C360.755 597.927 362.188 597.459 363.56 596.524C364.931 595.589 365.804 594.623 366.178 593.626Z" fill="#3182CE"/>
</svg>
