<svg width="1080" height="1080" viewBox="0 0 1080 1080" fill="none" xmlns="http://www.w3.org/2000/svg">
<path d="M472.354 481.702C476.401 437.907 465.272 354.177 451.943 330.3C452.012 330.261 483.843 268.996 483.843 269.031C488.209 277.864 492.014 287.367 495.214 297.449C508.918 340.627 511.687 391.29 503.532 454.199L472.354 481.702Z" fill="#FF4F00"/>
<path d="M554.484 391.004C556.692 333.792 550.555 281.257 536.213 238.577C530.225 220.757 522.773 204.279 514.062 189.602C507.458 178.474 500.117 168.344 492.221 159.46L523.013 104.248C609.851 184.928 596.516 336.189 596.516 336.189L554.485 391.004H554.484Z" fill="#FF4F00"/>
<path d="M510.523 447.043C517.284 387.416 514.405 337.363 501.151 295.601C495.626 278.192 488.337 262.437 479.485 248.774C479.431 248.774 508.923 192.687 508.863 192.68C517.359 206.998 524.637 223.094 530.493 240.519C545.344 284.716 551.248 337.633 548.047 397.807L510.523 447.042V447.043Z" fill="#FF4F00"/>
<path d="M555.267 399.037L681.028 418.618L514.211 450.932L555.267 399.037Z" fill="#FF4F00"/>
<path d="M520.9 455.391L688.451 422.932L627.656 480.127L520.9 455.391Z" fill="#FF4F00"/>
<path d="M512.546 459.247L620.785 484.328L546.817 526.241L512.546 459.247Z" fill="#FF4F00"/>
<path d="M508.07 462.676L541.801 528.613L482.832 551.806L508.07 462.676Z" fill="#FF4F00"/>
<path d="M502.175 463.208L476.572 553.628L395.956 553.656L502.175 463.208Z" fill="#FF4F00"/>
<path d="M605.975 338.631L694.677 312.53V412.382L605.975 338.631Z" fill="#FF4F00"/>
<path d="M641.203 227.167L708.058 226.584L699.963 275.944L700.004 275.932L695.779 301.8L641.203 227.167Z" fill="#FF4F00"/>
<path d="M559.271 393.945L600.544 341.394L687.822 413.962L559.271 393.945Z" fill="#FF4F00"/>
<path d="M715.947 227.612L789.333 256.446L707.174 281.284L715.947 227.612Z" fill="#FF4F00"/>
<path d="M602.89 276.01L688.588 308.444L602.89 333.66V276.01Z" fill="#FF4F00"/>
<path d="M604.596 270.632L635.698 229.07L689.624 302.812L604.596 270.632Z" fill="#FF4F00"/>
<path d="M290 562.59L388.365 559.31H462.455L348.235 600.569L290 562.59Z" fill="#FF4F00"/>
<path d="M391.668 648.848L474.091 565.081L454.625 660.548L399.486 703.448L391.668 648.848Z" fill="#FF4F00"/>
<path d="M353.364 644.97L350.792 605.646L468.008 563.3L387.608 644.97H353.364Z" fill="#FF4F00"/>
<path d="M426.486 845.4C426.006 845.4 425.574 845.256 425.19 844.968C424.902 844.584 424.758 844.152 424.758 843.672V746.328C424.758 745.848 424.902 745.464 425.19 745.176C425.574 744.792 426.006 744.6 426.486 744.6H452.55C461.286 744.6 468.294 747.144 473.574 752.232C478.854 757.32 481.494 764.088 481.494 772.536V817.464C481.494 825.912 478.854 832.68 473.574 837.768C468.294 842.856 461.286 845.4 452.55 845.4H426.486ZM445.062 827.256C445.062 827.736 445.302 827.976 445.782 827.976L452.262 827.832C454.854 827.736 456.966 826.632 458.598 824.52C460.23 822.408 461.094 819.624 461.19 816.168V773.832C461.19 770.184 460.374 767.304 458.742 765.192C457.11 763.08 454.902 762.024 452.118 762.024H445.782C445.302 762.024 445.062 762.264 445.062 762.744V827.256Z" fill="#FF4F00"/>
<path d="M391.973 746.328C391.973 745.848 392.117 745.464 392.405 745.176C392.789 744.792 393.221 744.6 393.701 744.6H410.405C410.885 744.6 411.269 744.792 411.557 745.176C411.941 745.464 412.133 745.848 412.133 746.328V843.672C412.133 844.152 411.941 844.584 411.557 844.968C411.269 845.256 410.885 845.4 410.405 845.4H391.397C390.437 845.4 389.813 844.92 389.525 843.96L371.669 788.232C371.573 787.944 371.381 787.848 371.093 787.944C370.901 787.944 370.805 788.088 370.805 788.376L370.949 843.672C370.949 844.152 370.757 844.584 370.373 844.968C370.085 845.256 369.701 845.4 369.221 845.4H352.517C352.037 845.4 351.605 845.256 351.221 844.968C350.933 844.584 350.789 844.152 350.789 843.672V746.328C350.789 745.848 350.933 745.464 351.221 745.176C351.605 744.792 352.037 744.6 352.517 744.6H371.381C372.341 744.6 372.965 745.08 373.253 746.04L391.253 801.768C391.349 802.056 391.493 802.2 391.685 802.2C391.973 802.104 392.117 801.912 392.117 801.624L391.973 746.328Z" fill="#FF4F00"/>
<path d="M340.496 760.296C340.496 760.776 340.304 761.208 339.92 761.592C339.632 761.88 339.248 762.024 338.768 762.024H308.672C308.192 762.024 307.952 762.264 307.952 762.744V785.496C307.952 785.976 308.192 786.216 308.672 786.216H325.952C326.432 786.216 326.816 786.408 327.104 786.792C327.488 787.08 327.68 787.464 327.68 787.944V801.912C327.68 802.392 327.488 802.824 327.104 803.208C326.816 803.496 326.432 803.64 325.952 803.64H308.672C308.192 803.64 307.952 803.88 307.952 804.36V827.256C307.952 827.736 308.192 827.976 308.672 827.976H338.768C339.248 827.976 339.632 828.168 339.92 828.552C340.304 828.84 340.496 829.224 340.496 829.704V843.672C340.496 844.152 340.304 844.584 339.92 844.968C339.632 845.256 339.248 845.4 338.768 845.4H289.376C288.896 845.4 288.464 845.256 288.08 844.968C287.792 844.584 287.648 844.152 287.648 843.672V746.328C287.648 745.848 287.792 745.464 288.08 745.176C288.464 744.792 288.896 744.6 289.376 744.6H338.768C339.248 744.6 339.632 744.792 339.92 745.176C340.304 745.464 340.496 745.848 340.496 746.328V760.296Z" fill="#FF4F00"/>
<path d="M259.611 845.4C258.555 845.4 257.883 844.92 257.595 843.96L246.507 804.216C246.315 803.832 246.075 803.64 245.787 803.64H240.891C240.411 803.64 240.171 803.88 240.171 804.36V843.672C240.171 844.152 239.979 844.584 239.595 844.968C239.307 845.256 238.923 845.4 238.443 845.4H221.595C221.115 845.4 220.683 845.256 220.299 844.968C220.011 844.584 219.867 844.152 219.867 843.672V746.328C219.867 745.848 220.011 745.464 220.299 745.176C220.683 744.792 221.115 744.6 221.595 744.6H250.683C255.963 744.6 260.667 745.896 264.795 748.488C268.923 750.984 272.091 754.536 274.299 759.144C276.603 763.752 277.755 769.032 277.755 774.984C277.755 780.648 276.651 785.64 274.443 789.96C272.331 794.28 269.355 797.64 265.515 800.04C265.323 800.136 265.179 800.28 265.083 800.472C264.987 800.568 264.987 800.712 265.083 800.904L278.331 843.384L278.475 843.96C278.475 844.92 277.947 845.4 276.891 845.4H259.611ZM240.891 762.024C240.411 762.024 240.171 762.264 240.171 762.744V787.368C240.171 787.848 240.411 788.088 240.891 788.088H247.371C250.347 788.088 252.747 786.936 254.571 784.632C256.491 782.232 257.451 779.064 257.451 775.128C257.451 771.096 256.491 767.928 254.571 765.624C252.747 763.224 250.347 762.024 247.371 762.024H240.891Z" fill="#FF4F00"/>
<path d="M208.38 744.6C208.86 744.6 209.244 744.792 209.532 745.176C209.916 745.464 210.108 745.848 210.108 746.328V760.296C210.108 760.776 209.916 761.208 209.532 761.592C209.244 761.88 208.86 762.024 208.38 762.024H190.38C189.9 762.024 189.66 762.264 189.66 762.744V843.672C189.66 844.152 189.468 844.584 189.084 844.968C188.796 845.256 188.412 845.4 187.932 845.4H171.084C170.604 845.4 170.172 845.256 169.788 844.968C169.5 844.584 169.356 844.152 169.356 843.672V762.744C169.356 762.264 169.116 762.024 168.636 762.024H151.356C150.876 762.024 150.444 761.88 150.06 761.592C149.772 761.208 149.628 760.776 149.628 760.296V746.328C149.628 745.848 149.772 745.464 150.06 745.176C150.444 744.792 150.876 744.6 151.356 744.6H208.38Z" fill="#FF4F00"/>
<rect x="501.494" y="713.448" width="438.878" height="163.104" rx="20" fill="#FF4F00"/>
<path d="M872.148 846.552C866.58 846.552 861.684 845.448 857.46 843.24C853.236 841.032 849.972 837.96 847.668 834.024C845.364 829.992 844.212 825.384 844.212 820.2V816.024C844.212 815.544 844.356 815.16 844.644 814.872C845.028 814.488 845.46 814.296 845.94 814.296H862.5C862.98 814.296 863.364 814.488 863.652 814.872C864.036 815.16 864.228 815.544 864.228 816.024V819.192C864.228 822.168 864.996 824.568 866.532 826.392C868.068 828.216 869.988 829.128 872.292 829.128C874.596 829.128 876.516 828.264 878.052 826.536C879.588 824.808 880.356 822.552 880.356 819.768C880.356 816.888 879.396 814.44 877.476 812.424C875.556 810.312 871.812 807.24 866.244 803.208C861.444 799.752 857.556 796.68 854.58 793.992C851.604 791.304 849.06 787.992 846.948 784.056C844.836 780.12 843.78 775.56 843.78 770.376C843.78 762.216 846.324 755.688 851.412 750.792C856.5 745.896 863.22 743.448 871.572 743.448C880.02 743.448 886.788 745.992 891.876 751.08C897.06 756.168 899.652 762.84 899.652 771.096V774.552C899.652 775.032 899.46 775.464 899.076 775.848C898.788 776.136 898.404 776.28 897.924 776.28H881.364C880.884 776.28 880.452 776.136 880.068 775.848C879.78 775.464 879.636 775.032 879.636 774.552V770.664C879.636 767.688 878.868 765.336 877.332 763.608C875.892 761.784 873.972 760.872 871.572 760.872C869.268 760.872 867.396 761.736 865.956 763.464C864.516 765.096 863.796 767.4 863.796 770.376C863.796 773.256 864.708 775.8 866.532 778.008C868.356 780.216 871.956 783.288 877.332 787.224C883.284 791.64 887.748 795.24 890.724 798.024C893.796 800.712 896.148 803.736 897.78 807.096C899.508 810.36 900.372 814.296 900.372 818.904C900.372 827.352 897.78 834.072 892.596 839.064C887.412 844.056 880.596 846.552 872.148 846.552Z" fill="white"/>
<path d="M834.741 744.6C835.221 744.6 835.605 744.792 835.893 745.176C836.277 745.464 836.469 745.848 836.469 746.328V760.296C836.469 760.776 836.277 761.208 835.893 761.592C835.605 761.88 835.221 762.024 834.741 762.024H816.741C816.261 762.024 816.021 762.264 816.021 762.744V843.672C816.021 844.152 815.829 844.584 815.445 844.968C815.157 845.256 814.773 845.4 814.293 845.4H797.445C796.965 845.4 796.533 845.256 796.149 844.968C795.861 844.584 795.717 844.152 795.717 843.672V762.744C795.717 762.264 795.477 762.024 794.997 762.024H777.717C777.237 762.024 776.805 761.88 776.421 761.592C776.133 761.208 775.989 760.776 775.989 760.296V746.328C775.989 745.848 776.133 745.464 776.421 745.176C776.805 744.792 777.237 744.6 777.717 744.6H834.741Z" fill="white"/>
<path d="M745.826 746.328C745.826 745.848 745.97 745.464 746.258 745.176C746.642 744.792 747.074 744.6 747.554 744.6H764.402C764.882 744.6 765.266 744.792 765.554 745.176C765.938 745.464 766.13 745.848 766.13 746.328V843.672C766.13 844.152 765.938 844.584 765.554 844.968C765.266 845.256 764.882 845.4 764.402 845.4H747.554C747.074 845.4 746.642 845.256 746.258 844.968C745.97 844.584 745.826 844.152 745.826 843.672V804.36C745.826 803.88 745.586 803.64 745.106 803.64H730.706C730.226 803.64 729.986 803.88 729.986 804.36V843.672C729.986 844.152 729.794 844.584 729.41 844.968C729.122 845.256 728.738 845.4 728.258 845.4H711.41C710.93 845.4 710.498 845.256 710.114 844.968C709.826 844.584 709.682 844.152 709.682 843.672V746.328C709.682 745.848 709.826 745.464 710.114 745.176C710.498 744.792 710.93 744.6 711.41 744.6H728.258C728.738 744.6 729.122 744.792 729.41 745.176C729.794 745.464 729.986 745.848 729.986 746.328V785.496C729.986 785.976 730.226 786.216 730.706 786.216H745.106C745.586 786.216 745.826 785.976 745.826 785.496V746.328Z" fill="white"/>
<path d="M669.678 846.552C661.038 846.552 654.078 844.104 648.798 839.208C643.614 834.216 641.022 827.592 641.022 819.336V770.664C641.022 762.408 643.614 755.832 648.798 750.936C654.078 745.944 661.038 743.448 669.678 743.448C678.318 743.448 685.278 745.944 690.558 750.936C695.838 755.928 698.478 762.552 698.478 770.808V776.28C698.478 776.76 698.286 777.192 697.902 777.576C697.614 777.864 697.23 778.008 696.75 778.008H679.902C679.422 778.008 678.99 777.864 678.606 777.576C678.318 777.192 678.174 776.76 678.174 776.28V770.52C678.174 767.64 677.406 765.336 675.87 763.608C674.334 761.784 672.27 760.872 669.678 760.872C667.182 760.872 665.166 761.784 663.63 763.608C662.094 765.336 661.326 767.64 661.326 770.52V819.48C661.326 822.36 662.094 824.712 663.63 826.536C665.166 828.264 667.182 829.128 669.678 829.128C672.27 829.128 674.334 828.264 675.87 826.536C677.406 824.712 678.174 822.36 678.174 819.48V807.96C678.174 807.48 677.934 807.24 677.454 807.24H671.118C670.638 807.24 670.206 807.096 669.822 806.808C669.534 806.424 669.39 805.992 669.39 805.512V792.696C669.39 792.216 669.534 791.832 669.822 791.544C670.206 791.16 670.638 790.968 671.118 790.968H696.75C697.23 790.968 697.614 791.16 697.902 791.544C698.286 791.832 698.478 792.216 698.478 792.696V819.336C698.478 827.592 695.838 834.216 690.558 839.208C685.278 844.104 678.318 846.552 669.678 846.552Z" fill="white"/>
<path d="M611.003 845.4C610.523 845.4 610.091 845.256 609.707 844.968C609.419 844.584 609.275 844.152 609.275 843.672V746.328C609.275 745.848 609.419 745.464 609.707 745.176C610.091 744.792 610.523 744.6 611.003 744.6H627.851C628.331 744.6 628.715 744.792 629.003 745.176C629.387 745.464 629.579 745.848 629.579 746.328V843.672C629.579 844.152 629.387 844.584 629.003 844.968C628.715 845.256 628.331 845.4 627.851 845.4H611.003Z" fill="white"/>
<path d="M581.238 845.4C580.182 845.4 579.51 844.92 579.222 843.96L568.134 804.216C567.942 803.832 567.702 803.64 567.414 803.64H562.518C562.038 803.64 561.798 803.88 561.798 804.36V843.672C561.798 844.152 561.606 844.584 561.222 844.968C560.934 845.256 560.55 845.4 560.07 845.4H543.222C542.742 845.4 542.31 845.256 541.926 844.968C541.638 844.584 541.494 844.152 541.494 843.672V746.328C541.494 745.848 541.638 745.464 541.926 745.176C542.31 744.792 542.742 744.6 543.222 744.6H572.31C577.59 744.6 582.294 745.896 586.422 748.488C590.55 750.984 593.718 754.536 595.926 759.144C598.23 763.752 599.382 769.032 599.382 774.984C599.382 780.648 598.278 785.64 596.07 789.96C593.958 794.28 590.982 797.64 587.142 800.04C586.95 800.136 586.806 800.28 586.71 800.472C586.614 800.568 586.614 800.712 586.71 800.904L599.958 843.384L600.102 843.96C600.102 844.92 599.574 845.4 598.518 845.4H581.238ZM562.518 762.024C562.038 762.024 561.798 762.264 561.798 762.744V787.368C561.798 787.848 562.038 788.088 562.518 788.088H568.998C571.974 788.088 574.374 786.936 576.198 784.632C578.118 782.232 579.078 779.064 579.078 775.128C579.078 771.096 578.118 767.928 576.198 765.624C574.374 763.224 571.974 762.024 568.998 762.024H562.518Z" fill="white"/>
</svg>
