<svg width="1080" height="1080" viewBox="0 0 1080 1080" fill="none" xmlns="http://www.w3.org/2000/svg">
<rect width="1080" height="1080" rx="540" />
<path d="M706.563 118.032C706.557 118.035 706.518 118.057 706.45 118.096C705.396 118.697 697.264 123.335 692.107 124.803C689.16 125.644 681.643 126.381 673.661 127.164L672.813 127.247C665.78 127.942 658.576 128.653 653.034 129.552C651.741 129.763 650.341 130.069 648.871 130.468C650.953 128.964 655.834 125.167 656.398 122.522C657.751 122.017 658.951 121.488 659.786 120.947C663.055 118.808 665.937 114.799 666.161 114.482C667.737 113.201 669.607 110.556 671.724 106.606C673.3 103.667 674.429 101.058 674.441 101.023L674.888 100L674.123 100.811L674.109 100.826C673.786 101.162 668.281 106.883 660.574 111.285C657.304 113.142 652.576 115.399 647.565 117.785L647.263 117.929L647.262 117.93C640.068 121.361 631.983 125.218 626.323 128.846C617.278 134.63 613.279 142.447 612.797 143.446C608.866 143.786 605.497 142.523 601.931 141.187L601.906 141.177C599.847 140.401 597.707 139.602 595.389 139.096C589.003 137.686 585.262 142.106 585.227 142.153L585.062 142.352L585.298 142.458C585.298 142.458 586.65 143.058 589.473 144.186C591.779 145.103 597.612 152.45 602.294 158.362C602.435 158.539 602.575 158.714 602.713 158.889C602.939 159.172 603.162 159.452 603.381 159.728L603.405 159.758C604.02 160.531 604.608 161.271 605.164 161.959C609.762 167.661 617.713 171.022 626.97 171.175C634.686 171.305 642.79 171.857 649.729 175.054C654.634 177.311 661.044 185.128 665.29 190.312L665.51 190.58C667.063 192.474 668.282 193.961 669.136 194.814C670.912 196.589 673.077 197.694 674.535 197.694C674.911 197.694 675.253 197.623 675.523 197.459C675.958 197.2 676.382 196.624 676.135 195.378C677.252 196.119 678.217 196.495 679.028 196.495C679.581 196.495 679.957 196.307 680.134 195.931C680.475 195.225 680.04 193.85 678.828 191.864C678.417 191.194 677.993 190.571 677.652 190.089C679.275 191.1 680.828 191.617 682.286 191.617C683.509 191.617 684.25 191.311 684.497 190.7C685.074 189.313 682.827 186.809 680.792 184.775C679.71 183.694 675.617 179.921 668.642 177.006C665.973 175.894 663.246 174.934 660.356 173.917L660.071 173.816C656.207 172.456 652.224 171.054 648.353 169.224C642.26 166.344 633.122 156.764 631.475 155.012C641.684 153.649 647.424 149.405 647.483 149.358L647.459 149.335C648.447 149.276 649.388 149.17 650.212 148.994C654.516 148.089 659.351 144.198 659.398 144.151L659.374 144.127C660.691 144.045 661.868 143.904 662.726 143.646C666.749 142.482 671.736 139.531 672.159 139.273C674.864 139.226 677.158 139.014 678.24 138.52C680.157 137.651 682.333 136.028 683.827 134.818C684.686 134.124 685.391 133.501 685.838 133.101L685.926 133.021L685.975 132.977L686.049 132.91L686.182 132.791L686.203 132.772L686.208 132.767C686.394 132.601 686.511 132.496 686.579 132.42C689.931 132.114 692.554 131.479 695.142 130.222C699.529 128.094 706.516 118.702 706.81 118.302L707.374 117.538L706.551 118.02L706.563 118.032Z" fill="white"/>
<path d="M303.46 719.63C304.307 720.453 305.13 721.241 306 721.805H306.024C305.871 721.158 305.542 720.218 305.048 718.984L304.883 718.572C296.403 696.661 290.169 673.011 286.358 648.338C283.618 633.045 279.607 616.987 273.714 597.804C269.903 587.765 264.199 575.834 253.754 572.507C252.084 571.967 250.331 571.638 248.532 571.532C245.144 571.332 241.639 571.908 238.123 573.248C236.594 573.836 235.747 574.482 235.606 575.176L235.582 575.293C235.5 575.752 235.653 576.551 236.052 577.668C244.745 602.658 249.72 627.496 250.861 651.511V651.605C250.602 665.911 255.154 681.721 263.669 696.097L263.716 696.179L263.752 696.273C264.41 697.837 266.41 699.236 268.903 699.87C281.3 703.467 292.956 709.921 301.731 718.043C302.321 718.54 302.888 719.083 303.432 719.604L303.434 719.605L303.435 719.607L303.46 719.63Z" fill="white"/>
<path d="M438.589 986.288C453.256 993.964 470.37 999.042 484.366 999.865L484.331 999.877C498.363 1000.7 516.029 997.796 520.557 979.27C521.663 974.898 521.992 969.467 521.557 962.649C520.887 950.154 520.052 939.774 518.97 929.971C517.652 918.052 515.947 907.284 513.783 897.058C510.548 882.258 507.443 870.116 499.421 859.877C467.581 821.193 414.853 799.413 372.459 781.902L372.417 781.884C353.21 773.797 336.861 762.454 323.793 748.16C308.855 731.339 292.436 714.259 270.535 706.336C267.16 705.09 263.149 704.279 259.256 704.056C251.163 703.574 244.342 705.584 240.507 709.569C236.626 714.506 240.025 721.253 244.295 727.824C256.139 742.764 282.45 769.189 301.387 787.28C305.292 790.924 307.326 792.605 311.149 795.531C323.205 805.076 337.801 818.406 343.659 836.838L343.729 837.085V837.343L343.729 837.358C343.717 837.631 343.683 838.388 343.083 838.918C342.741 839.224 342.283 839.377 341.812 839.353C340.507 839.283 339.695 838.084 337.554 834.405C337.143 833.676 336.708 832.935 336.519 832.688L336.461 832.606C335.641 831.336 334.84 830.037 334.058 828.769L333.779 828.316L333.764 828.292C331.452 824.538 329.068 820.668 326.181 817.454C320.347 811.73 311.937 803.866 303.045 795.555C292.06 785.293 279.615 773.656 268.877 763.124L267.124 761.407C260.561 754.977 257.268 751.745 252.422 746.161C246.976 739.967 240.79 732.926 236.414 724.768C232.944 718.596 232.027 713.53 233.615 709.275C235.062 705.384 238.672 702.316 244.353 700.165C247.094 699.166 249.646 698.684 253.845 698.39L253.978 698.383C254.935 698.335 256.683 698.247 256.997 697.955C256.997 697.955 257.068 697.591 256.492 696.58C254.398 692.583 252.304 688.504 250.281 684.555C244.625 673.526 238.778 662.14 232.283 651.343L232.468 651.239C204.357 601.116 189.49 544.059 189.49 486.237C189.49 414.827 211.497 346.567 253.146 288.839C293.312 233.157 348.417 191.556 412.637 168.352C422.34 178.003 439.607 182.54 457.826 178.861C478.327 174.724 493.723 161.488 496.957 146.841C488.089 134.992 469.07 129.033 448.91 133.1H448.922C429.844 136.944 415.201 148.675 410.649 162.099C410.602 162.234 410.558 162.372 410.514 162.51L410.513 162.513C410.469 162.65 410.425 162.787 410.378 162.922C345.147 186.549 289.184 228.831 248.382 285.407C206.016 344.145 183.621 413.592 183.621 486.249C183.621 535.493 194.214 584.202 214.449 628.679C209.767 624.237 204.876 620.646 199.729 617.858C196 615.989 192.284 614.931 188.684 614.719C186.65 614.602 184.591 614.755 182.604 615.154C181.38 615.413 180.451 615.824 179.851 616.33C178.534 617.517 178.534 620.009 179.851 623.947L180.498 625.769C181.863 629.625 183.274 633.598 184.897 637.371L186.871 641.329C197.43 662.517 208.341 684.409 215.572 707.418C217.948 715.058 220.477 721.606 223.311 727.448C226.652 734.477 230.874 741.248 234.967 747.807C237.249 751.451 239.602 755.224 241.766 758.986L243.448 761.795C250.893 774.208 258.597 787.056 263.231 801.056C266.313 810.119 270.524 818.148 275.746 824.942C279.251 829.597 283.885 834.275 289.954 839.259C307.355 853.948 325.352 868.536 342.79 882.672L342.793 882.674L343.976 883.634C351.845 890.005 359.984 896.599 367.971 903.123C376.757 910.387 383.837 916.547 390.224 922.46C402.95 933.826 413.595 944.864 414.948 964.906V965.012C415.653 970.784 424.933 979.141 438.589 986.288Z" fill="white"/>
<path d="M339.833 754.142C339.668 754.118 339.304 753.754 339.151 753.601C337.281 751.709 319.344 733.524 319.344 733.524L318.662 732.842C317.285 731.479 316.297 730.491 315.639 728.693C311.052 716.938 306.335 704.607 302.818 693.863C299.584 683.754 297.408 673.551 295.291 663.113C293.759 656.089 292.562 648.894 291.399 641.908L291.172 640.542C289.866 632.661 288.518 624.528 286.705 616.587C285.434 611.286 283.694 606.043 282 600.965C281.831 600.446 281.658 599.93 281.486 599.414L281.482 599.402C281.309 598.882 281.135 598.362 280.965 597.838C280.823 597.282 280.61 596.654 280.382 595.984L280.33 595.828C279.777 594.23 278.754 591.268 279.6 590.574C280.377 590.116 281.635 590.092 282.847 590.08C283.282 590.08 283.741 590.092 284.188 590.116C297.549 590.903 306.429 603.058 310.287 614.166C311.769 618.362 312.887 623.064 313.792 628.989C317.497 656.013 323.178 680.416 331.129 703.561C334.728 715.269 338.374 731.573 339.598 741.447C340.198 746.09 340.515 750.028 340.515 753.178V753.26C340.527 753.472 340.409 753.742 340.209 753.93C340.068 754.06 339.927 754.13 339.809 754.13L339.833 754.142Z" fill="white"/>
<path d="M350.271 761.959C350.53 762.194 370.995 775.407 375.959 777.546L375.971 777.558C375.583 774.607 374.771 770.246 373.854 766.779C372.525 762.465 370.819 758.186 369.161 754.048C367.62 750.216 366.032 746.255 364.75 742.246C359.929 728.004 358.799 713.045 357.706 698.567L357.705 698.554C357.152 691.231 356.575 683.661 355.54 676.349C354.893 672.693 354.023 669.555 352.835 666.734C351.53 663.395 347.613 655.555 339.356 655.073L339.346 655.072C338.267 655.014 337.098 654.95 333.134 657.189C326.774 663.018 330.89 678.369 333.045 686.41C333.533 688.228 333.92 689.673 334.063 690.549C334.534 693.652 346.801 756.094 347.648 759.021C348.173 760.07 349.184 760.981 350.245 761.936L350.271 761.959Z" fill="white"/>
<path d="M596.81 999.865C610.807 999.042 627.92 993.964 642.587 986.288C656.243 979.141 665.523 970.784 666.229 965.012V964.906C667.581 944.864 678.226 933.827 690.952 922.46C697.339 916.547 704.42 910.388 713.206 903.123C721.192 896.599 729.331 890.005 737.2 883.634L738.389 882.67L738.399 882.662L738.406 882.656C755.838 868.526 773.828 853.943 791.222 839.259C797.291 834.275 801.925 829.597 805.43 824.942C810.653 818.148 814.864 810.119 817.945 801.056C822.579 787.056 830.283 774.208 837.729 761.795L839.411 758.986C841.575 755.224 843.927 751.451 846.209 747.807C850.302 741.248 854.525 734.477 857.865 727.448C860.7 721.606 863.228 715.058 865.604 707.418C872.836 684.409 883.746 662.517 894.305 641.329L896.279 637.371C897.902 633.598 899.314 629.625 900.678 625.769L901.325 623.947C902.642 620.009 902.642 617.517 901.325 616.33C900.725 615.825 899.796 615.413 898.573 615.154C896.585 614.755 894.527 614.602 892.492 614.72C888.893 614.931 885.176 615.989 881.448 617.858C869.839 624.147 859.535 634.515 849.996 649.525C843.057 660.857 836.87 672.906 830.895 684.555C828.872 688.504 826.778 692.583 824.685 696.58C824.108 697.591 824.179 697.955 824.179 697.955C824.493 698.247 826.241 698.335 827.198 698.383L827.331 698.39C831.53 698.684 834.082 699.166 836.823 700.165C842.504 702.316 846.115 705.384 847.562 709.275C849.149 713.53 848.232 718.597 844.762 724.768C840.387 732.926 834.2 739.967 828.754 746.162C823.908 751.745 820.615 754.978 814.052 761.407L812.299 763.124C801.561 773.656 789.117 785.293 778.131 795.555C769.239 803.866 760.829 811.73 754.996 817.454C752.108 820.668 749.724 824.538 747.412 828.292L747.121 828.764L747.116 828.771C746.335 830.039 745.535 831.336 744.716 832.606L744.657 832.688C744.469 832.935 744.034 833.676 743.622 834.405C741.481 838.084 740.67 839.283 739.364 839.353C738.894 839.377 738.435 839.224 738.094 838.919C737.494 838.388 737.46 837.631 737.448 837.358L737.447 837.343V837.085L737.517 836.838C743.375 818.406 757.971 805.077 770.027 795.532C773.85 792.605 775.885 790.924 779.79 787.28C798.726 769.189 825.038 742.764 836.882 727.824C841.151 721.253 844.551 714.506 840.669 709.569C836.835 705.584 830.013 703.574 821.921 704.056C818.028 704.279 814.017 705.09 810.641 706.336C788.74 714.259 772.321 731.339 757.383 748.16C744.316 762.454 727.967 773.797 708.76 781.884L708.717 781.902C666.323 799.414 613.595 821.194 581.755 859.877C573.733 870.116 570.628 882.258 567.394 897.058C565.23 907.284 563.524 918.052 562.207 929.971C561.125 939.775 560.29 950.154 559.619 962.649C559.184 969.467 559.513 974.898 560.619 979.271C565.147 997.796 582.814 1000.7 596.845 999.877L596.81 999.865Z" fill="white"/>
<path d="M777.707 719.631C776.86 720.453 776.036 721.241 775.166 721.805H775.143C775.295 721.159 775.625 720.218 776.119 718.984L776.284 718.573C784.764 696.662 790.998 673.011 794.808 648.338C797.549 633.045 801.56 616.988 807.452 597.804C811.263 587.765 816.968 575.834 827.412 572.508C829.083 571.967 830.835 571.638 832.635 571.532C836.022 571.332 839.527 571.908 843.044 573.248C844.573 573.836 845.42 574.482 845.561 575.176L845.584 575.294C845.667 575.752 845.514 576.551 845.114 577.668C836.422 602.659 831.447 627.497 830.306 651.512V651.606C830.565 665.911 826.013 681.721 817.497 696.097L817.45 696.18L817.415 696.274C816.756 697.837 814.757 699.236 812.263 699.871C799.866 703.468 788.21 709.921 779.436 718.044C778.843 718.543 778.274 719.088 777.728 719.61L777.707 719.631Z" fill="white"/>
<path d="M741.327 754.142C741.492 754.118 741.857 753.754 742.01 753.601C743.88 751.709 761.817 733.524 761.817 733.524L762.499 732.842C763.875 731.479 764.863 730.491 765.522 728.693C770.109 716.938 774.825 704.607 778.342 693.863C781.577 683.754 783.753 673.551 785.87 663.113C787.401 656.09 788.599 648.894 789.761 641.908L789.988 640.544C791.294 632.663 792.643 624.529 794.456 616.587C795.726 611.286 797.467 606.043 799.161 600.965C799.331 600.443 799.504 599.924 799.677 599.405L799.678 599.401L799.68 599.397L799.842 598.909C799.961 598.553 800.079 598.196 800.196 597.839C800.338 597.282 800.55 596.655 800.778 595.985L800.779 595.982L800.831 595.828C801.384 594.23 802.407 591.268 801.56 590.574C800.784 590.116 799.525 590.092 798.314 590.08C797.879 590.08 797.42 590.092 796.973 590.116C783.611 590.903 774.731 603.058 770.873 614.166C769.391 618.362 768.274 623.064 767.368 628.989C763.663 656.013 757.982 680.416 750.031 703.561C746.432 715.269 742.786 731.573 741.563 741.447C740.963 746.09 740.645 750.028 740.645 753.178V753.26C740.634 753.472 740.751 753.742 740.951 753.93C741.092 754.06 741.233 754.13 741.351 754.13L741.327 754.142Z" fill="white"/>
<path d="M730.901 761.959C730.642 762.194 710.176 775.407 705.213 777.546L705.201 777.558C705.589 774.607 706.401 770.246 707.318 766.779C708.647 762.465 710.353 758.186 712.011 754.048C713.552 750.216 715.14 746.255 716.422 742.247C721.243 728.005 722.373 713.046 723.466 698.569L723.466 698.567L723.467 698.554C724.02 691.231 724.596 683.661 725.632 676.349C726.278 672.694 727.149 669.555 728.337 666.734C729.642 663.396 733.559 655.555 741.816 655.073L741.825 655.073C742.905 655.014 744.074 654.95 748.038 657.189C754.398 663.018 750.282 678.37 748.127 686.41C747.639 688.228 747.252 689.673 747.109 690.549C746.638 693.652 734.371 756.094 733.524 759.021C732.999 760.07 731.987 760.981 730.926 761.937L730.901 761.959Z" fill="white"/>
<path fill-rule="evenodd" clip-rule="evenodd" d="M871.417 234.239L871.605 234.087L871.617 234.11C871.617 234.11 891.048 235.333 884.367 238.706C882.426 239.682 880.062 240.105 877.686 240.199C876.846 240.245 876.007 240.257 875.178 240.236C875.153 240.256 875.012 240.494 879.356 242.068C883.92 243.714 882.602 244.548 879.427 244.689C876.075 244.913 870.041 244.278 867.23 242.762C864.63 241.363 858.467 239.788 851.551 238.26L793.73 233.452C794.553 233.264 795.365 233.04 796.164 232.758C796.776 232.535 797.552 232.406 798.399 232.335C797.376 232.406 796.435 232.535 795.694 232.794C794.977 233.04 794.224 233.252 793.447 233.428L793.718 233.452C791.824 233.875 789.86 234.087 787.919 234.145C787.52 234.157 787.096 234.157 786.684 234.157H786.567C784.12 234.169 781.509 233.957 778.757 233.522L778.737 233.638C778.502 235.031 776.678 245.849 774.264 249.474C773.041 251.307 772.053 251.73 771.347 251.683C771.241 251.707 771.123 251.719 771.006 251.719C770.559 251.719 770.23 251.507 770.018 251.319C768.359 256.479 764.207 256.62 764.207 256.62V256.585C764.196 256.597 764.196 256.62 764.196 256.62C762.055 261.334 758.926 266.259 758.926 266.259L759.021 265.366C758.943 265.493 758.871 265.61 758.807 265.714L758.801 265.724L758.799 265.727C758.757 265.795 758.718 265.857 758.684 265.914C758.635 265.993 758.594 266.061 758.562 266.118L762.102 230.56C759.938 231.747 757.844 232.218 755.998 232.323C755.198 232.394 754.457 232.406 753.81 232.359C751.587 232.218 749.952 231.606 749.458 231.406L749.482 231.401L749.496 231.398L749.516 231.394L749.536 231.389L749.572 231.38C749.597 231.374 749.622 231.367 749.647 231.36L749.674 231.353L749.701 231.345L749.734 231.337C749.752 231.332 749.77 231.328 749.787 231.324C749.764 231.312 749.729 231.301 749.729 231.301C748.752 231.477 747.811 231.559 746.929 231.583C743.895 231.724 741.46 231.066 740.825 230.878C740.872 230.866 740.916 230.851 740.96 230.836C741.004 230.822 741.048 230.807 741.095 230.795L741.142 230.772C738.802 231.418 736.555 231.665 734.791 231.747C733.027 231.853 731.674 231.794 731.121 231.759C731.148 231.753 731.173 231.744 731.198 231.735C731.217 231.728 731.237 231.72 731.256 231.712L731.258 231.712C731.287 231.7 731.317 231.688 731.347 231.678C729.551 232.198 727.779 232.441 726.134 232.5C722.488 232.711 719.477 232.065 718.701 231.877C718.75 231.87 718.804 231.854 718.856 231.838L718.886 231.829L718.93 231.815L718.96 231.806L718.944 231.798C715.457 232.665 712.253 232.946 710.714 233.029C710.279 233.064 709.938 233.087 709.691 233.087C701.023 235.862 669.795 238.307 669.795 238.307C669.795 238.307 675.158 237.296 684.05 235.274C686.097 234.804 688.073 234.251 689.99 233.64C696.071 231.653 701.646 228.879 706.386 225.482C708.843 223.723 712.175 221.038 715.745 218.161L715.749 218.158L715.751 218.156L716.784 217.324C721.798 213.283 727.416 208.754 731.745 205.828C731.755 205.818 731.767 205.81 731.779 205.803L731.786 205.799C731.801 205.79 731.815 205.781 731.827 205.769C731.78 205.758 731.733 205.746 731.674 205.734C731.627 205.769 731.521 205.828 731.521 205.828C731.451 205.816 723.923 204.218 720.865 202.055C718.124 200.115 712.937 198.752 711.773 198.458C711.834 198.449 711.908 198.434 711.99 198.417C712.019 198.411 712.049 198.405 712.079 198.399C712.02 198.376 711.973 198.376 711.973 198.376C711.973 198.376 718.066 197.177 722.806 195.731C722.927 195.691 723.048 195.652 723.169 195.613L723.174 195.611C723.586 195.479 723.986 195.35 724.358 195.214C724.664 195.108 724.982 195.002 725.323 194.908C730.204 193.392 738.52 193.662 749.117 194.402C760.103 195.166 772.735 201.385 783.814 207.533C785.66 208.559 787.76 209.761 790.025 211.057C796.706 214.882 804.822 219.528 812.078 222.908L810.679 222.602C816.089 225.176 821.088 227.104 824.722 227.551C827.639 227.904 831.685 228.021 836.096 228.021L835.426 227.88C839.726 227.903 844.435 227.81 848.768 227.725C855.586 227.591 861.473 227.476 863.372 227.857L878.015 230.337C878.015 230.337 874.216 234.263 868.547 234.616C866.089 234.851 863.983 234.357 862.443 233.769L862.407 233.875C865.771 235.168 868.806 234.909 871.158 234.216C871.172 234.223 871.208 234.229 871.264 234.234C871.305 234.237 871.357 234.239 871.417 234.239ZM737.249 221.568L737.19 221.474V221.485C737.19 221.485 736.967 221.638 736.532 221.92L737.061 221.697C737.179 221.615 737.249 221.568 737.249 221.568ZM747.988 221.027L748.305 220.909C748.341 220.874 748.376 220.851 748.376 220.851L748.305 220.768C748.294 220.78 748.188 220.874 747.988 221.027ZM755.174 222.226L755.48 222.108L755.492 222.097C755.512 222.081 755.53 222.066 755.544 222.054C755.554 222.046 755.561 222.039 755.566 222.034L755.574 222.026L755.504 221.944C755.492 221.956 755.386 222.05 755.174 222.226ZM763.243 222.191L763.549 222.073C763.608 222.026 763.631 222.003 763.631 222.003L763.561 221.92L763.529 221.948L763.47 221.999L763.383 222.072C763.344 222.106 763.297 222.145 763.243 222.191ZM772.652 221.615L772.899 221.509L772.982 221.427L772.899 221.356C772.894 221.356 772.877 221.376 772.843 221.413L772.842 221.414C772.803 221.458 772.741 221.526 772.652 221.615ZM771.253 243.49L771.394 243.232C771.453 242.726 771.465 242.444 771.465 242.444H771.359C771.359 242.456 771.335 242.82 771.253 243.49ZM778.239 233.727C778.202 233.948 778.128 234.402 778.016 235.015L778.745 233.522C776.134 233.111 773.429 232.511 770.629 231.689C770.529 231.661 770.441 231.637 770.369 231.617C770.308 231.601 770.259 231.588 770.222 231.578C770.174 231.566 770.147 231.559 770.147 231.559V231.665C770.152 231.667 770.159 231.669 770.168 231.671L770.201 231.681L770.289 231.705L770.294 231.707L770.297 231.708L770.406 231.738L770.479 231.759L770.606 231.794C773.241 232.57 775.805 233.17 778.263 233.581C778.26 233.597 778.252 233.646 778.239 233.727ZM865.499 238.9C865.704 238.955 867.276 239.374 869.5 239.741H869.488L871.123 239.882C867.935 239.459 865.501 238.788 865.501 238.788L865.477 238.894L865.499 238.9Z" fill="white"/>
<path d="M949.364 429.015C949.128 428.298 948.258 427.781 947.117 427.405C945.388 426.794 942.871 426.535 941.06 426.429C943.494 425.771 945.329 424.642 945.976 423.349C946.259 422.773 946.259 422.256 945.976 421.786C945.659 421.269 944.988 420.881 944.153 420.575C942.542 419.941 940.119 419.705 938.59 419.623C939.223 419.302 939.874 418.916 940.551 418.515L940.825 418.354C942.401 417.413 943.059 416.555 942.848 415.756C942.671 415.109 941.883 414.592 940.742 414.181C936.743 412.617 927.251 412.476 927.251 412.476C927.251 412.476 924.24 412.394 919.971 412.159L920.1 412.229C916.936 412.053 913.102 411.794 909.279 411.418L909.15 411.36C912.984 411.736 916.819 411.994 919.971 412.171L863.361 381.056C864.161 380.785 865.76 379.798 868.407 376.248C871.959 371.464 871.923 367.173 871.888 366.433C872.57 365.775 873.194 365.128 873.723 364.529C877.216 360.52 877.181 353.303 877.158 352.398C878.287 350.987 879.192 349.682 879.639 348.636C881.592 344.181 881.38 337.105 881.345 336.364C883.638 332.356 881.604 323.822 881.345 322.846C885.32 315.111 883.603 306.589 883.45 305.907C884.897 298.114 882.909 287.676 882.803 287.159C883.221 279.462 881.397 269.583 881.323 269.185L881.321 269.174L881.18 268.41L880.957 269.033C880.957 268.974 880.933 268.927 880.933 268.927C880.933 268.927 865.596 311.82 858.044 320.977C855.415 324.163 851.776 328.475 847.932 333.032L847.925 333.04C843.997 337.695 839.855 342.604 836.356 346.826C836.791 345.227 837.344 342.324 837.391 337.904C837.449 332.297 834.862 330.769 833.674 330.357C833.627 330.338 833.581 330.32 833.537 330.303C833.449 330.269 833.368 330.24 833.297 330.216C833.497 323.269 830.416 321.259 829.734 320.907C829.734 320.284 829.698 319.766 829.616 319.39C828.91 315.781 825.123 309.622 824.7 308.952C824.676 306.601 824.547 304.791 824.241 303.956C822.975 300.459 819.457 292.811 818.574 290.893C818.448 290.619 818.376 290.462 818.372 290.45L817.972 289.58V290.532C817.972 290.732 817.948 307.024 816.502 318.003C816.231 320.025 815.902 321.87 815.514 323.387C815.243 324.445 815.008 325.797 814.808 327.336C814.773 327.56 814.749 327.783 814.714 328.018V328.089C813.314 339.185 813.373 359.862 813.443 366.927C811.573 366.927 809.656 367.079 807.868 367.514C805.311 368.131 803.307 368.639 801.672 369.055L801.668 369.056C798.845 369.773 797.12 370.211 795.542 370.441L793.048 370.806C793.048 370.806 793.095 370.841 793.166 370.888L792.648 370.958L793.095 371.264C793.102 371.268 793.166 371.311 793.281 371.387C794.507 372.205 801.538 376.895 807.645 380.151C814.431 383.759 821.477 385.299 822.594 385.158C822.838 385.158 823.543 386.101 824.229 387.02L824.253 387.051C826.182 389.648 829.404 393.986 834.932 396.795C841.872 400.334 856.28 407.669 865.984 407.669H866.631C875.899 407.669 884.015 409.714 892.142 414.098C900.493 418.589 927.028 431.354 927.298 431.484C927.663 431.637 933.673 434.07 939.625 434.07C942.495 434.07 945.341 433.506 947.552 431.848C949.011 430.755 949.587 429.815 949.305 428.968L949.364 429.015Z" fill="white"/>
<path d="M964.254 501.156C975.768 506.786 989.695 523.372 989.883 523.889H989.871L990 524.23L989.636 524.172C989.553 524.16 982.061 522.843 978.086 520.998L978.064 520.998C977.196 521.026 968.995 521.289 963.995 518.459C963.219 518.788 958.443 520.386 950.551 515.038C949.728 515.52 944.905 517.93 938.401 513.486C937.613 513.71 932.379 514.921 927.792 510.877C927.627 511.077 927.31 511.347 926.78 511.453C925.663 511.676 923.51 511.124 919.594 507.339C919.923 511.182 922.264 536.808 926.039 546.517C929.333 554.993 939.601 562.845 946.399 568.04C947.869 569.169 949.257 570.239 950.386 571.155L950.398 571.165C955.075 574.982 959.478 578.575 958.925 581.041C958.702 582.064 957.679 582.781 955.809 583.251C953.633 583.803 950.68 582.228 947.94 580.16C948.787 581.406 950.222 584.391 948.175 588.411C947.811 589.152 947.246 589.552 946.528 589.61H946.34C944.47 589.61 941.788 587.4 939.365 584.92C939.918 586.777 940.142 588.294 940.048 589.411C939.93 590.657 939.424 591.444 938.542 591.738C938.295 591.82 938.025 591.856 937.719 591.856C936.237 591.856 934.131 590.88 931.861 589.117C929.368 587.177 927.321 584.756 926.768 583.098C925.948 580.663 925.106 576.72 924.129 572.149L924.128 572.147L924.128 572.145L924.128 572.143L924.127 572.141L924.127 572.139L924.063 571.84C922.312 563.656 920.14 553.501 917.406 549.08C912.984 541.945 902.763 532.588 895.141 526.91C888.19 521.727 887.637 516.601 887.637 515.097C886.955 515.555 886.131 516.061 885.143 516.648C879.803 519.775 876.722 516.014 876.145 515.203C873.311 516.296 870.911 516.46 869.006 515.708C867.277 515.026 866.501 513.769 866.265 513.298C863.725 514.133 860.961 515.026 858.161 515.92C854.668 517.036 852.092 516.942 850.493 515.638C848.846 514.298 848.776 512.111 848.811 511.382C840.472 512.334 832.721 512.064 826.804 510.947C815.266 508.761 812.678 504.694 812.29 503.93C811.008 503.824 809.891 503.659 808.985 503.424C800.032 501.103 787.933 495.125 786.723 494.527C786.665 494.498 786.632 494.482 786.626 494.479L785.344 493.832L786.755 494.079C786.761 494.08 786.801 494.087 786.874 494.1L787.162 494.149C788.843 494.44 795.369 495.571 799.94 496.266C804.974 497.03 825.311 497.512 830.333 496.289C835.344 495.067 842.718 492.88 850.563 490.306C853.103 489.467 855.642 488.442 858.113 487.445L858.597 487.25C863.595 485.216 868.336 483.3 872.005 483.3H872.182C873.076 483.312 873.911 483.335 874.699 483.359C877.463 483.441 879.85 483.512 880.203 482.9C880.297 482.736 880.227 482.477 880.003 482.125C878.639 480.009 876.969 469.665 876.816 463.987C876.686 458.615 874.769 451.456 874.746 451.386L874.581 450.763L875.087 451.163C875.193 451.245 885.449 459.485 890.271 463.658C892.918 465.962 893.988 468.677 895.011 471.31L895.014 471.317C895.872 473.513 896.683 475.591 898.375 477.141C902.21 480.655 913.113 486.062 920.793 488.261C922.603 488.779 925.26 489.44 928.352 490.209L928.357 490.21L929.403 490.471C939.906 493.068 955.773 497.006 964.254 501.156Z" fill="white"/>
<path d="M202.616 561.586C205.804 560.834 210.167 558.812 215.025 556.285C219.894 553.758 225.199 550.748 230.139 547.939C239.972 542.367 248.499 537.536 248.499 537.536C248.499 537.536 241.254 544.095 233.056 551.524C232.739 551.808 232.421 552.093 232.102 552.379L232.006 552.465C228.137 555.933 224.117 559.537 220.235 562.597C216.001 565.924 212.096 568.545 208.956 569.391C216.871 570.449 225.575 569.004 234.244 565.689C242.936 562.374 251.487 557.249 259.496 550.948C261.696 549.208 263.79 547.304 265.766 545.318C267.789 543.319 269.706 541.227 271.47 539.135C272.352 538.088 273.199 537.031 274.011 535.984C274.857 534.926 275.669 533.88 276.434 532.834C277.986 530.753 279.303 528.732 280.562 526.78C281.82 524.829 282.879 522.984 283.726 521.267C284.549 519.563 285.302 517.964 285.725 516.577C286.172 515.178 286.349 513.956 286.278 512.957C286.243 511.958 285.914 511.17 285.279 510.665C282.738 508.654 274.387 509.983 263.648 512.263C261.399 512.733 259.046 513.254 256.62 513.79L256.618 513.79L256.616 513.791C247.458 515.816 237.254 518.071 227.669 518.74C222.505 519.081 218.201 520.715 214.672 523.383C211.155 526.028 208.297 529.707 206.356 533.916C202.24 542.355 201.51 552.982 202.616 561.586Z" fill="white"/>
<path d="M173.799 565.688C179.292 566.065 184.185 565.947 187.36 565.195L187.384 565.207C184.491 556.567 179.621 546.528 173.387 538.641C170.153 534.726 166.66 531.353 162.543 529.108C158.45 526.874 153.827 525.757 148.711 526.463C136.655 528.167 123.129 526.51 112.096 525.134C101.064 523.794 92.5362 522.901 90.525 527.403C90.0192 528.52 89.8898 530.107 90.0898 532.035C90.325 533.962 90.9249 536.243 91.807 538.746C92.7127 541.25 93.83 543.989 95.3591 546.81C96.8646 549.631 98.6289 552.558 100.605 555.474C102.569 558.377 104.886 561.257 107.274 564.019C108.474 565.406 109.72 566.746 110.991 568.051C112.296 569.344 113.637 570.59 115.001 571.789C117.73 574.187 120.541 576.338 123.399 578.184C126.305 580.018 129.245 581.534 132.162 582.651C142.618 586.718 153.051 587.47 162.214 586.001C171.4 584.52 179.468 580.805 185.643 575.692C182.491 576.538 177.704 576.127 172.376 574.845C167.036 573.576 160.99 571.46 155.462 569.039C149.946 566.617 144.782 563.949 141.03 561.856C137.337 559.752 134.997 558.259 134.997 558.259C134.997 558.259 137.478 559.012 141.372 560.034C145.241 561.057 150.64 562.327 156.403 563.384C162.167 564.454 168.306 565.312 173.799 565.688Z" fill="white"/>
<path d="M192.934 487.355C195.862 487.308 200.12 486.367 204.837 485.086C209.11 483.915 213.779 482.473 218.275 481.084L218.277 481.084L219.668 480.655C229.348 477.634 237.746 475.012 237.746 475.012C237.746 475.012 230.136 479.397 221.538 484.369C217.21 486.873 212.47 489.529 208.153 491.633C203.872 493.738 199.92 495.289 197.003 495.43C210.424 500.367 228.572 496.97 244.815 488.953C253.895 484.463 262.117 477.528 267.963 471.662C269.421 470.181 270.691 468.759 271.738 467.407C272.844 466.067 273.773 464.809 274.42 463.669C275.714 461.377 276.008 459.531 275.137 458.403C273.314 456.169 265.728 455.734 255.871 455.699C253.994 455.69 252.032 455.697 250.012 455.704H249.898C246.651 455.715 243.256 455.726 239.816 455.676C234.23 455.593 228.501 455.335 223.103 454.535C218.516 453.854 214.434 454.477 210.823 456.134C209.024 456.957 207.33 458.05 205.766 459.331C204.978 459.978 204.225 460.671 203.508 461.412C202.79 462.152 202.155 462.952 201.52 463.775C200.261 465.432 199.12 467.254 198.109 469.158C197.603 470.11 197.109 471.098 196.686 472.085C196.274 473.084 195.909 474.095 195.556 475.118C194.863 477.163 194.286 479.244 193.827 481.301C193.345 483.358 193.145 485.38 192.957 487.319L192.934 487.355Z" fill="white"/>
<path d="M166.907 485.439C171.67 486.814 175.951 487.649 178.88 487.602L178.868 487.578C178.719 486.067 178.451 484.49 178.178 482.882L178.178 482.879C178.085 482.336 177.993 481.791 177.904 481.242C177.528 479.056 177.045 476.834 176.434 474.601C176.128 473.484 175.799 472.368 175.434 471.263C175.093 470.158 174.752 469.065 174.364 467.971C173.599 465.797 172.693 463.669 171.658 461.647C171.141 460.636 170.576 459.649 170.012 458.697C169.459 457.745 168.871 456.828 168.236 455.946C166.977 454.183 165.566 452.596 163.978 451.221C160.814 448.482 156.98 446.625 152.357 446.272C146.923 445.861 141.289 444.673 135.843 443.157C130.939 441.785 126.198 440.135 121.856 438.623L121.853 438.622L121.851 438.621C121.395 438.463 120.942 438.305 120.494 438.149C111.096 434.882 103.781 432.484 101.146 436.045C99.7933 437.809 99.5228 441.511 100.134 446.237C100.44 448.599 100.946 451.209 101.687 453.971C102.487 456.734 103.498 459.625 104.686 462.552C106.992 468.406 110.403 474.342 114.178 479.538C116.048 482.136 118.154 484.557 120.341 486.708C122.529 488.86 124.799 490.74 127.116 492.28C135.585 497.828 144.5 500.497 152.816 500.967C161.143 501.437 168.941 499.733 175.363 496.441C172.446 496.582 168.353 495.301 163.86 493.162C159.402 491.034 154.627 488.013 150.181 484.851C147.946 483.276 145.865 481.654 143.983 480.114C142.089 478.574 140.384 477.105 138.949 475.835C136.079 473.296 134.291 471.545 134.291 471.545C134.291 471.545 142.442 476.059 152.087 480.102C156.885 482.136 162.131 484.064 166.907 485.439Z" fill="white"/>
<path d="M201.385 411.124C206.125 412.054 215.52 411.264 224.081 410.543L224.334 410.522C224.886 410.475 225.435 410.429 225.979 410.384C228.75 410.138 231.406 409.906 233.755 409.7L234.017 409.677L234.033 409.676L234.038 409.675C235.397 409.556 236.648 409.447 237.753 409.35C240.834 409.091 242.787 408.938 242.787 408.938C242.787 408.938 235.33 411.301 226.896 413.957C226.075 414.208 225.249 414.463 224.421 414.719L224.414 414.721C220.862 415.818 217.282 416.923 213.888 417.742C209.724 418.753 205.972 419.353 203.408 418.93C206.066 420.622 209.124 421.939 212.441 422.891C215.758 423.843 219.31 424.419 223.015 424.666C230.378 425.136 238.482 424.29 246.327 422.362C248.515 421.833 250.62 421.128 252.761 420.352C254.901 419.576 256.995 418.695 258.971 417.754C262.876 415.862 266.687 413.828 269.698 411.818C270.214 411.471 270.72 411.124 271.214 410.785C271.44 410.63 271.664 410.476 271.885 410.325C272.591 409.843 273.238 409.349 273.85 408.879C275.061 407.927 276.049 406.999 276.814 406.129C278.437 404.413 279.096 402.884 278.484 401.721C277.272 399.417 270.768 397.583 262.217 395.667C260.423 395.257 258.536 394.849 256.591 394.428L256.579 394.426L256.574 394.425L256.572 394.424C249.263 392.844 241.126 391.085 233.942 388.367C230.084 386.898 226.379 386.639 222.886 387.38C219.392 388.109 216.252 389.884 213.347 392.27C212.629 392.869 211.912 393.504 211.241 394.174C210.594 394.856 209.959 395.561 209.348 396.302C208.124 397.783 206.995 399.37 205.96 401.004C204.913 402.638 204.102 404.365 203.326 406.07C202.573 407.774 201.891 409.479 201.373 411.136L201.385 411.124Z" fill="white"/>
<path d="M189.059 408.664L189.081 408.668L189.058 408.68L189.059 408.664Z" fill="white"/>
<path d="M189.469 402.979C189.422 404.948 189.247 406.858 189.059 408.664C183.881 407.642 174.862 402.454 167.204 397.042C163.381 394.351 159.853 391.635 157.359 389.59C154.878 387.545 153.337 386.181 153.337 386.181C153.337 386.181 153.643 386.639 154.184 387.462C154.274 387.594 154.369 387.735 154.47 387.885C154.992 388.654 155.667 389.651 156.524 390.812C158.571 393.587 161.429 397.254 164.628 400.839C167.792 404.424 171.532 407.998 174.99 410.702C178.472 413.417 181.777 415.298 184.341 415.733C181.201 416.555 177.872 416.967 174.449 416.932C171.003 416.896 167.439 416.403 163.84 415.415C156.618 413.417 149.455 409.432 143.128 402.967C141.387 401.18 139.693 399.088 138.246 396.807C136.788 394.515 135.459 392.011 134.271 389.367C131.824 384.065 130.272 378.282 129.237 372.687C128.696 369.889 128.484 367.185 128.331 364.635C128.202 362.084 128.225 359.686 128.39 357.558C128.825 353.326 129.825 350.176 131.283 348.871C134.224 346.25 140.14 349.753 147.726 354.42C155.301 359.11 164.605 364.846 173.932 367.62C177.896 368.819 180.848 371.158 183.047 374.144C185.247 377.13 186.823 380.809 187.764 384.7C188.011 385.676 188.199 386.663 188.387 387.674C188.587 388.685 188.764 389.707 188.905 390.73C189.187 392.787 189.352 394.856 189.41 396.901C189.42 397.334 189.432 397.767 189.445 398.2C189.489 399.813 189.534 401.422 189.469 402.979Z" fill="white"/>
<path d="M225.984 338.516C228.102 339.445 231.454 340.173 235.265 340.82C238.639 341.382 242.354 341.879 245.953 342.361L245.954 342.362C246.42 342.424 246.883 342.486 247.344 342.548C255.283 343.594 262.164 344.499 262.164 344.499C262.164 344.499 255.271 345.122 247.473 345.816C243.545 346.168 239.287 346.509 235.476 346.591C231.689 346.674 228.372 346.497 226.231 345.628C230.242 349.601 235.782 352.504 242.098 354.326C245.262 355.243 248.614 355.89 252.06 356.301C255.518 356.701 259.024 356.842 262.658 356.771C264.657 356.736 266.669 356.548 268.645 356.277C270.621 355.995 272.538 355.607 274.479 355.196C278.325 354.361 281.806 353.233 284.911 352.116C286.44 351.552 287.805 350.941 289.016 350.341C290.263 349.754 291.322 349.154 292.168 348.555C293.015 347.955 293.627 347.332 294.015 346.744C294.427 346.168 294.568 345.592 294.427 345.028C293.85 342.818 288.569 339.997 281.524 336.706C280.092 336.031 278.584 335.34 277.031 334.628L277.021 334.624L277.013 334.62L277.007 334.618L276.996 334.613L276.993 334.611L276.99 334.61C270.925 331.832 264.162 328.734 258.424 324.998C255.354 322.988 252.225 322.071 249.096 322.071C245.991 322.071 242.804 322.929 239.887 324.469C238.44 325.245 237.029 326.162 235.664 327.196C234.982 327.713 234.324 328.254 233.665 328.818C233.042 329.394 232.442 330.006 231.854 330.617C230.677 331.851 229.584 333.156 228.572 334.472C227.561 335.789 226.737 337.176 225.973 338.504L225.984 338.516Z" fill="white"/>
<path d="M207.953 328.536C210.917 331.099 213.705 333.12 215.822 334.049L215.834 334.061C216.299 332.686 216.689 331.206 217.088 329.69L217.222 329.183C217.68 327.502 218.068 325.738 218.374 323.94C218.527 323.035 218.657 322.13 218.762 321.213C218.892 320.308 219.009 319.403 219.092 318.497C219.256 316.676 219.315 314.854 219.245 313.055C219.115 309.47 218.574 306.073 217.198 303.04C215.834 300.019 213.705 297.421 210.517 295.634C202.978 291.45 196.05 284.738 190.405 279.248C184.747 273.782 180.301 269.633 177.243 271.314C176.479 271.725 175.726 272.572 175.008 273.747C174.303 274.923 173.679 276.474 173.115 278.273C172.55 280.071 172.068 282.116 171.668 284.338C171.303 286.572 171.08 289.005 170.962 291.497C170.668 296.457 171.115 301.853 172.103 306.849C172.574 309.341 173.303 311.786 174.15 314.054C174.997 316.335 176.008 318.439 177.161 320.308C179.231 323.681 181.713 326.62 184.347 329.065C186.982 331.51 189.816 333.497 192.722 335.036C198.544 338.128 204.695 339.468 210.376 339.221C208.247 338.363 205.707 336.083 203.213 333.073C200.743 330.076 198.297 326.326 196.168 322.588C195.638 321.679 195.142 320.758 194.658 319.86L194.627 319.802C194.145 318.897 193.71 318.004 193.286 317.134C192.439 315.406 191.71 313.784 191.099 312.397C189.875 309.611 189.181 307.765 189.181 307.765C189.181 307.765 193.51 313.713 199.085 319.802C201.849 322.847 204.989 325.974 207.953 328.536Z" fill="white"/>
<path d="M267.053 273.453C270.167 275.709 277.193 278.249 283.546 280.546C283.913 280.679 284.276 280.81 284.637 280.941C291.259 283.339 296.999 285.408 296.999 285.408C296.999 285.408 290.965 284.644 284.131 283.786C282.402 283.562 280.603 283.315 278.815 283.045C277.039 282.786 275.322 282.516 273.687 282.199C270.429 281.564 267.594 280.765 265.912 279.624C271.24 287.947 282.732 293.671 295.058 296.046C298.469 296.692 302.115 296.963 305.503 296.904L305.566 296.902C307.228 296.868 308.945 296.832 310.513 296.704C312.125 296.586 313.607 296.387 315.041 296.187C320.722 295.352 324.663 293.918 324.569 291.861C324.51 289.863 320.499 286.454 315.053 282.304C313.918 281.431 312.718 280.53 311.482 279.602L311.48 279.601C306.827 276.107 301.658 272.226 297.457 267.964C295.211 265.66 292.682 264.296 289.989 263.685C288.636 263.379 287.248 263.273 285.837 263.32C284.437 263.391 283.049 263.638 281.65 264.026C280.25 264.414 278.85 264.919 277.486 265.554C276.157 266.212 274.851 266.964 273.593 267.799C271.04 269.421 268.888 271.478 267.041 273.453H267.053Z" fill="white"/>
<path d="M247.514 252.341C251.172 258.677 255.889 265.319 259.182 267.705L259.206 267.74C260.699 265.33 262.028 262.462 263.299 259.547C263.91 258.078 264.463 256.549 264.922 254.998C265.416 253.47 265.827 251.942 266.11 250.39C266.392 248.838 266.557 247.287 266.58 245.782C266.627 244.301 266.521 242.832 266.227 241.409C265.627 238.576 264.298 235.943 261.887 233.816C256.206 228.82 251.466 221.72 247.655 215.96C243.833 210.212 240.798 205.828 237.846 206.686C236.387 207.121 234.694 209.048 233.024 211.893C232.6 212.61 232.188 213.374 231.789 214.197C231.4 215.032 231.024 215.913 230.659 216.842C229.93 218.687 229.26 220.709 228.683 222.813C228.095 224.906 227.684 227.174 227.354 229.419C227.049 231.676 226.802 233.922 226.802 236.19C226.778 240.716 227.296 244.995 228.613 248.674C233.376 261.945 243.68 269.397 253.548 271.161C251.866 270.02 250.149 267.599 248.573 264.543C247.785 263.015 247.02 261.322 246.338 259.57C245.668 257.819 245.044 256.009 244.491 254.21C243.398 250.625 242.527 247.063 242.045 244.489C241.539 241.88 241.292 240.175 241.292 240.175C241.292 240.175 241.939 241.644 243.033 243.901C244.139 246.158 245.656 249.167 247.514 252.341Z" fill="white"/>
<path d="M316.363 223.295C317.539 224.624 319.621 226.175 322.079 227.856C324.516 229.511 327.289 231.258 329.88 232.891L329.948 232.934C332.536 234.556 334.959 236.073 336.735 237.178C338.499 238.294 339.628 239.011 339.628 239.011C339.628 239.011 334.629 237.236 328.984 235.238C328.528 235.072 328.069 234.906 327.607 234.739L327.598 234.735L327.597 234.735C325.155 233.851 322.662 232.948 320.409 231.97C317.751 230.818 315.469 229.608 314.258 228.315C315.775 232.358 318.704 236.155 322.503 239.435C324.408 241.08 326.514 242.597 328.784 243.972C331.066 245.371 333.5 246.617 336.029 247.71C337.429 248.309 338.875 248.815 340.322 249.238C341.804 249.696 343.298 250.073 344.756 250.378C347.65 250.954 350.531 251.389 353.001 251.53L353.443 251.552C354.509 251.604 355.538 251.655 356.448 251.624C357.494 251.601 358.412 251.507 359.176 251.342C360.753 251.072 361.74 250.508 361.893 249.638C362.187 247.898 359.412 244.254 355.577 239.74C354.777 238.79 353.927 237.805 353.051 236.788C349.74 232.949 346.055 228.676 343.274 224.271C341.792 221.896 339.899 220.262 337.699 219.228C335.512 218.205 333.089 217.876 330.548 217.982L330.53 217.983C329.901 218.018 329.26 218.054 328.631 218.158C327.996 218.264 327.372 218.382 326.737 218.535C325.479 218.828 324.208 219.228 322.985 219.687C321.762 220.157 320.609 220.744 319.492 221.344C318.386 221.967 317.304 222.578 316.375 223.295H316.363Z" fill="white"/>
<path d="M307.025 210.611C308.248 213.315 309.565 215.631 310.73 216.947L310.741 216.959C310.999 216.664 311.266 216.367 311.536 216.066L311.537 216.065C312.116 215.421 312.713 214.757 313.282 214.044C314.129 213.009 314.928 211.881 315.728 210.741C316.528 209.612 317.293 208.425 317.975 207.203C318.316 206.591 318.633 205.968 318.939 205.345C319.245 204.722 319.539 204.111 319.81 203.488C320.892 200.996 321.539 198.363 321.574 195.859C321.609 193.355 320.962 190.875 319.316 188.618C315.411 183.305 312.717 176.429 310.541 170.798C308.342 165.191 306.566 160.877 303.919 161.1C302.59 161.206 300.767 162.499 298.815 164.603C297.85 165.685 296.862 166.966 295.898 168.4C294.933 169.834 293.957 171.386 293.11 173.114C291.381 176.534 289.876 180.308 289.029 184.151C288.594 186.056 288.288 187.948 288.135 189.782C288.017 191.639 288.053 193.426 288.264 195.107C288.652 198.14 289.405 200.926 290.44 203.453C291.499 206.004 292.84 208.296 294.369 210.294C297.439 214.302 301.261 217.182 305.284 218.828C304.072 217.535 303.061 215.172 302.296 212.292C301.543 209.424 300.991 205.98 300.732 202.736C300.473 199.491 300.426 196.353 300.461 194.025C300.473 192.85 300.52 191.91 300.555 191.251C300.603 190.593 300.626 190.217 300.626 190.217C300.626 190.217 300.897 191.58 301.402 193.696C301.92 195.824 302.708 198.716 303.672 201.737C304.637 204.758 305.801 207.896 307.025 210.611Z" fill="white"/>
<path d="M378.363 183.682C379.104 185.01 380.586 186.726 382.327 188.572C383.198 189.5 384.15 190.453 385.103 191.405C385.588 191.89 386.079 192.374 386.567 192.856C387.049 193.332 387.529 193.806 387.996 194.273C391.748 197.964 395.018 201.173 395.018 201.173C395.018 201.173 391.149 198.763 386.773 196.048C384.562 194.673 382.186 193.168 380.151 191.699C378.116 190.229 376.458 188.83 375.67 187.526C376.199 191.205 377.964 194.931 380.563 198.399C381.857 200.139 383.362 201.808 385.021 203.383C386.679 204.958 388.479 206.427 390.408 207.838C394.689 210.894 399.852 212.951 403.969 214.209C405.004 214.515 405.957 214.726 406.839 214.903C407.721 215.091 408.521 215.196 409.203 215.208C409.885 215.232 410.45 215.138 410.897 214.997C411.344 214.856 411.649 214.609 411.791 214.268C412.367 212.881 410.709 209.296 408.309 204.77C407.805 203.808 407.265 202.805 406.708 201.77L406.706 201.767L406.705 201.766C404.636 197.925 402.336 193.656 400.817 189.453C400.005 187.173 398.711 185.445 397.077 184.211C395.442 182.977 393.43 182.177 391.278 181.813C386.997 181.119 382.068 182.036 378.387 183.694L378.363 183.682Z" fill="white"/>
<path d="M372.847 171.279C373.388 173.807 374.059 175.97 374.8 177.298L374.823 177.31C378.293 174.841 382.245 171.491 384.95 167.612C386.314 165.684 387.373 163.674 387.855 161.535C388.326 159.407 388.243 157.197 387.279 154.999C384.974 149.803 383.997 143.526 383.209 138.401C382.398 133.276 381.716 129.338 379.434 129.009C378.869 128.927 378.14 129.068 377.293 129.409C376.446 129.75 375.505 130.326 374.494 131.043C373.482 131.772 372.412 132.653 371.318 133.664C370.224 134.675 369.154 135.886 368.095 137.144C367.566 137.778 367.048 138.437 366.543 139.107L365.802 140.129C365.684 140.311 365.567 140.49 365.449 140.669L365.448 140.671C365.331 140.85 365.214 141.029 365.096 141.211C364.179 142.657 363.332 144.161 362.603 145.677C361.862 147.17 361.262 148.734 360.815 150.274C360.356 151.802 360.05 153.306 359.921 154.752C359.674 157.35 359.815 159.866 360.227 162.205C360.638 164.544 361.344 166.707 362.261 168.67C364.096 172.596 366.802 175.734 369.883 177.862C369.095 176.557 368.672 174.347 368.554 171.785C368.448 169.234 368.648 166.284 369.013 163.474C369.095 162.781 369.201 162.075 369.307 161.405C369.391 160.873 369.49 160.356 369.586 159.854C369.611 159.724 369.635 159.594 369.66 159.466C369.907 158.22 370.154 157.08 370.389 156.104C370.859 154.153 371.224 152.907 371.224 152.907C371.224 152.907 371.142 157.75 371.659 163.169C371.789 164.52 371.941 165.907 372.141 167.283C372.341 168.67 372.577 170.022 372.847 171.279Z" fill="white"/>
<path d="M647.64 536.956C640.346 536.956 634.642 535.156 630.692 531.614C626.764 528.084 624.766 522.836 624.766 515.999V451.842C624.766 445.004 626.905 439.604 631.112 435.794C635.344 431.971 641.188 430.031 648.481 430.031C655.775 430.031 661.479 431.831 665.429 435.373C669.509 438.903 671.566 444.162 671.566 450.988V515.145C671.566 521.983 669.357 527.371 665.009 531.182C660.766 535.016 654.922 536.956 647.628 536.956H647.64ZM648.061 441.778C645.594 441.778 643.49 442.713 641.807 444.56C640.136 446.231 639.283 448.394 639.283 450.988V515.999C639.283 518.582 640.136 520.814 641.807 522.638C643.514 524.344 645.618 525.209 648.061 525.209C650.655 525.209 652.818 524.356 654.513 522.661C656.207 520.814 657.061 518.582 657.061 515.999V450.988C657.061 448.394 656.207 446.231 654.513 444.536C652.841 442.713 650.667 441.778 648.061 441.778Z" fill="white"/>
<path d="M599.883 536.955C594.506 536.955 591.175 534.957 589.714 530.842L589.34 529.79L588.545 530.585C584.314 534.816 579.475 536.967 574.169 536.967C568.862 536.967 564.549 535.19 561.3 531.672C558.039 528.014 556.391 522.731 556.391 516.01V453.98C556.391 447.142 558.53 441.742 562.737 437.932C566.969 434.11 572.813 432.17 580.106 432.17H588.674V403.837C588.674 399.723 588.078 395.492 586.897 391.237C590.883 389.215 595.173 388.187 599.649 388.187C602.793 388.187 603.191 389.507 603.191 390.664V517.927C603.191 521.094 603.728 523.315 604.827 524.729L604.862 524.764C606.054 526.108 608.018 526.81 610.858 526.903C610.858 530.036 609.923 532.479 608.1 534.185C606.242 536.044 603.483 536.967 599.871 536.967L599.883 536.955ZM579.709 444.325C577.114 444.325 574.952 445.179 573.257 446.873C571.714 448.416 570.919 450.52 570.919 453.115V515.788C570.919 522.52 574.66 523.934 577.792 523.934C580.083 523.934 582.234 523.093 584.197 521.433C586.254 519.668 587.739 517.81 588.627 515.881L588.697 515.741V444.349H579.709V444.325Z" fill="white"/>
<path d="M514.663 536.955C499.129 536.955 491.578 530.304 491.578 516.629V450.134C491.578 436.599 499.339 430.019 515.305 430.019C531.272 430.019 539.243 437.429 539.243 452.682C539.243 458.783 538.121 464.487 535.9 469.607C533.703 474.703 530.641 478.595 526.807 481.202L506.107 495.438V515.144C506.107 521.444 509.216 524.776 515.095 524.776C518.134 524.776 520.46 523.852 522.003 522.029C523.522 520.241 524.294 517.564 524.294 514.081V509.172L523.698 499.774C525.287 499.447 526.889 499.283 528.478 499.283C530.372 499.283 532.16 499.552 533.773 500.102H533.82C536.894 500.885 538.378 502.252 538.378 504.321V519.621C538.378 525.091 536.251 529.287 531.88 532.431C527.637 535.447 521.839 536.966 514.663 536.966V536.955ZM514.663 442.209C510.759 442.209 506.095 443.472 506.095 449.503V481.295L517.421 472.798C521.98 469.42 524.294 462.43 524.294 452.051C524.294 449.024 523.359 446.628 521.512 444.945C519.7 443.133 517.398 442.209 514.663 442.209Z" fill="white"/>
<path d="M449.829 536.955C434.295 536.955 426.744 530.304 426.744 516.629V450.134C426.744 436.599 434.505 430.019 450.472 430.019C466.438 430.019 474.409 437.429 474.409 452.682C474.409 458.783 473.287 464.487 471.066 469.607C468.869 474.703 465.807 478.595 461.973 481.202L441.273 495.438V515.144C441.273 521.444 444.382 524.776 450.261 524.776C453.3 524.776 455.626 523.852 457.169 522.029C458.688 520.241 459.46 517.564 459.46 514.081V509.172L458.864 499.774C460.453 499.447 462.055 499.283 463.644 499.283C465.538 499.283 467.326 499.552 468.939 500.102H468.986C472.06 500.885 473.544 502.252 473.544 504.321V519.621C473.544 525.091 471.417 529.287 467.046 532.431C462.803 535.447 457.005 536.966 449.829 536.966V536.955ZM449.829 442.209C445.925 442.209 441.261 443.472 441.261 449.503V481.295L452.587 472.798C457.146 469.42 459.46 462.43 459.46 452.051C459.46 449.024 458.525 446.628 456.678 444.945C454.866 443.133 452.552 442.209 449.829 442.209Z" fill="white"/>
<path d="M368.406 535.682C365.835 535.682 365.507 534.361 365.507 533.204V449.071C365.507 445.904 364.9 443.671 363.649 442.245C362.585 440.89 360.68 440.188 357.852 440.095C357.852 436.962 358.716 434.508 360.423 432.79C362.387 430.955 365.227 430.02 368.85 430.02C374.192 430.02 377.441 432.626 378.785 437.979L379.195 439.592L380.083 438.178C383.519 432.684 388.253 430.008 394.565 430.008C405.809 430.008 411.279 435.268 411.279 446.079V467.329C411.279 469.386 409.783 470.765 406.721 471.525H406.674C405.049 472.074 403.273 472.355 401.379 472.355C399.813 472.355 398.223 472.191 396.645 471.875C397.019 468.93 397.206 465.751 397.206 462.443V451.608C397.206 446.558 394.752 443.894 390.123 443.894C387.949 443.894 385.915 444.899 384.08 446.886C382.327 448.791 380.995 450.942 380.118 453.279L380.071 453.396V518.114C380.071 524.578 380.527 530.106 381.427 534.548C377.43 535.296 373.07 535.67 368.465 535.67L368.406 535.682Z" fill="white"/>
<path d="M312.524 535.681C309.953 535.681 309.626 534.361 309.626 533.204V447.61L302.858 448.697C301.993 445.354 301.561 442.409 301.561 439.943C301.561 436.401 303.057 436.401 303.618 436.401H309.637V407.858C309.637 401.71 311.496 396.731 315.166 393.061C318.836 389.391 324.318 387.532 331.448 387.532C338.578 387.532 344.34 389.122 348.443 392.278C352.697 395.293 354.754 399.419 354.754 404.889V415.724C354.754 417.793 353.258 419.243 350.161 420.143C348.548 420.54 346.748 420.75 344.831 420.75C343.265 420.75 341.675 420.587 340.097 420.271C340.471 417.326 340.658 414.146 340.658 410.839V409.565C340.658 406.257 340.05 403.884 338.8 402.33C337.549 400.611 335.281 399.723 332.091 399.723C328.9 399.723 326.878 400.623 325.755 402.388C324.68 404.083 324.154 406.561 324.154 409.997V436.413H335.515L345.953 435.408C346.572 438.774 346.888 441.801 346.888 444.408C346.888 447.739 345.392 447.739 344.831 447.739H324.154V518.126C324.154 523.315 324.622 528.844 325.545 534.559C321.548 535.307 317.176 535.693 312.548 535.693L312.524 535.681Z" fill="white"/>
<path d="M707.591 436.577C705.007 438.903 699.911 445.168 700.963 452.835C701.174 453.794 701.361 455.523 702.261 455.886C702.506 455.921 702.728 455.699 702.997 455.29C703.242 454.916 703.511 454.401 703.839 453.864C704.423 452.87 705.206 451.643 705.931 450.626C717.046 435.326 727.753 446.886 735.865 459.31C735.97 459.31 735.993 459.17 736.028 459.065C736.122 458.504 736.262 457.405 736.589 456.096C736.952 454.67 737.513 452.952 738.424 451.21C747.448 435.01 759.23 447.587 764.828 455.056C765.027 455.301 765.132 455.453 765.425 455.22C767.774 453.291 771.175 448.101 770.041 442.433C768.031 431.995 757.488 428.746 750.697 429.868C749.47 430.066 748.815 430.323 747.354 430.873C745.519 431.597 742.971 432.86 740.657 434.859C739.547 435.77 738.343 437.138 737.443 438.12C737.209 438.353 737.104 438.4 736.998 438.33C730.745 428.068 719.361 426.548 707.626 436.542L707.591 436.577Z" fill="white"/>
<path d="M739.347 473.372L724.83 464.372V533.193C724.83 534.35 725.157 535.671 727.729 535.671C732.345 535.671 736.694 535.425 740.691 534.923C739.791 530.353 739.347 524.695 739.347 518.103V473.36V473.372Z" fill="white"/>
<path d="M772.458 524.754L772.423 524.719C771.324 523.304 770.786 521.072 770.786 517.916V471.513L756.269 463.928V522.159C756.269 527.5 757.146 531.358 758.864 533.602C760.699 535.822 763.516 536.956 767.245 536.956C770.973 536.956 773.825 536.021 775.684 534.174C777.507 532.468 778.442 530.025 778.442 526.893C775.602 526.799 773.638 526.098 772.446 524.754H772.458Z" fill="white"/>
<path d="M709.007 518.197C709.007 524.789 709.463 530.434 710.351 535.016C706.353 535.507 701.994 535.764 697.388 535.764C694.817 535.764 694.49 534.443 694.49 533.286L695.203 484.92C695.203 481.753 694.595 479.52 693.344 478.094C692.281 476.738 690.375 476.037 687.547 475.943C687.547 472.811 688.412 470.356 690.118 468.638C692.082 466.803 695.273 465.868 699.598 465.868C703.922 465.868 706.985 467.879 708.714 472.016L709.018 518.197H709.007Z" fill="white"/>
<path d="M714.501 605.401C714.501 608.456 714.719 611.011 715.155 613.069C713.285 613.318 711.259 613.443 709.077 613.443C708.018 613.443 707.488 612.975 707.488 612.04V575.012C707.488 573.702 707.238 572.767 706.74 572.206C706.303 571.645 705.431 571.365 704.121 571.365C704.059 569.744 704.464 568.497 705.337 567.625C706.272 566.752 707.737 566.315 709.732 566.315C711.727 566.315 713.16 567.282 714.033 569.214C716.09 567.282 718.303 566.315 720.672 566.315C723.103 566.315 725.036 567.095 726.47 568.653C727.966 570.212 728.714 572.425 728.714 575.292V605.308C728.714 606.617 728.932 607.552 729.368 608.113C729.867 608.674 730.771 608.954 732.08 608.954C732.142 610.575 731.706 611.822 730.771 612.695C729.898 613.567 728.589 614.004 726.844 614.004C725.098 614.004 723.789 613.474 722.916 612.414C722.106 611.354 721.701 609.609 721.701 607.178V575.853C721.701 573.796 720.641 572.767 718.522 572.767C716.776 572.767 715.436 573.734 714.501 575.666V605.401Z" fill="white"/>
<path d="M669.803 604.466V576.227C669.803 573.11 670.769 570.679 672.701 568.934C674.634 567.188 677.252 566.315 680.556 566.315C683.86 566.315 686.416 567.126 688.224 568.747C690.094 570.367 691.029 572.736 691.029 575.853V604.092C691.029 607.209 690.031 609.64 688.037 611.386C686.104 613.131 683.486 614.004 680.182 614.004C676.878 614.004 674.322 613.193 672.514 611.573C670.707 609.952 669.803 607.583 669.803 604.466ZM676.816 575.853V604.466C676.816 605.526 677.159 606.43 677.844 607.178C678.53 607.863 679.372 608.206 680.369 608.206C681.429 608.206 682.301 607.863 682.987 607.178C683.673 606.43 684.016 605.526 684.016 604.466V575.853C684.016 574.793 683.673 573.921 682.987 573.235C682.301 572.487 681.429 572.113 680.369 572.113C679.372 572.113 678.53 572.487 677.844 573.235C677.159 573.921 676.816 574.793 676.816 575.853Z" fill="white"/>
<path d="M649.786 558.743C647.106 558.743 645.766 556.966 645.766 553.413C645.766 549.86 647.106 548.083 649.786 548.083C652.467 548.083 653.807 549.86 653.807 553.413C653.807 556.966 652.467 558.743 649.786 558.743ZM643.989 567.252H653.34V605.309C653.34 606.618 653.558 607.553 653.994 608.114C654.493 608.675 655.397 608.956 656.706 608.956C656.768 610.576 656.332 611.823 655.397 612.696C654.524 613.569 653.215 614.005 651.47 614.005C649.724 614.005 648.415 613.475 647.542 612.415C646.732 611.356 646.327 609.61 646.327 607.179V572.862L643.428 573.33C642.992 571.709 642.773 570.306 642.773 569.122C642.773 567.875 643.179 567.252 643.989 567.252Z" fill="white"/>
<path d="M631.531 605.87C631.531 608.488 630.533 610.514 628.538 611.948C626.544 613.32 623.988 614.005 620.871 614.005C617.816 614.005 615.354 613.226 613.484 611.668C611.676 610.047 610.772 607.896 610.772 605.216V572.862L607.873 573.33C607.437 571.709 607.219 570.307 607.219 569.122C607.219 567.875 607.624 567.252 608.434 567.252H610.959L612.268 558.462C612.517 557.091 613.671 556.405 615.728 556.405C616.351 556.405 617.037 556.468 617.785 556.592V567.252H625.92L630.782 566.784C631.094 568.405 631.25 569.839 631.25 571.086C631.25 572.27 630.845 572.862 630.034 572.862H617.785V604.094C617.785 605.403 618.097 606.431 618.72 607.179C619.406 607.865 620.247 608.208 621.245 608.208C623.551 608.208 624.705 606.681 624.705 603.626V596.8L624.424 592.405C625.234 592.218 626.045 592.125 626.855 592.125C627.728 592.125 628.538 592.249 629.286 592.499C630.782 592.873 631.531 593.59 631.531 594.649V605.87Z" fill="white"/>
<path d="M581.797 595.957C579.74 597.328 578.711 599.635 578.711 602.876C578.711 606.056 579.678 607.645 581.61 607.645C583.605 607.645 585.163 606.523 586.285 604.279V592.965L581.797 595.957ZM582.826 566.315C589.807 566.315 593.298 569.401 593.298 575.573V605.308C593.298 606.617 593.517 607.552 593.953 608.113C594.452 608.674 595.355 608.954 596.665 608.954C596.727 610.575 596.291 611.822 595.356 612.695C594.483 613.567 593.205 614.004 591.522 614.004C588.904 614.004 587.314 613.037 586.753 611.105C584.82 613.037 582.545 614.004 579.927 614.004C577.309 614.004 575.22 613.006 573.662 611.011C572.103 609.017 571.324 606.336 571.324 602.97C571.324 597.858 573.475 593.993 577.776 591.375L586.285 586.326V576.227C586.285 573.609 585.039 572.3 582.545 572.3C580.114 572.3 578.898 573.765 578.898 576.695V579.78L579.179 584.175C578.368 584.362 577.527 584.456 576.654 584.456C575.844 584.456 575.065 584.331 574.316 584.082C572.82 583.708 572.072 582.991 572.072 581.931V574.263C572.072 571.77 573.039 569.838 574.971 568.466C576.966 567.032 579.584 566.315 582.826 566.315Z" fill="white"/>
<path d="M542.005 605.401C542.005 608.456 542.223 611.011 542.659 613.069C540.789 613.318 538.763 613.443 536.581 613.443C535.522 613.443 534.992 612.975 534.992 612.04V575.012C534.992 573.702 534.742 572.767 534.244 572.206C533.807 571.645 532.934 571.365 531.625 571.365C531.563 569.744 531.968 568.497 532.841 567.625C533.776 566.752 535.241 566.315 537.236 566.315C539.231 566.315 540.664 567.282 541.537 569.214C543.594 567.282 545.807 566.315 548.176 566.315C550.607 566.315 552.54 567.095 553.974 568.653C555.47 570.212 556.218 572.425 556.218 575.292V605.308C556.218 606.617 556.436 607.552 556.872 608.113C557.371 608.674 558.275 608.954 559.584 608.954C559.646 610.575 559.21 611.822 558.275 612.695C557.402 613.567 556.093 614.004 554.348 614.004C552.602 614.004 551.293 613.474 550.42 612.414C549.61 611.354 549.205 609.609 549.205 607.178V575.853C549.205 573.796 548.145 572.767 546.025 572.767C544.28 572.767 542.94 573.734 542.005 575.666V605.401Z" fill="white"/>
<path d="M513.855 558.743C511.174 558.743 509.834 556.966 509.834 553.413C509.834 549.86 511.174 548.083 513.855 548.083C516.535 548.083 517.876 549.86 517.876 553.413C517.876 556.966 516.535 558.743 513.855 558.743ZM508.057 567.252H517.408V605.309C517.408 606.618 517.626 607.553 518.063 608.114C518.561 608.675 519.465 608.956 520.774 608.956C520.837 610.576 520.4 611.823 519.465 612.696C518.592 613.569 517.283 614.005 515.538 614.005C513.792 614.005 512.483 613.475 511.611 612.415C510.8 611.356 510.395 609.61 510.395 607.179V572.862L507.496 573.33C507.06 571.709 506.842 570.306 506.842 569.122C506.842 567.875 507.247 567.252 508.057 567.252Z" fill="white"/>
<path d="M472.718 555.096C472.718 553.225 472.438 551.324 471.877 549.392C473.747 548.394 475.742 547.896 477.861 547.896C479.108 547.896 479.731 548.363 479.731 549.298V568.747C481.664 567.127 483.659 566.316 485.716 566.316C491.201 566.316 493.944 569.495 493.944 575.854V603.158C493.944 606.275 492.978 608.706 491.046 610.451C489.113 612.197 486.495 613.069 483.191 613.069H472.718V555.096ZM479.731 607.085H483.378C484.438 607.085 485.279 606.773 485.903 606.15C486.588 605.464 486.931 604.592 486.931 603.532V575.947C486.931 573.828 485.996 572.768 484.126 572.768C482.256 572.768 480.791 573.734 479.731 575.667V607.085Z" fill="white"/>
<path d="M428.483 605.401C428.483 608.456 428.701 611.011 429.138 613.069C427.268 613.318 425.242 613.443 423.06 613.443C422 613.443 421.47 612.975 421.47 612.04V575.012C421.47 573.702 421.221 572.767 420.722 572.206C420.286 571.645 419.413 571.365 418.104 571.365C418.042 569.744 418.447 568.497 419.319 567.625C420.255 566.752 421.719 566.315 423.714 566.315C425.771 566.315 427.205 567.282 428.016 569.214C429.948 567.282 432.255 566.315 434.935 566.315C437.678 566.315 439.735 567.531 441.107 569.962C443.226 567.531 445.564 566.315 448.12 566.315C450.738 566.315 452.733 567.095 454.104 568.653C455.475 570.212 456.161 572.425 456.161 575.292V605.308C456.161 606.617 456.379 607.552 456.816 608.113C457.314 608.674 458.218 608.954 459.527 608.954C459.59 610.575 459.153 611.822 458.218 612.695C457.346 613.567 456.037 614.004 454.291 614.004C452.546 614.004 451.236 613.474 450.364 612.414C449.553 611.354 449.148 609.609 449.148 607.178V575.853C449.148 573.796 448.182 572.767 446.249 572.767C444.566 572.767 443.257 573.734 442.322 575.666V605.401C442.322 608.456 442.54 611.011 442.977 613.069C441.107 613.318 439.081 613.443 436.899 613.443C435.839 613.443 435.309 612.975 435.309 612.04V575.853C435.309 573.796 434.343 572.767 432.41 572.767C430.727 572.767 429.418 573.734 428.483 575.666V605.401Z" fill="white"/>
<path d="M383.783 604.466V576.227C383.783 573.11 384.749 570.679 386.682 568.934C388.614 567.188 391.233 566.315 394.536 566.315C397.84 566.315 400.396 567.126 402.204 568.747C404.074 570.367 405.009 572.736 405.009 575.853V604.092C405.009 607.209 404.012 609.64 402.017 611.386C400.085 613.131 397.466 614.004 394.162 614.004C390.859 614.004 388.303 613.193 386.495 611.573C384.687 609.952 383.783 607.583 383.783 604.466ZM390.796 575.853V604.466C390.796 605.526 391.139 606.43 391.825 607.178C392.511 607.863 393.352 608.206 394.349 608.206C395.409 608.206 396.282 607.863 396.968 607.178C397.653 606.43 397.996 605.526 397.996 604.466V575.853C397.996 574.793 397.653 573.921 396.968 573.235C396.282 572.487 395.409 572.113 394.349 572.113C393.352 572.113 392.511 572.487 391.825 573.235C391.139 573.921 390.796 574.793 390.796 575.853Z" fill="white"/>
<path d="M366.18 603.624C368.673 604.747 369.92 606.367 369.92 608.487C369.92 609.173 369.64 609.734 369.079 610.17C366.585 612.726 362.814 614.004 357.764 614.004C351.406 614.004 348.227 610.513 348.227 603.531V575.479C348.227 569.37 351.842 566.315 359.073 566.315C362.253 566.315 364.746 567.032 366.554 568.466C368.362 569.9 369.266 571.832 369.266 574.263V581.931C369.266 582.991 368.518 583.708 367.021 584.082C366.273 584.331 365.463 584.456 364.59 584.456C363.78 584.456 362.969 584.362 362.159 584.175C362.346 582.804 362.44 581.339 362.44 579.78V576.695C362.44 575.136 362.159 574.014 361.598 573.328C361.037 572.643 360.071 572.3 358.699 572.3C356.393 572.3 355.24 573.266 355.24 575.199V602.409C355.24 604.341 355.551 605.744 356.175 606.617C356.798 607.489 357.827 607.926 359.26 607.926C360.756 607.926 362.19 607.458 363.562 606.523C364.933 605.588 365.806 604.622 366.18 603.624Z" fill="white"/>
</svg>
